G04 #@! TF.GenerationSoftware,KiCad,Pcbnew,(5.0.2)-1*
G04 #@! TF.CreationDate,2019-06-11T21:21:37-03:00*
G04 #@! TF.ProjectId,projeto(2),70726f6a-6574-46f2-9832-292e6b696361,rev?*
G04 #@! TF.SameCoordinates,Original*
G04 #@! TF.FileFunction,Soldermask,Bot*
G04 #@! TF.FilePolarity,Negative*
%FSLAX46Y46*%
G04 Gerber Fmt 4.6, Leading zero omitted, Abs format (unit mm)*
G04 Created by KiCad (PCBNEW (5.0.2)-1) date 11/06/2019 21:21:37*
%MOMM*%
%LPD*%
G01*
G04 APERTURE LIST*
%ADD10C,0.100000*%
G04 APERTURE END LIST*
D10*
G36*
X216614927Y-112328190D02*
X216614929Y-112328191D01*
X216614930Y-112328191D01*
X217060984Y-112512952D01*
X217460610Y-112779974D01*
X217462424Y-112781186D01*
X217803814Y-113122576D01*
X217803816Y-113122579D01*
X218072048Y-113524016D01*
X218251571Y-113957424D01*
X218256810Y-113970073D01*
X218351000Y-114443596D01*
X218351000Y-114926404D01*
X218258114Y-115393373D01*
X218256809Y-115399930D01*
X218072048Y-115845984D01*
X217828696Y-116210185D01*
X217803814Y-116247424D01*
X217462424Y-116588814D01*
X217462421Y-116588816D01*
X217060984Y-116857048D01*
X216614930Y-117041809D01*
X216614929Y-117041809D01*
X216614927Y-117041810D01*
X216141404Y-117136000D01*
X215658596Y-117136000D01*
X215185073Y-117041810D01*
X215185071Y-117041809D01*
X215185070Y-117041809D01*
X214739016Y-116857048D01*
X214337579Y-116588816D01*
X214337576Y-116588814D01*
X213996186Y-116247424D01*
X213971304Y-116210185D01*
X213727952Y-115845984D01*
X213543191Y-115399930D01*
X213541887Y-115393373D01*
X213449000Y-114926404D01*
X213449000Y-114443596D01*
X213543190Y-113970073D01*
X213548429Y-113957424D01*
X213727952Y-113524016D01*
X213996184Y-113122579D01*
X213996186Y-113122576D01*
X214337576Y-112781186D01*
X214339390Y-112779974D01*
X214739016Y-112512952D01*
X215185070Y-112328191D01*
X215185071Y-112328191D01*
X215185073Y-112328190D01*
X215658596Y-112234000D01*
X216141404Y-112234000D01*
X216614927Y-112328190D01*
X216614927Y-112328190D01*
G37*
G36*
X209816000Y-116471000D02*
X208014000Y-116471000D01*
X208014000Y-114669000D01*
X209816000Y-114669000D01*
X209816000Y-116471000D01*
X209816000Y-116471000D01*
G37*
G36*
X206485443Y-114675519D02*
X206551627Y-114682037D01*
X206664853Y-114716384D01*
X206721467Y-114733557D01*
X206755615Y-114751810D01*
X206877991Y-114817222D01*
X206913057Y-114846000D01*
X207015186Y-114929814D01*
X207098448Y-115031271D01*
X207127778Y-115067009D01*
X207127779Y-115067011D01*
X207211443Y-115223533D01*
X207211443Y-115223534D01*
X207262963Y-115393373D01*
X207280359Y-115570000D01*
X207262963Y-115746627D01*
X207232823Y-115845984D01*
X207211443Y-115916467D01*
X207137348Y-116055087D01*
X207127778Y-116072991D01*
X207098448Y-116108729D01*
X207015186Y-116210186D01*
X206913729Y-116293448D01*
X206877991Y-116322778D01*
X206877989Y-116322779D01*
X206721467Y-116406443D01*
X206664853Y-116423616D01*
X206551627Y-116457963D01*
X206485442Y-116464482D01*
X206419260Y-116471000D01*
X206330740Y-116471000D01*
X206264558Y-116464482D01*
X206198373Y-116457963D01*
X206085147Y-116423616D01*
X206028533Y-116406443D01*
X205872011Y-116322779D01*
X205872009Y-116322778D01*
X205836271Y-116293448D01*
X205734814Y-116210186D01*
X205651552Y-116108729D01*
X205622222Y-116072991D01*
X205612652Y-116055087D01*
X205538557Y-115916467D01*
X205517177Y-115845984D01*
X205487037Y-115746627D01*
X205469641Y-115570000D01*
X205487037Y-115393373D01*
X205538557Y-115223534D01*
X205538557Y-115223533D01*
X205622221Y-115067011D01*
X205622222Y-115067009D01*
X205651552Y-115031271D01*
X205734814Y-114929814D01*
X205836943Y-114846000D01*
X205872009Y-114817222D01*
X205994385Y-114751810D01*
X206028533Y-114733557D01*
X206085147Y-114716384D01*
X206198373Y-114682037D01*
X206264557Y-114675519D01*
X206330740Y-114669000D01*
X206419260Y-114669000D01*
X206485443Y-114675519D01*
X206485443Y-114675519D01*
G37*
G36*
X203945443Y-114675519D02*
X204011627Y-114682037D01*
X204124853Y-114716384D01*
X204181467Y-114733557D01*
X204215615Y-114751810D01*
X204337991Y-114817222D01*
X204373057Y-114846000D01*
X204475186Y-114929814D01*
X204558448Y-115031271D01*
X204587778Y-115067009D01*
X204587779Y-115067011D01*
X204671443Y-115223533D01*
X204671443Y-115223534D01*
X204722963Y-115393373D01*
X204740359Y-115570000D01*
X204722963Y-115746627D01*
X204692823Y-115845984D01*
X204671443Y-115916467D01*
X204597348Y-116055087D01*
X204587778Y-116072991D01*
X204558448Y-116108729D01*
X204475186Y-116210186D01*
X204373729Y-116293448D01*
X204337991Y-116322778D01*
X204337989Y-116322779D01*
X204181467Y-116406443D01*
X204124853Y-116423616D01*
X204011627Y-116457963D01*
X203945442Y-116464482D01*
X203879260Y-116471000D01*
X203790740Y-116471000D01*
X203724558Y-116464482D01*
X203658373Y-116457963D01*
X203545147Y-116423616D01*
X203488533Y-116406443D01*
X203332011Y-116322779D01*
X203332009Y-116322778D01*
X203296271Y-116293448D01*
X203194814Y-116210186D01*
X203111552Y-116108729D01*
X203082222Y-116072991D01*
X203072652Y-116055087D01*
X202998557Y-115916467D01*
X202977177Y-115845984D01*
X202947037Y-115746627D01*
X202929641Y-115570000D01*
X202947037Y-115393373D01*
X202998557Y-115223534D01*
X202998557Y-115223533D01*
X203082221Y-115067011D01*
X203082222Y-115067009D01*
X203111552Y-115031271D01*
X203194814Y-114929814D01*
X203296943Y-114846000D01*
X203332009Y-114817222D01*
X203454385Y-114751810D01*
X203488533Y-114733557D01*
X203545147Y-114716384D01*
X203658373Y-114682037D01*
X203724557Y-114675519D01*
X203790740Y-114669000D01*
X203879260Y-114669000D01*
X203945443Y-114675519D01*
X203945443Y-114675519D01*
G37*
G36*
X201405443Y-114675519D02*
X201471627Y-114682037D01*
X201584853Y-114716384D01*
X201641467Y-114733557D01*
X201675615Y-114751810D01*
X201797991Y-114817222D01*
X201833057Y-114846000D01*
X201935186Y-114929814D01*
X202018448Y-115031271D01*
X202047778Y-115067009D01*
X202047779Y-115067011D01*
X202131443Y-115223533D01*
X202131443Y-115223534D01*
X202182963Y-115393373D01*
X202200359Y-115570000D01*
X202182963Y-115746627D01*
X202152823Y-115845984D01*
X202131443Y-115916467D01*
X202057348Y-116055087D01*
X202047778Y-116072991D01*
X202018448Y-116108729D01*
X201935186Y-116210186D01*
X201833729Y-116293448D01*
X201797991Y-116322778D01*
X201797989Y-116322779D01*
X201641467Y-116406443D01*
X201584853Y-116423616D01*
X201471627Y-116457963D01*
X201405442Y-116464482D01*
X201339260Y-116471000D01*
X201250740Y-116471000D01*
X201184558Y-116464482D01*
X201118373Y-116457963D01*
X201005147Y-116423616D01*
X200948533Y-116406443D01*
X200792011Y-116322779D01*
X200792009Y-116322778D01*
X200756271Y-116293448D01*
X200654814Y-116210186D01*
X200571552Y-116108729D01*
X200542222Y-116072991D01*
X200532652Y-116055087D01*
X200458557Y-115916467D01*
X200437177Y-115845984D01*
X200407037Y-115746627D01*
X200389641Y-115570000D01*
X200407037Y-115393373D01*
X200458557Y-115223534D01*
X200458557Y-115223533D01*
X200542221Y-115067011D01*
X200542222Y-115067009D01*
X200571552Y-115031271D01*
X200654814Y-114929814D01*
X200756943Y-114846000D01*
X200792009Y-114817222D01*
X200914385Y-114751810D01*
X200948533Y-114733557D01*
X201005147Y-114716384D01*
X201118373Y-114682037D01*
X201184557Y-114675519D01*
X201250740Y-114669000D01*
X201339260Y-114669000D01*
X201405443Y-114675519D01*
X201405443Y-114675519D01*
G37*
G36*
X198865443Y-114675519D02*
X198931627Y-114682037D01*
X199044853Y-114716384D01*
X199101467Y-114733557D01*
X199135615Y-114751810D01*
X199257991Y-114817222D01*
X199293057Y-114846000D01*
X199395186Y-114929814D01*
X199478448Y-115031271D01*
X199507778Y-115067009D01*
X199507779Y-115067011D01*
X199591443Y-115223533D01*
X199591443Y-115223534D01*
X199642963Y-115393373D01*
X199660359Y-115570000D01*
X199642963Y-115746627D01*
X199612823Y-115845984D01*
X199591443Y-115916467D01*
X199517348Y-116055087D01*
X199507778Y-116072991D01*
X199478448Y-116108729D01*
X199395186Y-116210186D01*
X199293729Y-116293448D01*
X199257991Y-116322778D01*
X199257989Y-116322779D01*
X199101467Y-116406443D01*
X199044853Y-116423616D01*
X198931627Y-116457963D01*
X198865442Y-116464482D01*
X198799260Y-116471000D01*
X198710740Y-116471000D01*
X198644558Y-116464482D01*
X198578373Y-116457963D01*
X198465147Y-116423616D01*
X198408533Y-116406443D01*
X198252011Y-116322779D01*
X198252009Y-116322778D01*
X198216271Y-116293448D01*
X198114814Y-116210186D01*
X198031552Y-116108729D01*
X198002222Y-116072991D01*
X197992652Y-116055087D01*
X197918557Y-115916467D01*
X197897177Y-115845984D01*
X197867037Y-115746627D01*
X197849641Y-115570000D01*
X197867037Y-115393373D01*
X197918557Y-115223534D01*
X197918557Y-115223533D01*
X198002221Y-115067011D01*
X198002222Y-115067009D01*
X198031552Y-115031271D01*
X198114814Y-114929814D01*
X198216943Y-114846000D01*
X198252009Y-114817222D01*
X198374385Y-114751810D01*
X198408533Y-114733557D01*
X198465147Y-114716384D01*
X198578373Y-114682037D01*
X198644557Y-114675519D01*
X198710740Y-114669000D01*
X198799260Y-114669000D01*
X198865443Y-114675519D01*
X198865443Y-114675519D01*
G37*
G36*
X192671000Y-116471000D02*
X190869000Y-116471000D01*
X190869000Y-114669000D01*
X192671000Y-114669000D01*
X192671000Y-116471000D01*
X192671000Y-116471000D01*
G37*
G36*
X196325443Y-114675519D02*
X196391627Y-114682037D01*
X196504853Y-114716384D01*
X196561467Y-114733557D01*
X196595615Y-114751810D01*
X196717991Y-114817222D01*
X196753057Y-114846000D01*
X196855186Y-114929814D01*
X196938448Y-115031271D01*
X196967778Y-115067009D01*
X196967779Y-115067011D01*
X197051443Y-115223533D01*
X197051443Y-115223534D01*
X197102963Y-115393373D01*
X197120359Y-115570000D01*
X197102963Y-115746627D01*
X197072823Y-115845984D01*
X197051443Y-115916467D01*
X196977348Y-116055087D01*
X196967778Y-116072991D01*
X196938448Y-116108729D01*
X196855186Y-116210186D01*
X196753729Y-116293448D01*
X196717991Y-116322778D01*
X196717989Y-116322779D01*
X196561467Y-116406443D01*
X196504853Y-116423616D01*
X196391627Y-116457963D01*
X196325442Y-116464482D01*
X196259260Y-116471000D01*
X196170740Y-116471000D01*
X196104558Y-116464482D01*
X196038373Y-116457963D01*
X195925147Y-116423616D01*
X195868533Y-116406443D01*
X195712011Y-116322779D01*
X195712009Y-116322778D01*
X195676271Y-116293448D01*
X195574814Y-116210186D01*
X195491552Y-116108729D01*
X195462222Y-116072991D01*
X195452652Y-116055087D01*
X195378557Y-115916467D01*
X195357177Y-115845984D01*
X195327037Y-115746627D01*
X195309641Y-115570000D01*
X195327037Y-115393373D01*
X195378557Y-115223534D01*
X195378557Y-115223533D01*
X195462221Y-115067011D01*
X195462222Y-115067009D01*
X195491552Y-115031271D01*
X195574814Y-114929814D01*
X195676943Y-114846000D01*
X195712009Y-114817222D01*
X195834385Y-114751810D01*
X195868533Y-114733557D01*
X195925147Y-114716384D01*
X196038373Y-114682037D01*
X196104557Y-114675519D01*
X196170740Y-114669000D01*
X196259260Y-114669000D01*
X196325443Y-114675519D01*
X196325443Y-114675519D01*
G37*
G36*
X184260443Y-114675519D02*
X184326627Y-114682037D01*
X184439853Y-114716384D01*
X184496467Y-114733557D01*
X184530615Y-114751810D01*
X184652991Y-114817222D01*
X184688057Y-114846000D01*
X184790186Y-114929814D01*
X184873448Y-115031271D01*
X184902778Y-115067009D01*
X184902779Y-115067011D01*
X184986443Y-115223533D01*
X184986443Y-115223534D01*
X185037963Y-115393373D01*
X185055359Y-115570000D01*
X185037963Y-115746627D01*
X185007823Y-115845984D01*
X184986443Y-115916467D01*
X184912348Y-116055087D01*
X184902778Y-116072991D01*
X184873448Y-116108729D01*
X184790186Y-116210186D01*
X184688729Y-116293448D01*
X184652991Y-116322778D01*
X184652989Y-116322779D01*
X184496467Y-116406443D01*
X184439853Y-116423616D01*
X184326627Y-116457963D01*
X184260442Y-116464482D01*
X184194260Y-116471000D01*
X184105740Y-116471000D01*
X184039558Y-116464482D01*
X183973373Y-116457963D01*
X183860147Y-116423616D01*
X183803533Y-116406443D01*
X183647011Y-116322779D01*
X183647009Y-116322778D01*
X183611271Y-116293448D01*
X183509814Y-116210186D01*
X183426552Y-116108729D01*
X183397222Y-116072991D01*
X183387652Y-116055087D01*
X183313557Y-115916467D01*
X183292177Y-115845984D01*
X183262037Y-115746627D01*
X183244641Y-115570000D01*
X183262037Y-115393373D01*
X183313557Y-115223534D01*
X183313557Y-115223533D01*
X183397221Y-115067011D01*
X183397222Y-115067009D01*
X183426552Y-115031271D01*
X183509814Y-114929814D01*
X183611943Y-114846000D01*
X183647009Y-114817222D01*
X183769385Y-114751810D01*
X183803533Y-114733557D01*
X183860147Y-114716384D01*
X183973373Y-114682037D01*
X184039557Y-114675519D01*
X184105740Y-114669000D01*
X184194260Y-114669000D01*
X184260443Y-114675519D01*
X184260443Y-114675519D01*
G37*
G36*
X189340443Y-114675519D02*
X189406627Y-114682037D01*
X189519853Y-114716384D01*
X189576467Y-114733557D01*
X189610615Y-114751810D01*
X189732991Y-114817222D01*
X189768057Y-114846000D01*
X189870186Y-114929814D01*
X189953448Y-115031271D01*
X189982778Y-115067009D01*
X189982779Y-115067011D01*
X190066443Y-115223533D01*
X190066443Y-115223534D01*
X190117963Y-115393373D01*
X190135359Y-115570000D01*
X190117963Y-115746627D01*
X190087823Y-115845984D01*
X190066443Y-115916467D01*
X189992348Y-116055087D01*
X189982778Y-116072991D01*
X189953448Y-116108729D01*
X189870186Y-116210186D01*
X189768729Y-116293448D01*
X189732991Y-116322778D01*
X189732989Y-116322779D01*
X189576467Y-116406443D01*
X189519853Y-116423616D01*
X189406627Y-116457963D01*
X189340442Y-116464482D01*
X189274260Y-116471000D01*
X189185740Y-116471000D01*
X189119558Y-116464482D01*
X189053373Y-116457963D01*
X188940147Y-116423616D01*
X188883533Y-116406443D01*
X188727011Y-116322779D01*
X188727009Y-116322778D01*
X188691271Y-116293448D01*
X188589814Y-116210186D01*
X188506552Y-116108729D01*
X188477222Y-116072991D01*
X188467652Y-116055087D01*
X188393557Y-115916467D01*
X188372177Y-115845984D01*
X188342037Y-115746627D01*
X188324641Y-115570000D01*
X188342037Y-115393373D01*
X188393557Y-115223534D01*
X188393557Y-115223533D01*
X188477221Y-115067011D01*
X188477222Y-115067009D01*
X188506552Y-115031271D01*
X188589814Y-114929814D01*
X188691943Y-114846000D01*
X188727009Y-114817222D01*
X188849385Y-114751810D01*
X188883533Y-114733557D01*
X188940147Y-114716384D01*
X189053373Y-114682037D01*
X189119557Y-114675519D01*
X189185740Y-114669000D01*
X189274260Y-114669000D01*
X189340443Y-114675519D01*
X189340443Y-114675519D01*
G37*
G36*
X186800443Y-114675519D02*
X186866627Y-114682037D01*
X186979853Y-114716384D01*
X187036467Y-114733557D01*
X187070615Y-114751810D01*
X187192991Y-114817222D01*
X187228057Y-114846000D01*
X187330186Y-114929814D01*
X187413448Y-115031271D01*
X187442778Y-115067009D01*
X187442779Y-115067011D01*
X187526443Y-115223533D01*
X187526443Y-115223534D01*
X187577963Y-115393373D01*
X187595359Y-115570000D01*
X187577963Y-115746627D01*
X187547823Y-115845984D01*
X187526443Y-115916467D01*
X187452348Y-116055087D01*
X187442778Y-116072991D01*
X187413448Y-116108729D01*
X187330186Y-116210186D01*
X187228729Y-116293448D01*
X187192991Y-116322778D01*
X187192989Y-116322779D01*
X187036467Y-116406443D01*
X186979853Y-116423616D01*
X186866627Y-116457963D01*
X186800442Y-116464482D01*
X186734260Y-116471000D01*
X186645740Y-116471000D01*
X186579558Y-116464482D01*
X186513373Y-116457963D01*
X186400147Y-116423616D01*
X186343533Y-116406443D01*
X186187011Y-116322779D01*
X186187009Y-116322778D01*
X186151271Y-116293448D01*
X186049814Y-116210186D01*
X185966552Y-116108729D01*
X185937222Y-116072991D01*
X185927652Y-116055087D01*
X185853557Y-115916467D01*
X185832177Y-115845984D01*
X185802037Y-115746627D01*
X185784641Y-115570000D01*
X185802037Y-115393373D01*
X185853557Y-115223534D01*
X185853557Y-115223533D01*
X185937221Y-115067011D01*
X185937222Y-115067009D01*
X185966552Y-115031271D01*
X186049814Y-114929814D01*
X186151943Y-114846000D01*
X186187009Y-114817222D01*
X186309385Y-114751810D01*
X186343533Y-114733557D01*
X186400147Y-114716384D01*
X186513373Y-114682037D01*
X186579557Y-114675519D01*
X186645740Y-114669000D01*
X186734260Y-114669000D01*
X186800443Y-114675519D01*
X186800443Y-114675519D01*
G37*
G36*
X221694927Y-110038190D02*
X221694929Y-110038191D01*
X221694930Y-110038191D01*
X222140984Y-110222952D01*
X222540610Y-110489974D01*
X222542424Y-110491186D01*
X222883814Y-110832576D01*
X222883816Y-110832579D01*
X223152048Y-111234016D01*
X223336809Y-111680070D01*
X223431000Y-112153598D01*
X223431000Y-112636402D01*
X223336809Y-113109930D01*
X223152048Y-113555984D01*
X222885026Y-113955610D01*
X222883814Y-113957424D01*
X222542424Y-114298814D01*
X222542421Y-114298816D01*
X222140984Y-114567048D01*
X221694930Y-114751809D01*
X221694929Y-114751809D01*
X221694927Y-114751810D01*
X221221404Y-114846000D01*
X220738596Y-114846000D01*
X220265073Y-114751810D01*
X220265071Y-114751809D01*
X220265070Y-114751809D01*
X219819016Y-114567048D01*
X219417579Y-114298816D01*
X219417576Y-114298814D01*
X219076186Y-113957424D01*
X219074974Y-113955610D01*
X218807952Y-113555984D01*
X218623191Y-113109930D01*
X218529000Y-112636402D01*
X218529000Y-112153598D01*
X218623191Y-111680070D01*
X218807952Y-111234016D01*
X219076184Y-110832579D01*
X219076186Y-110832576D01*
X219417576Y-110491186D01*
X219419390Y-110489974D01*
X219819016Y-110222952D01*
X220265070Y-110038191D01*
X220265071Y-110038191D01*
X220265073Y-110038190D01*
X220738596Y-109944000D01*
X221221404Y-109944000D01*
X221694927Y-110038190D01*
X221694927Y-110038190D01*
G37*
G36*
X218351000Y-111036000D02*
X213449000Y-111036000D01*
X213449000Y-106134000D01*
X218351000Y-106134000D01*
X218351000Y-111036000D01*
X218351000Y-111036000D01*
G37*
G36*
X193833643Y-108794781D02*
X193979415Y-108855162D01*
X194110611Y-108942824D01*
X194222176Y-109054389D01*
X194309838Y-109185585D01*
X194370219Y-109331357D01*
X194401000Y-109486107D01*
X194401000Y-109643893D01*
X194370219Y-109798643D01*
X194309838Y-109944415D01*
X194222176Y-110075611D01*
X194110611Y-110187176D01*
X193979415Y-110274838D01*
X193833643Y-110335219D01*
X193678893Y-110366000D01*
X193521107Y-110366000D01*
X193366357Y-110335219D01*
X193220585Y-110274838D01*
X193089389Y-110187176D01*
X192977824Y-110075611D01*
X192890162Y-109944415D01*
X192829781Y-109798643D01*
X192799000Y-109643893D01*
X192799000Y-109486107D01*
X192829781Y-109331357D01*
X192890162Y-109185585D01*
X192977824Y-109054389D01*
X193089389Y-108942824D01*
X193220585Y-108855162D01*
X193366357Y-108794781D01*
X193521107Y-108764000D01*
X193678893Y-108764000D01*
X193833643Y-108794781D01*
X193833643Y-108794781D01*
G37*
G36*
X200333643Y-108794781D02*
X200479415Y-108855162D01*
X200610611Y-108942824D01*
X200722176Y-109054389D01*
X200809838Y-109185585D01*
X200870219Y-109331357D01*
X200901000Y-109486107D01*
X200901000Y-109643893D01*
X200870219Y-109798643D01*
X200809838Y-109944415D01*
X200722176Y-110075611D01*
X200610611Y-110187176D01*
X200479415Y-110274838D01*
X200333643Y-110335219D01*
X200178893Y-110366000D01*
X200021107Y-110366000D01*
X199866357Y-110335219D01*
X199720585Y-110274838D01*
X199589389Y-110187176D01*
X199477824Y-110075611D01*
X199390162Y-109944415D01*
X199329781Y-109798643D01*
X199299000Y-109643893D01*
X199299000Y-109486107D01*
X199329781Y-109331357D01*
X199390162Y-109185585D01*
X199477824Y-109054389D01*
X199589389Y-108942824D01*
X199720585Y-108855162D01*
X199866357Y-108794781D01*
X200021107Y-108764000D01*
X200178893Y-108764000D01*
X200333643Y-108794781D01*
X200333643Y-108794781D01*
G37*
G36*
X188903643Y-108794781D02*
X189049415Y-108855162D01*
X189180611Y-108942824D01*
X189292176Y-109054389D01*
X189379838Y-109185585D01*
X189440219Y-109331357D01*
X189471000Y-109486107D01*
X189471000Y-109643893D01*
X189440219Y-109798643D01*
X189379838Y-109944415D01*
X189292176Y-110075611D01*
X189180611Y-110187176D01*
X189049415Y-110274838D01*
X188903643Y-110335219D01*
X188748893Y-110366000D01*
X188591107Y-110366000D01*
X188436357Y-110335219D01*
X188290585Y-110274838D01*
X188159389Y-110187176D01*
X188047824Y-110075611D01*
X187960162Y-109944415D01*
X187899781Y-109798643D01*
X187869000Y-109643893D01*
X187869000Y-109486107D01*
X187899781Y-109331357D01*
X187960162Y-109185585D01*
X188047824Y-109054389D01*
X188159389Y-108942824D01*
X188290585Y-108855162D01*
X188436357Y-108794781D01*
X188591107Y-108764000D01*
X188748893Y-108764000D01*
X188903643Y-108794781D01*
X188903643Y-108794781D01*
G37*
G36*
X182403643Y-108794781D02*
X182549415Y-108855162D01*
X182680611Y-108942824D01*
X182792176Y-109054389D01*
X182879838Y-109185585D01*
X182940219Y-109331357D01*
X182971000Y-109486107D01*
X182971000Y-109643893D01*
X182940219Y-109798643D01*
X182879838Y-109944415D01*
X182792176Y-110075611D01*
X182680611Y-110187176D01*
X182549415Y-110274838D01*
X182403643Y-110335219D01*
X182248893Y-110366000D01*
X182091107Y-110366000D01*
X181936357Y-110335219D01*
X181790585Y-110274838D01*
X181659389Y-110187176D01*
X181547824Y-110075611D01*
X181460162Y-109944415D01*
X181399781Y-109798643D01*
X181369000Y-109643893D01*
X181369000Y-109486107D01*
X181399781Y-109331357D01*
X181460162Y-109185585D01*
X181547824Y-109054389D01*
X181659389Y-108942824D01*
X181790585Y-108855162D01*
X181936357Y-108794781D01*
X182091107Y-108764000D01*
X182248893Y-108764000D01*
X182403643Y-108794781D01*
X182403643Y-108794781D01*
G37*
G36*
X182403643Y-104294781D02*
X182549415Y-104355162D01*
X182680611Y-104442824D01*
X182792176Y-104554389D01*
X182879838Y-104685585D01*
X182940219Y-104831357D01*
X182971000Y-104986107D01*
X182971000Y-105143893D01*
X182940219Y-105298643D01*
X182879838Y-105444415D01*
X182792176Y-105575611D01*
X182680611Y-105687176D01*
X182549415Y-105774838D01*
X182403643Y-105835219D01*
X182248893Y-105866000D01*
X182091107Y-105866000D01*
X181936357Y-105835219D01*
X181790585Y-105774838D01*
X181659389Y-105687176D01*
X181547824Y-105575611D01*
X181460162Y-105444415D01*
X181399781Y-105298643D01*
X181369000Y-105143893D01*
X181369000Y-104986107D01*
X181399781Y-104831357D01*
X181460162Y-104685585D01*
X181547824Y-104554389D01*
X181659389Y-104442824D01*
X181790585Y-104355162D01*
X181936357Y-104294781D01*
X182091107Y-104264000D01*
X182248893Y-104264000D01*
X182403643Y-104294781D01*
X182403643Y-104294781D01*
G37*
G36*
X188903643Y-104294781D02*
X189049415Y-104355162D01*
X189180611Y-104442824D01*
X189292176Y-104554389D01*
X189379838Y-104685585D01*
X189440219Y-104831357D01*
X189471000Y-104986107D01*
X189471000Y-105143893D01*
X189440219Y-105298643D01*
X189379838Y-105444415D01*
X189292176Y-105575611D01*
X189180611Y-105687176D01*
X189049415Y-105774838D01*
X188903643Y-105835219D01*
X188748893Y-105866000D01*
X188591107Y-105866000D01*
X188436357Y-105835219D01*
X188290585Y-105774838D01*
X188159389Y-105687176D01*
X188047824Y-105575611D01*
X187960162Y-105444415D01*
X187899781Y-105298643D01*
X187869000Y-105143893D01*
X187869000Y-104986107D01*
X187899781Y-104831357D01*
X187960162Y-104685585D01*
X188047824Y-104554389D01*
X188159389Y-104442824D01*
X188290585Y-104355162D01*
X188436357Y-104294781D01*
X188591107Y-104264000D01*
X188748893Y-104264000D01*
X188903643Y-104294781D01*
X188903643Y-104294781D01*
G37*
G36*
X200333643Y-104294781D02*
X200479415Y-104355162D01*
X200610611Y-104442824D01*
X200722176Y-104554389D01*
X200809838Y-104685585D01*
X200870219Y-104831357D01*
X200901000Y-104986107D01*
X200901000Y-105143893D01*
X200870219Y-105298643D01*
X200809838Y-105444415D01*
X200722176Y-105575611D01*
X200610611Y-105687176D01*
X200479415Y-105774838D01*
X200333643Y-105835219D01*
X200178893Y-105866000D01*
X200021107Y-105866000D01*
X199866357Y-105835219D01*
X199720585Y-105774838D01*
X199589389Y-105687176D01*
X199477824Y-105575611D01*
X199390162Y-105444415D01*
X199329781Y-105298643D01*
X199299000Y-105143893D01*
X199299000Y-104986107D01*
X199329781Y-104831357D01*
X199390162Y-104685585D01*
X199477824Y-104554389D01*
X199589389Y-104442824D01*
X199720585Y-104355162D01*
X199866357Y-104294781D01*
X200021107Y-104264000D01*
X200178893Y-104264000D01*
X200333643Y-104294781D01*
X200333643Y-104294781D01*
G37*
G36*
X193833643Y-104294781D02*
X193979415Y-104355162D01*
X194110611Y-104442824D01*
X194222176Y-104554389D01*
X194309838Y-104685585D01*
X194370219Y-104831357D01*
X194401000Y-104986107D01*
X194401000Y-105143893D01*
X194370219Y-105298643D01*
X194309838Y-105444415D01*
X194222176Y-105575611D01*
X194110611Y-105687176D01*
X193979415Y-105774838D01*
X193833643Y-105835219D01*
X193678893Y-105866000D01*
X193521107Y-105866000D01*
X193366357Y-105835219D01*
X193220585Y-105774838D01*
X193089389Y-105687176D01*
X192977824Y-105575611D01*
X192890162Y-105444415D01*
X192829781Y-105298643D01*
X192799000Y-105143893D01*
X192799000Y-104986107D01*
X192829781Y-104831357D01*
X192890162Y-104685585D01*
X192977824Y-104554389D01*
X193089389Y-104442824D01*
X193220585Y-104355162D01*
X193366357Y-104294781D01*
X193521107Y-104264000D01*
X193678893Y-104264000D01*
X193833643Y-104294781D01*
X193833643Y-104294781D01*
G37*
G36*
X182403643Y-101174781D02*
X182549415Y-101235162D01*
X182680611Y-101322824D01*
X182792176Y-101434389D01*
X182879838Y-101565585D01*
X182940219Y-101711357D01*
X182971000Y-101866107D01*
X182971000Y-102023893D01*
X182940219Y-102178643D01*
X182879838Y-102324415D01*
X182792176Y-102455611D01*
X182680611Y-102567176D01*
X182549415Y-102654838D01*
X182403643Y-102715219D01*
X182248893Y-102746000D01*
X182091107Y-102746000D01*
X181936357Y-102715219D01*
X181790585Y-102654838D01*
X181659389Y-102567176D01*
X181547824Y-102455611D01*
X181460162Y-102324415D01*
X181399781Y-102178643D01*
X181369000Y-102023893D01*
X181369000Y-101866107D01*
X181399781Y-101711357D01*
X181460162Y-101565585D01*
X181547824Y-101434389D01*
X181659389Y-101322824D01*
X181790585Y-101235162D01*
X181936357Y-101174781D01*
X182091107Y-101144000D01*
X182248893Y-101144000D01*
X182403643Y-101174781D01*
X182403643Y-101174781D01*
G37*
G36*
X188903643Y-101174781D02*
X189049415Y-101235162D01*
X189180611Y-101322824D01*
X189292176Y-101434389D01*
X189379838Y-101565585D01*
X189440219Y-101711357D01*
X189471000Y-101866107D01*
X189471000Y-102023893D01*
X189440219Y-102178643D01*
X189379838Y-102324415D01*
X189292176Y-102455611D01*
X189180611Y-102567176D01*
X189049415Y-102654838D01*
X188903643Y-102715219D01*
X188748893Y-102746000D01*
X188591107Y-102746000D01*
X188436357Y-102715219D01*
X188290585Y-102654838D01*
X188159389Y-102567176D01*
X188047824Y-102455611D01*
X187960162Y-102324415D01*
X187899781Y-102178643D01*
X187869000Y-102023893D01*
X187869000Y-101866107D01*
X187899781Y-101711357D01*
X187960162Y-101565585D01*
X188047824Y-101434389D01*
X188159389Y-101322824D01*
X188290585Y-101235162D01*
X188436357Y-101174781D01*
X188591107Y-101144000D01*
X188748893Y-101144000D01*
X188903643Y-101174781D01*
X188903643Y-101174781D01*
G37*
G36*
X193833643Y-101174781D02*
X193979415Y-101235162D01*
X194110611Y-101322824D01*
X194222176Y-101434389D01*
X194309838Y-101565585D01*
X194370219Y-101711357D01*
X194401000Y-101866107D01*
X194401000Y-102023893D01*
X194370219Y-102178643D01*
X194309838Y-102324415D01*
X194222176Y-102455611D01*
X194110611Y-102567176D01*
X193979415Y-102654838D01*
X193833643Y-102715219D01*
X193678893Y-102746000D01*
X193521107Y-102746000D01*
X193366357Y-102715219D01*
X193220585Y-102654838D01*
X193089389Y-102567176D01*
X192977824Y-102455611D01*
X192890162Y-102324415D01*
X192829781Y-102178643D01*
X192799000Y-102023893D01*
X192799000Y-101866107D01*
X192829781Y-101711357D01*
X192890162Y-101565585D01*
X192977824Y-101434389D01*
X193089389Y-101322824D01*
X193220585Y-101235162D01*
X193366357Y-101174781D01*
X193521107Y-101144000D01*
X193678893Y-101144000D01*
X193833643Y-101174781D01*
X193833643Y-101174781D01*
G37*
G36*
X200333643Y-101174781D02*
X200479415Y-101235162D01*
X200610611Y-101322824D01*
X200722176Y-101434389D01*
X200809838Y-101565585D01*
X200870219Y-101711357D01*
X200901000Y-101866107D01*
X200901000Y-102023893D01*
X200870219Y-102178643D01*
X200809838Y-102324415D01*
X200722176Y-102455611D01*
X200610611Y-102567176D01*
X200479415Y-102654838D01*
X200333643Y-102715219D01*
X200178893Y-102746000D01*
X200021107Y-102746000D01*
X199866357Y-102715219D01*
X199720585Y-102654838D01*
X199589389Y-102567176D01*
X199477824Y-102455611D01*
X199390162Y-102324415D01*
X199329781Y-102178643D01*
X199299000Y-102023893D01*
X199299000Y-101866107D01*
X199329781Y-101711357D01*
X199390162Y-101565585D01*
X199477824Y-101434389D01*
X199589389Y-101322824D01*
X199720585Y-101235162D01*
X199866357Y-101174781D01*
X200021107Y-101144000D01*
X200178893Y-101144000D01*
X200333643Y-101174781D01*
X200333643Y-101174781D01*
G37*
G36*
X200333643Y-96674781D02*
X200479415Y-96735162D01*
X200610611Y-96822824D01*
X200722176Y-96934389D01*
X200809838Y-97065585D01*
X200870219Y-97211357D01*
X200901000Y-97366107D01*
X200901000Y-97523893D01*
X200870219Y-97678643D01*
X200809838Y-97824415D01*
X200722176Y-97955611D01*
X200610611Y-98067176D01*
X200479415Y-98154838D01*
X200333643Y-98215219D01*
X200178893Y-98246000D01*
X200021107Y-98246000D01*
X199866357Y-98215219D01*
X199720585Y-98154838D01*
X199589389Y-98067176D01*
X199477824Y-97955611D01*
X199390162Y-97824415D01*
X199329781Y-97678643D01*
X199299000Y-97523893D01*
X199299000Y-97366107D01*
X199329781Y-97211357D01*
X199390162Y-97065585D01*
X199477824Y-96934389D01*
X199589389Y-96822824D01*
X199720585Y-96735162D01*
X199866357Y-96674781D01*
X200021107Y-96644000D01*
X200178893Y-96644000D01*
X200333643Y-96674781D01*
X200333643Y-96674781D01*
G37*
G36*
X193833643Y-96674781D02*
X193979415Y-96735162D01*
X194110611Y-96822824D01*
X194222176Y-96934389D01*
X194309838Y-97065585D01*
X194370219Y-97211357D01*
X194401000Y-97366107D01*
X194401000Y-97523893D01*
X194370219Y-97678643D01*
X194309838Y-97824415D01*
X194222176Y-97955611D01*
X194110611Y-98067176D01*
X193979415Y-98154838D01*
X193833643Y-98215219D01*
X193678893Y-98246000D01*
X193521107Y-98246000D01*
X193366357Y-98215219D01*
X193220585Y-98154838D01*
X193089389Y-98067176D01*
X192977824Y-97955611D01*
X192890162Y-97824415D01*
X192829781Y-97678643D01*
X192799000Y-97523893D01*
X192799000Y-97366107D01*
X192829781Y-97211357D01*
X192890162Y-97065585D01*
X192977824Y-96934389D01*
X193089389Y-96822824D01*
X193220585Y-96735162D01*
X193366357Y-96674781D01*
X193521107Y-96644000D01*
X193678893Y-96644000D01*
X193833643Y-96674781D01*
X193833643Y-96674781D01*
G37*
G36*
X182403643Y-96674781D02*
X182549415Y-96735162D01*
X182680611Y-96822824D01*
X182792176Y-96934389D01*
X182879838Y-97065585D01*
X182940219Y-97211357D01*
X182971000Y-97366107D01*
X182971000Y-97523893D01*
X182940219Y-97678643D01*
X182879838Y-97824415D01*
X182792176Y-97955611D01*
X182680611Y-98067176D01*
X182549415Y-98154838D01*
X182403643Y-98215219D01*
X182248893Y-98246000D01*
X182091107Y-98246000D01*
X181936357Y-98215219D01*
X181790585Y-98154838D01*
X181659389Y-98067176D01*
X181547824Y-97955611D01*
X181460162Y-97824415D01*
X181399781Y-97678643D01*
X181369000Y-97523893D01*
X181369000Y-97366107D01*
X181399781Y-97211357D01*
X181460162Y-97065585D01*
X181547824Y-96934389D01*
X181659389Y-96822824D01*
X181790585Y-96735162D01*
X181936357Y-96674781D01*
X182091107Y-96644000D01*
X182248893Y-96644000D01*
X182403643Y-96674781D01*
X182403643Y-96674781D01*
G37*
G36*
X188903643Y-96674781D02*
X189049415Y-96735162D01*
X189180611Y-96822824D01*
X189292176Y-96934389D01*
X189379838Y-97065585D01*
X189440219Y-97211357D01*
X189471000Y-97366107D01*
X189471000Y-97523893D01*
X189440219Y-97678643D01*
X189379838Y-97824415D01*
X189292176Y-97955611D01*
X189180611Y-98067176D01*
X189049415Y-98154838D01*
X188903643Y-98215219D01*
X188748893Y-98246000D01*
X188591107Y-98246000D01*
X188436357Y-98215219D01*
X188290585Y-98154838D01*
X188159389Y-98067176D01*
X188047824Y-97955611D01*
X187960162Y-97824415D01*
X187899781Y-97678643D01*
X187869000Y-97523893D01*
X187869000Y-97366107D01*
X187899781Y-97211357D01*
X187960162Y-97065585D01*
X188047824Y-96934389D01*
X188159389Y-96822824D01*
X188290585Y-96735162D01*
X188436357Y-96674781D01*
X188591107Y-96644000D01*
X188748893Y-96644000D01*
X188903643Y-96674781D01*
X188903643Y-96674781D01*
G37*
G36*
X200333643Y-93554781D02*
X200479415Y-93615162D01*
X200610611Y-93702824D01*
X200722176Y-93814389D01*
X200809838Y-93945585D01*
X200870219Y-94091357D01*
X200901000Y-94246107D01*
X200901000Y-94403893D01*
X200870219Y-94558643D01*
X200809838Y-94704415D01*
X200722176Y-94835611D01*
X200610611Y-94947176D01*
X200479415Y-95034838D01*
X200333643Y-95095219D01*
X200178893Y-95126000D01*
X200021107Y-95126000D01*
X199866357Y-95095219D01*
X199720585Y-95034838D01*
X199589389Y-94947176D01*
X199477824Y-94835611D01*
X199390162Y-94704415D01*
X199329781Y-94558643D01*
X199299000Y-94403893D01*
X199299000Y-94246107D01*
X199329781Y-94091357D01*
X199390162Y-93945585D01*
X199477824Y-93814389D01*
X199589389Y-93702824D01*
X199720585Y-93615162D01*
X199866357Y-93554781D01*
X200021107Y-93524000D01*
X200178893Y-93524000D01*
X200333643Y-93554781D01*
X200333643Y-93554781D01*
G37*
G36*
X182403643Y-93554781D02*
X182549415Y-93615162D01*
X182680611Y-93702824D01*
X182792176Y-93814389D01*
X182879838Y-93945585D01*
X182940219Y-94091357D01*
X182971000Y-94246107D01*
X182971000Y-94403893D01*
X182940219Y-94558643D01*
X182879838Y-94704415D01*
X182792176Y-94835611D01*
X182680611Y-94947176D01*
X182549415Y-95034838D01*
X182403643Y-95095219D01*
X182248893Y-95126000D01*
X182091107Y-95126000D01*
X181936357Y-95095219D01*
X181790585Y-95034838D01*
X181659389Y-94947176D01*
X181547824Y-94835611D01*
X181460162Y-94704415D01*
X181399781Y-94558643D01*
X181369000Y-94403893D01*
X181369000Y-94246107D01*
X181399781Y-94091357D01*
X181460162Y-93945585D01*
X181547824Y-93814389D01*
X181659389Y-93702824D01*
X181790585Y-93615162D01*
X181936357Y-93554781D01*
X182091107Y-93524000D01*
X182248893Y-93524000D01*
X182403643Y-93554781D01*
X182403643Y-93554781D01*
G37*
G36*
X188903643Y-93554781D02*
X189049415Y-93615162D01*
X189180611Y-93702824D01*
X189292176Y-93814389D01*
X189379838Y-93945585D01*
X189440219Y-94091357D01*
X189471000Y-94246107D01*
X189471000Y-94403893D01*
X189440219Y-94558643D01*
X189379838Y-94704415D01*
X189292176Y-94835611D01*
X189180611Y-94947176D01*
X189049415Y-95034838D01*
X188903643Y-95095219D01*
X188748893Y-95126000D01*
X188591107Y-95126000D01*
X188436357Y-95095219D01*
X188290585Y-95034838D01*
X188159389Y-94947176D01*
X188047824Y-94835611D01*
X187960162Y-94704415D01*
X187899781Y-94558643D01*
X187869000Y-94403893D01*
X187869000Y-94246107D01*
X187899781Y-94091357D01*
X187960162Y-93945585D01*
X188047824Y-93814389D01*
X188159389Y-93702824D01*
X188290585Y-93615162D01*
X188436357Y-93554781D01*
X188591107Y-93524000D01*
X188748893Y-93524000D01*
X188903643Y-93554781D01*
X188903643Y-93554781D01*
G37*
G36*
X193833643Y-93554781D02*
X193979415Y-93615162D01*
X194110611Y-93702824D01*
X194222176Y-93814389D01*
X194309838Y-93945585D01*
X194370219Y-94091357D01*
X194401000Y-94246107D01*
X194401000Y-94403893D01*
X194370219Y-94558643D01*
X194309838Y-94704415D01*
X194222176Y-94835611D01*
X194110611Y-94947176D01*
X193979415Y-95034838D01*
X193833643Y-95095219D01*
X193678893Y-95126000D01*
X193521107Y-95126000D01*
X193366357Y-95095219D01*
X193220585Y-95034838D01*
X193089389Y-94947176D01*
X192977824Y-94835611D01*
X192890162Y-94704415D01*
X192829781Y-94558643D01*
X192799000Y-94403893D01*
X192799000Y-94246107D01*
X192829781Y-94091357D01*
X192890162Y-93945585D01*
X192977824Y-93814389D01*
X193089389Y-93702824D01*
X193220585Y-93615162D01*
X193366357Y-93554781D01*
X193521107Y-93524000D01*
X193678893Y-93524000D01*
X193833643Y-93554781D01*
X193833643Y-93554781D01*
G37*
G36*
X200333643Y-89054781D02*
X200479415Y-89115162D01*
X200610611Y-89202824D01*
X200722176Y-89314389D01*
X200809838Y-89445585D01*
X200870219Y-89591357D01*
X200901000Y-89746107D01*
X200901000Y-89903893D01*
X200870219Y-90058643D01*
X200809838Y-90204415D01*
X200722176Y-90335611D01*
X200610611Y-90447176D01*
X200479415Y-90534838D01*
X200333643Y-90595219D01*
X200178893Y-90626000D01*
X200021107Y-90626000D01*
X199866357Y-90595219D01*
X199720585Y-90534838D01*
X199589389Y-90447176D01*
X199477824Y-90335611D01*
X199390162Y-90204415D01*
X199329781Y-90058643D01*
X199299000Y-89903893D01*
X199299000Y-89746107D01*
X199329781Y-89591357D01*
X199390162Y-89445585D01*
X199477824Y-89314389D01*
X199589389Y-89202824D01*
X199720585Y-89115162D01*
X199866357Y-89054781D01*
X200021107Y-89024000D01*
X200178893Y-89024000D01*
X200333643Y-89054781D01*
X200333643Y-89054781D01*
G37*
G36*
X193833643Y-89054781D02*
X193979415Y-89115162D01*
X194110611Y-89202824D01*
X194222176Y-89314389D01*
X194309838Y-89445585D01*
X194370219Y-89591357D01*
X194401000Y-89746107D01*
X194401000Y-89903893D01*
X194370219Y-90058643D01*
X194309838Y-90204415D01*
X194222176Y-90335611D01*
X194110611Y-90447176D01*
X193979415Y-90534838D01*
X193833643Y-90595219D01*
X193678893Y-90626000D01*
X193521107Y-90626000D01*
X193366357Y-90595219D01*
X193220585Y-90534838D01*
X193089389Y-90447176D01*
X192977824Y-90335611D01*
X192890162Y-90204415D01*
X192829781Y-90058643D01*
X192799000Y-89903893D01*
X192799000Y-89746107D01*
X192829781Y-89591357D01*
X192890162Y-89445585D01*
X192977824Y-89314389D01*
X193089389Y-89202824D01*
X193220585Y-89115162D01*
X193366357Y-89054781D01*
X193521107Y-89024000D01*
X193678893Y-89024000D01*
X193833643Y-89054781D01*
X193833643Y-89054781D01*
G37*
G36*
X188903643Y-89054781D02*
X189049415Y-89115162D01*
X189180611Y-89202824D01*
X189292176Y-89314389D01*
X189379838Y-89445585D01*
X189440219Y-89591357D01*
X189471000Y-89746107D01*
X189471000Y-89903893D01*
X189440219Y-90058643D01*
X189379838Y-90204415D01*
X189292176Y-90335611D01*
X189180611Y-90447176D01*
X189049415Y-90534838D01*
X188903643Y-90595219D01*
X188748893Y-90626000D01*
X188591107Y-90626000D01*
X188436357Y-90595219D01*
X188290585Y-90534838D01*
X188159389Y-90447176D01*
X188047824Y-90335611D01*
X187960162Y-90204415D01*
X187899781Y-90058643D01*
X187869000Y-89903893D01*
X187869000Y-89746107D01*
X187899781Y-89591357D01*
X187960162Y-89445585D01*
X188047824Y-89314389D01*
X188159389Y-89202824D01*
X188290585Y-89115162D01*
X188436357Y-89054781D01*
X188591107Y-89024000D01*
X188748893Y-89024000D01*
X188903643Y-89054781D01*
X188903643Y-89054781D01*
G37*
G36*
X182403643Y-89054781D02*
X182549415Y-89115162D01*
X182680611Y-89202824D01*
X182792176Y-89314389D01*
X182879838Y-89445585D01*
X182940219Y-89591357D01*
X182971000Y-89746107D01*
X182971000Y-89903893D01*
X182940219Y-90058643D01*
X182879838Y-90204415D01*
X182792176Y-90335611D01*
X182680611Y-90447176D01*
X182549415Y-90534838D01*
X182403643Y-90595219D01*
X182248893Y-90626000D01*
X182091107Y-90626000D01*
X181936357Y-90595219D01*
X181790585Y-90534838D01*
X181659389Y-90447176D01*
X181547824Y-90335611D01*
X181460162Y-90204415D01*
X181399781Y-90058643D01*
X181369000Y-89903893D01*
X181369000Y-89746107D01*
X181399781Y-89591357D01*
X181460162Y-89445585D01*
X181547824Y-89314389D01*
X181659389Y-89202824D01*
X181790585Y-89115162D01*
X181936357Y-89054781D01*
X182091107Y-89024000D01*
X182248893Y-89024000D01*
X182403643Y-89054781D01*
X182403643Y-89054781D01*
G37*
G36*
X224900443Y-84830519D02*
X224966627Y-84837037D01*
X225079853Y-84871384D01*
X225136467Y-84888557D01*
X225275087Y-84962652D01*
X225292991Y-84972222D01*
X225328729Y-85001552D01*
X225430186Y-85084814D01*
X225513448Y-85186271D01*
X225542778Y-85222009D01*
X225542779Y-85222011D01*
X225626443Y-85378533D01*
X225643616Y-85435147D01*
X225677963Y-85548373D01*
X225695359Y-85725000D01*
X225677963Y-85901627D01*
X225653718Y-85981551D01*
X225626443Y-86071467D01*
X225618054Y-86087161D01*
X225542778Y-86227991D01*
X225513448Y-86263729D01*
X225430186Y-86365186D01*
X225328729Y-86448448D01*
X225292991Y-86477778D01*
X225292989Y-86477779D01*
X225136467Y-86561443D01*
X225079853Y-86578616D01*
X224966627Y-86612963D01*
X224900442Y-86619482D01*
X224834260Y-86626000D01*
X224745740Y-86626000D01*
X224679558Y-86619482D01*
X224613373Y-86612963D01*
X224500147Y-86578616D01*
X224443533Y-86561443D01*
X224287011Y-86477779D01*
X224287009Y-86477778D01*
X224251271Y-86448448D01*
X224149814Y-86365186D01*
X224066552Y-86263729D01*
X224037222Y-86227991D01*
X223961946Y-86087161D01*
X223953557Y-86071467D01*
X223926282Y-85981551D01*
X223902037Y-85901627D01*
X223884641Y-85725000D01*
X223902037Y-85548373D01*
X223936384Y-85435147D01*
X223953557Y-85378533D01*
X224037221Y-85222011D01*
X224037222Y-85222009D01*
X224066552Y-85186271D01*
X224149814Y-85084814D01*
X224251271Y-85001552D01*
X224287009Y-84972222D01*
X224304913Y-84962652D01*
X224443533Y-84888557D01*
X224500147Y-84871384D01*
X224613373Y-84837037D01*
X224679558Y-84830518D01*
X224745740Y-84824000D01*
X224834260Y-84824000D01*
X224900443Y-84830519D01*
X224900443Y-84830519D01*
G37*
G36*
X180403433Y-83374893D02*
X180493657Y-83392839D01*
X180599267Y-83436585D01*
X180748621Y-83498449D01*
X180978089Y-83651774D01*
X181173226Y-83846911D01*
X181326551Y-84076379D01*
X181432161Y-84331344D01*
X181486000Y-84602012D01*
X181486000Y-84877988D01*
X181432161Y-85148656D01*
X181326551Y-85403621D01*
X181173226Y-85633089D01*
X180978089Y-85828226D01*
X180748621Y-85981551D01*
X180599267Y-86043415D01*
X180493657Y-86087161D01*
X180403433Y-86105107D01*
X180222988Y-86141000D01*
X179947012Y-86141000D01*
X179766567Y-86105107D01*
X179676343Y-86087161D01*
X179570733Y-86043415D01*
X179421379Y-85981551D01*
X179191911Y-85828226D01*
X178996774Y-85633089D01*
X178843449Y-85403621D01*
X178737839Y-85148656D01*
X178684000Y-84877988D01*
X178684000Y-84602012D01*
X178737839Y-84331344D01*
X178843449Y-84076379D01*
X178996774Y-83846911D01*
X179191911Y-83651774D01*
X179421379Y-83498449D01*
X179570733Y-83436585D01*
X179676343Y-83392839D01*
X179766567Y-83374893D01*
X179947012Y-83339000D01*
X180222988Y-83339000D01*
X180403433Y-83374893D01*
X180403433Y-83374893D01*
G37*
G36*
X225691000Y-84086000D02*
X223889000Y-84086000D01*
X223889000Y-82284000D01*
X225691000Y-82284000D01*
X225691000Y-84086000D01*
X225691000Y-84086000D01*
G37*
G36*
X185021560Y-79230166D02*
X185169153Y-79291301D01*
X185300213Y-79378873D01*
X185301985Y-79380057D01*
X185414943Y-79493015D01*
X185503700Y-79625849D01*
X185564834Y-79773440D01*
X185596000Y-79930122D01*
X185596000Y-80089878D01*
X185564834Y-80246560D01*
X185503700Y-80394151D01*
X185414943Y-80526985D01*
X185301985Y-80639943D01*
X185301982Y-80639945D01*
X185169153Y-80728699D01*
X185169152Y-80728700D01*
X185169151Y-80728700D01*
X185021560Y-80789834D01*
X184864878Y-80821000D01*
X184705122Y-80821000D01*
X184548440Y-80789834D01*
X184400849Y-80728700D01*
X184400848Y-80728700D01*
X184400847Y-80728699D01*
X184268018Y-80639945D01*
X184268015Y-80639943D01*
X184155057Y-80526985D01*
X184066300Y-80394151D01*
X184005166Y-80246560D01*
X183974000Y-80089878D01*
X183974000Y-79930122D01*
X184005166Y-79773440D01*
X184066300Y-79625849D01*
X184155057Y-79493015D01*
X184268015Y-79380057D01*
X184269787Y-79378873D01*
X184400847Y-79291301D01*
X184548440Y-79230166D01*
X184705122Y-79199000D01*
X184864878Y-79199000D01*
X185021560Y-79230166D01*
X185021560Y-79230166D01*
G37*
G36*
X183021560Y-79230166D02*
X183169153Y-79291301D01*
X183300213Y-79378873D01*
X183301985Y-79380057D01*
X183414943Y-79493015D01*
X183503700Y-79625849D01*
X183564834Y-79773440D01*
X183596000Y-79930122D01*
X183596000Y-80089878D01*
X183564834Y-80246560D01*
X183503700Y-80394151D01*
X183414943Y-80526985D01*
X183301985Y-80639943D01*
X183301982Y-80639945D01*
X183169153Y-80728699D01*
X183169152Y-80728700D01*
X183169151Y-80728700D01*
X183021560Y-80789834D01*
X182864878Y-80821000D01*
X182705122Y-80821000D01*
X182548440Y-80789834D01*
X182400849Y-80728700D01*
X182400848Y-80728700D01*
X182400847Y-80728699D01*
X182268018Y-80639945D01*
X182268015Y-80639943D01*
X182155057Y-80526985D01*
X182066300Y-80394151D01*
X182005166Y-80246560D01*
X181974000Y-80089878D01*
X181974000Y-79930122D01*
X182005166Y-79773440D01*
X182066300Y-79625849D01*
X182155057Y-79493015D01*
X182268015Y-79380057D01*
X182269787Y-79378873D01*
X182400847Y-79291301D01*
X182548440Y-79230166D01*
X182705122Y-79199000D01*
X182864878Y-79199000D01*
X183021560Y-79230166D01*
X183021560Y-79230166D01*
G37*
G36*
X185021560Y-76690166D02*
X185169153Y-76751301D01*
X185300213Y-76838873D01*
X185301985Y-76840057D01*
X185414943Y-76953015D01*
X185503700Y-77085849D01*
X185564834Y-77233440D01*
X185596000Y-77390122D01*
X185596000Y-77549878D01*
X185564834Y-77706560D01*
X185503700Y-77854151D01*
X185414943Y-77986985D01*
X185301985Y-78099943D01*
X185301982Y-78099945D01*
X185169153Y-78188699D01*
X185169152Y-78188700D01*
X185169151Y-78188700D01*
X185021560Y-78249834D01*
X184864878Y-78281000D01*
X184705122Y-78281000D01*
X184548440Y-78249834D01*
X184400849Y-78188700D01*
X184400848Y-78188700D01*
X184400847Y-78188699D01*
X184268018Y-78099945D01*
X184268015Y-78099943D01*
X184155057Y-77986985D01*
X184066300Y-77854151D01*
X184005166Y-77706560D01*
X183974000Y-77549878D01*
X183974000Y-77390122D01*
X184005166Y-77233440D01*
X184066300Y-77085849D01*
X184155057Y-76953015D01*
X184268015Y-76840057D01*
X184269787Y-76838873D01*
X184400847Y-76751301D01*
X184548440Y-76690166D01*
X184705122Y-76659000D01*
X184864878Y-76659000D01*
X185021560Y-76690166D01*
X185021560Y-76690166D01*
G37*
G36*
X183021560Y-76690166D02*
X183169153Y-76751301D01*
X183300213Y-76838873D01*
X183301985Y-76840057D01*
X183414943Y-76953015D01*
X183503700Y-77085849D01*
X183564834Y-77233440D01*
X183596000Y-77390122D01*
X183596000Y-77549878D01*
X183564834Y-77706560D01*
X183503700Y-77854151D01*
X183414943Y-77986985D01*
X183301985Y-78099943D01*
X183301982Y-78099945D01*
X183169153Y-78188699D01*
X183169152Y-78188700D01*
X183169151Y-78188700D01*
X183021560Y-78249834D01*
X182864878Y-78281000D01*
X182705122Y-78281000D01*
X182548440Y-78249834D01*
X182400849Y-78188700D01*
X182400848Y-78188700D01*
X182400847Y-78188699D01*
X182268018Y-78099945D01*
X182268015Y-78099943D01*
X182155057Y-77986985D01*
X182066300Y-77854151D01*
X182005166Y-77706560D01*
X181974000Y-77549878D01*
X181974000Y-77390122D01*
X182005166Y-77233440D01*
X182066300Y-77085849D01*
X182155057Y-76953015D01*
X182268015Y-76840057D01*
X182269787Y-76838873D01*
X182400847Y-76751301D01*
X182548440Y-76690166D01*
X182705122Y-76659000D01*
X182864878Y-76659000D01*
X183021560Y-76690166D01*
X183021560Y-76690166D01*
G37*
G36*
X223353794Y-73850155D02*
X223460150Y-73871311D01*
X223530990Y-73900654D01*
X223660516Y-73954305D01*
X223840850Y-74074801D01*
X223994199Y-74228150D01*
X224114695Y-74408484D01*
X224197689Y-74608851D01*
X224240000Y-74821560D01*
X224240000Y-75038440D01*
X224197689Y-75251149D01*
X224114695Y-75451516D01*
X223994199Y-75631850D01*
X223840850Y-75785199D01*
X223660516Y-75905695D01*
X223530990Y-75959346D01*
X223460150Y-75988689D01*
X223353795Y-76009844D01*
X223247440Y-76031000D01*
X223030560Y-76031000D01*
X222924205Y-76009844D01*
X222817850Y-75988689D01*
X222747010Y-75959346D01*
X222617484Y-75905695D01*
X222437150Y-75785199D01*
X222283801Y-75631850D01*
X222163305Y-75451516D01*
X222080311Y-75251149D01*
X222038000Y-75038440D01*
X222038000Y-74821560D01*
X222080311Y-74608851D01*
X222163305Y-74408484D01*
X222283801Y-74228150D01*
X222437150Y-74074801D01*
X222617484Y-73954305D01*
X222747010Y-73900654D01*
X222817850Y-73871311D01*
X222924206Y-73850155D01*
X223030560Y-73829000D01*
X223247440Y-73829000D01*
X223353794Y-73850155D01*
X223353794Y-73850155D01*
G37*
G36*
X180403433Y-71374893D02*
X180493657Y-71392839D01*
X180599267Y-71436585D01*
X180748621Y-71498449D01*
X180978089Y-71651774D01*
X181173226Y-71846911D01*
X181326551Y-72076379D01*
X181432161Y-72331344D01*
X181486000Y-72602012D01*
X181486000Y-72877988D01*
X181432161Y-73148656D01*
X181326551Y-73403621D01*
X181173226Y-73633089D01*
X180978089Y-73828226D01*
X180748621Y-73981551D01*
X180599267Y-74043415D01*
X180493657Y-74087161D01*
X180403433Y-74105107D01*
X180222988Y-74141000D01*
X179947012Y-74141000D01*
X179766567Y-74105107D01*
X179676343Y-74087161D01*
X179570733Y-74043415D01*
X179421379Y-73981551D01*
X179191911Y-73828226D01*
X178996774Y-73633089D01*
X178843449Y-73403621D01*
X178737839Y-73148656D01*
X178684000Y-72877988D01*
X178684000Y-72602012D01*
X178737839Y-72331344D01*
X178843449Y-72076379D01*
X178996774Y-71846911D01*
X179191911Y-71651774D01*
X179421379Y-71498449D01*
X179570733Y-71436585D01*
X179676343Y-71392839D01*
X179766567Y-71374893D01*
X179947012Y-71339000D01*
X180222988Y-71339000D01*
X180403433Y-71374893D01*
X180403433Y-71374893D01*
G37*
G36*
X223353794Y-68850155D02*
X223460150Y-68871311D01*
X223530990Y-68900654D01*
X223660516Y-68954305D01*
X223840850Y-69074801D01*
X223994199Y-69228150D01*
X224114695Y-69408484D01*
X224197689Y-69608851D01*
X224240000Y-69821560D01*
X224240000Y-70038440D01*
X224197689Y-70251149D01*
X224114695Y-70451516D01*
X223994199Y-70631850D01*
X223840850Y-70785199D01*
X223660516Y-70905695D01*
X223530990Y-70959346D01*
X223460150Y-70988689D01*
X223353794Y-71009845D01*
X223247440Y-71031000D01*
X223030560Y-71031000D01*
X222924205Y-71009844D01*
X222817850Y-70988689D01*
X222747010Y-70959346D01*
X222617484Y-70905695D01*
X222437150Y-70785199D01*
X222283801Y-70631850D01*
X222163305Y-70451516D01*
X222080311Y-70251149D01*
X222038000Y-70038440D01*
X222038000Y-69821560D01*
X222080311Y-69608851D01*
X222163305Y-69408484D01*
X222283801Y-69228150D01*
X222437150Y-69074801D01*
X222617484Y-68954305D01*
X222747010Y-68900654D01*
X222817850Y-68871311D01*
X222924206Y-68850155D01*
X223030560Y-68829000D01*
X223247440Y-68829000D01*
X223353794Y-68850155D01*
X223353794Y-68850155D01*
G37*
G36*
X181241000Y-69481000D02*
X179439000Y-69481000D01*
X179439000Y-67679000D01*
X181241000Y-67679000D01*
X181241000Y-69481000D01*
X181241000Y-69481000D01*
G37*
G36*
X223353795Y-63850156D02*
X223460150Y-63871311D01*
X223530990Y-63900654D01*
X223660516Y-63954305D01*
X223840850Y-64074801D01*
X223994199Y-64228150D01*
X224114695Y-64408484D01*
X224197689Y-64608851D01*
X224240000Y-64821560D01*
X224240000Y-65038440D01*
X224197689Y-65251149D01*
X224114695Y-65451516D01*
X223994199Y-65631850D01*
X223840850Y-65785199D01*
X223660516Y-65905695D01*
X223530990Y-65959346D01*
X223460150Y-65988689D01*
X223353794Y-66009845D01*
X223247440Y-66031000D01*
X223030560Y-66031000D01*
X222924205Y-66009844D01*
X222817850Y-65988689D01*
X222747010Y-65959346D01*
X222617484Y-65905695D01*
X222437150Y-65785199D01*
X222283801Y-65631850D01*
X222163305Y-65451516D01*
X222080311Y-65251149D01*
X222038000Y-65038440D01*
X222038000Y-64821560D01*
X222080311Y-64608851D01*
X222163305Y-64408484D01*
X222283801Y-64228150D01*
X222437150Y-64074801D01*
X222617484Y-63954305D01*
X222747010Y-63900654D01*
X222817850Y-63871311D01*
X222924205Y-63850156D01*
X223030560Y-63829000D01*
X223247440Y-63829000D01*
X223353795Y-63850156D01*
X223353795Y-63850156D01*
G37*
G36*
X180450443Y-61970519D02*
X180516627Y-61977037D01*
X180629853Y-62011384D01*
X180686467Y-62028557D01*
X180825087Y-62102652D01*
X180842991Y-62112222D01*
X180878729Y-62141552D01*
X180980186Y-62224814D01*
X181063448Y-62326271D01*
X181092778Y-62362009D01*
X181092779Y-62362011D01*
X181176443Y-62518533D01*
X181176443Y-62518534D01*
X181227963Y-62688373D01*
X181245359Y-62865000D01*
X181227963Y-63041627D01*
X181193616Y-63154853D01*
X181176443Y-63211467D01*
X181102348Y-63350087D01*
X181092778Y-63367991D01*
X181063448Y-63403729D01*
X180980186Y-63505186D01*
X180878729Y-63588448D01*
X180842991Y-63617778D01*
X180842989Y-63617779D01*
X180686467Y-63701443D01*
X180629853Y-63718616D01*
X180516627Y-63752963D01*
X180450442Y-63759482D01*
X180384260Y-63766000D01*
X180295740Y-63766000D01*
X180229558Y-63759482D01*
X180163373Y-63752963D01*
X180050147Y-63718616D01*
X179993533Y-63701443D01*
X179837011Y-63617779D01*
X179837009Y-63617778D01*
X179801271Y-63588448D01*
X179699814Y-63505186D01*
X179616552Y-63403729D01*
X179587222Y-63367991D01*
X179577652Y-63350087D01*
X179503557Y-63211467D01*
X179486384Y-63154853D01*
X179452037Y-63041627D01*
X179434641Y-62865000D01*
X179452037Y-62688373D01*
X179503557Y-62518534D01*
X179503557Y-62518533D01*
X179587221Y-62362011D01*
X179587222Y-62362009D01*
X179616552Y-62326271D01*
X179699814Y-62224814D01*
X179801271Y-62141552D01*
X179837009Y-62112222D01*
X179854913Y-62102652D01*
X179993533Y-62028557D01*
X180050147Y-62011384D01*
X180163373Y-61977037D01*
X180229557Y-61970519D01*
X180295740Y-61964000D01*
X180384260Y-61964000D01*
X180450443Y-61970519D01*
X180450443Y-61970519D01*
G37*
G36*
X180450442Y-59430518D02*
X180516627Y-59437037D01*
X180629853Y-59471384D01*
X180686467Y-59488557D01*
X180825087Y-59562652D01*
X180842991Y-59572222D01*
X180878729Y-59601552D01*
X180980186Y-59684814D01*
X181063448Y-59786271D01*
X181092778Y-59822009D01*
X181092779Y-59822011D01*
X181176443Y-59978533D01*
X181176443Y-59978534D01*
X181227963Y-60148373D01*
X181245359Y-60325000D01*
X181227963Y-60501627D01*
X181193616Y-60614853D01*
X181176443Y-60671467D01*
X181102348Y-60810087D01*
X181092778Y-60827991D01*
X181063448Y-60863729D01*
X180980186Y-60965186D01*
X180878729Y-61048448D01*
X180842991Y-61077778D01*
X180842989Y-61077779D01*
X180686467Y-61161443D01*
X180629853Y-61178616D01*
X180516627Y-61212963D01*
X180450442Y-61219482D01*
X180384260Y-61226000D01*
X180295740Y-61226000D01*
X180229558Y-61219482D01*
X180163373Y-61212963D01*
X180050147Y-61178616D01*
X179993533Y-61161443D01*
X179837011Y-61077779D01*
X179837009Y-61077778D01*
X179801271Y-61048448D01*
X179699814Y-60965186D01*
X179616552Y-60863729D01*
X179587222Y-60827991D01*
X179577652Y-60810087D01*
X179503557Y-60671467D01*
X179486384Y-60614853D01*
X179452037Y-60501627D01*
X179434641Y-60325000D01*
X179452037Y-60148373D01*
X179503557Y-59978534D01*
X179503557Y-59978533D01*
X179587221Y-59822011D01*
X179587222Y-59822009D01*
X179616552Y-59786271D01*
X179699814Y-59684814D01*
X179801271Y-59601552D01*
X179837009Y-59572222D01*
X179854913Y-59562652D01*
X179993533Y-59488557D01*
X180050147Y-59471384D01*
X180163373Y-59437037D01*
X180229558Y-59430518D01*
X180295740Y-59424000D01*
X180384260Y-59424000D01*
X180450442Y-59430518D01*
X180450442Y-59430518D01*
G37*
G36*
X222360442Y-56890518D02*
X222426627Y-56897037D01*
X222539853Y-56931384D01*
X222596467Y-56948557D01*
X222735087Y-57022652D01*
X222752991Y-57032222D01*
X222788729Y-57061552D01*
X222890186Y-57144814D01*
X222973448Y-57246271D01*
X223002778Y-57282009D01*
X223002779Y-57282011D01*
X223086443Y-57438533D01*
X223086443Y-57438534D01*
X223137963Y-57608373D01*
X223155359Y-57785000D01*
X223137963Y-57961627D01*
X223103616Y-58074853D01*
X223086443Y-58131467D01*
X223012348Y-58270087D01*
X223002778Y-58287991D01*
X222973448Y-58323729D01*
X222890186Y-58425186D01*
X222788729Y-58508448D01*
X222752991Y-58537778D01*
X222752989Y-58537779D01*
X222596467Y-58621443D01*
X222539853Y-58638616D01*
X222426627Y-58672963D01*
X222360442Y-58679482D01*
X222294260Y-58686000D01*
X222205740Y-58686000D01*
X222139558Y-58679482D01*
X222073373Y-58672963D01*
X221960147Y-58638616D01*
X221903533Y-58621443D01*
X221747011Y-58537779D01*
X221747009Y-58537778D01*
X221711271Y-58508448D01*
X221609814Y-58425186D01*
X221526552Y-58323729D01*
X221497222Y-58287991D01*
X221487652Y-58270087D01*
X221413557Y-58131467D01*
X221396384Y-58074853D01*
X221362037Y-57961627D01*
X221344641Y-57785000D01*
X221362037Y-57608373D01*
X221413557Y-57438534D01*
X221413557Y-57438533D01*
X221497221Y-57282011D01*
X221497222Y-57282009D01*
X221526552Y-57246271D01*
X221609814Y-57144814D01*
X221711271Y-57061552D01*
X221747009Y-57032222D01*
X221764913Y-57022652D01*
X221903533Y-56948557D01*
X221960147Y-56931384D01*
X222073373Y-56897037D01*
X222139558Y-56890518D01*
X222205740Y-56884000D01*
X222294260Y-56884000D01*
X222360442Y-56890518D01*
X222360442Y-56890518D01*
G37*
G36*
X225691000Y-58686000D02*
X223889000Y-58686000D01*
X223889000Y-56884000D01*
X225691000Y-56884000D01*
X225691000Y-58686000D01*
X225691000Y-58686000D01*
G37*
G36*
X180450442Y-56890518D02*
X180516627Y-56897037D01*
X180629853Y-56931384D01*
X180686467Y-56948557D01*
X180825087Y-57022652D01*
X180842991Y-57032222D01*
X180878729Y-57061552D01*
X180980186Y-57144814D01*
X181063448Y-57246271D01*
X181092778Y-57282009D01*
X181092779Y-57282011D01*
X181176443Y-57438533D01*
X181176443Y-57438534D01*
X181227963Y-57608373D01*
X181245359Y-57785000D01*
X181227963Y-57961627D01*
X181193616Y-58074853D01*
X181176443Y-58131467D01*
X181102348Y-58270087D01*
X181092778Y-58287991D01*
X181063448Y-58323729D01*
X180980186Y-58425186D01*
X180878729Y-58508448D01*
X180842991Y-58537778D01*
X180842989Y-58537779D01*
X180686467Y-58621443D01*
X180629853Y-58638616D01*
X180516627Y-58672963D01*
X180450442Y-58679482D01*
X180384260Y-58686000D01*
X180295740Y-58686000D01*
X180229558Y-58679482D01*
X180163373Y-58672963D01*
X180050147Y-58638616D01*
X179993533Y-58621443D01*
X179837011Y-58537779D01*
X179837009Y-58537778D01*
X179801271Y-58508448D01*
X179699814Y-58425186D01*
X179616552Y-58323729D01*
X179587222Y-58287991D01*
X179577652Y-58270087D01*
X179503557Y-58131467D01*
X179486384Y-58074853D01*
X179452037Y-57961627D01*
X179434641Y-57785000D01*
X179452037Y-57608373D01*
X179503557Y-57438534D01*
X179503557Y-57438533D01*
X179587221Y-57282011D01*
X179587222Y-57282009D01*
X179616552Y-57246271D01*
X179699814Y-57144814D01*
X179801271Y-57061552D01*
X179837009Y-57032222D01*
X179854913Y-57022652D01*
X179993533Y-56948557D01*
X180050147Y-56931384D01*
X180163373Y-56897037D01*
X180229558Y-56890518D01*
X180295740Y-56884000D01*
X180384260Y-56884000D01*
X180450442Y-56890518D01*
X180450442Y-56890518D01*
G37*
G36*
X222360442Y-54350518D02*
X222426627Y-54357037D01*
X222539853Y-54391384D01*
X222596467Y-54408557D01*
X222735087Y-54482652D01*
X222752991Y-54492222D01*
X222788729Y-54521552D01*
X222890186Y-54604814D01*
X222973448Y-54706271D01*
X223002778Y-54742009D01*
X223002779Y-54742011D01*
X223086443Y-54898533D01*
X223086443Y-54898534D01*
X223137963Y-55068373D01*
X223155359Y-55245000D01*
X223137963Y-55421627D01*
X223103616Y-55534853D01*
X223086443Y-55591467D01*
X223012348Y-55730087D01*
X223002778Y-55747991D01*
X222973448Y-55783729D01*
X222890186Y-55885186D01*
X222788729Y-55968448D01*
X222752991Y-55997778D01*
X222752989Y-55997779D01*
X222596467Y-56081443D01*
X222539853Y-56098616D01*
X222426627Y-56132963D01*
X222360443Y-56139481D01*
X222294260Y-56146000D01*
X222205740Y-56146000D01*
X222139557Y-56139481D01*
X222073373Y-56132963D01*
X221960147Y-56098616D01*
X221903533Y-56081443D01*
X221747011Y-55997779D01*
X221747009Y-55997778D01*
X221711271Y-55968448D01*
X221609814Y-55885186D01*
X221526552Y-55783729D01*
X221497222Y-55747991D01*
X221487652Y-55730087D01*
X221413557Y-55591467D01*
X221396384Y-55534853D01*
X221362037Y-55421627D01*
X221344641Y-55245000D01*
X221362037Y-55068373D01*
X221413557Y-54898534D01*
X221413557Y-54898533D01*
X221497221Y-54742011D01*
X221497222Y-54742009D01*
X221526552Y-54706271D01*
X221609814Y-54604814D01*
X221711271Y-54521552D01*
X221747009Y-54492222D01*
X221764913Y-54482652D01*
X221903533Y-54408557D01*
X221960147Y-54391384D01*
X222073373Y-54357037D01*
X222139558Y-54350518D01*
X222205740Y-54344000D01*
X222294260Y-54344000D01*
X222360442Y-54350518D01*
X222360442Y-54350518D01*
G37*
G36*
X224900442Y-54350518D02*
X224966627Y-54357037D01*
X225079853Y-54391384D01*
X225136467Y-54408557D01*
X225275087Y-54482652D01*
X225292991Y-54492222D01*
X225328729Y-54521552D01*
X225430186Y-54604814D01*
X225513448Y-54706271D01*
X225542778Y-54742009D01*
X225542779Y-54742011D01*
X225626443Y-54898533D01*
X225626443Y-54898534D01*
X225677963Y-55068373D01*
X225695359Y-55245000D01*
X225677963Y-55421627D01*
X225643616Y-55534853D01*
X225626443Y-55591467D01*
X225552348Y-55730087D01*
X225542778Y-55747991D01*
X225513448Y-55783729D01*
X225430186Y-55885186D01*
X225328729Y-55968448D01*
X225292991Y-55997778D01*
X225292989Y-55997779D01*
X225136467Y-56081443D01*
X225079853Y-56098616D01*
X224966627Y-56132963D01*
X224900443Y-56139481D01*
X224834260Y-56146000D01*
X224745740Y-56146000D01*
X224679557Y-56139481D01*
X224613373Y-56132963D01*
X224500147Y-56098616D01*
X224443533Y-56081443D01*
X224287011Y-55997779D01*
X224287009Y-55997778D01*
X224251271Y-55968448D01*
X224149814Y-55885186D01*
X224066552Y-55783729D01*
X224037222Y-55747991D01*
X224027652Y-55730087D01*
X223953557Y-55591467D01*
X223936384Y-55534853D01*
X223902037Y-55421627D01*
X223884641Y-55245000D01*
X223902037Y-55068373D01*
X223953557Y-54898534D01*
X223953557Y-54898533D01*
X224037221Y-54742011D01*
X224037222Y-54742009D01*
X224066552Y-54706271D01*
X224149814Y-54604814D01*
X224251271Y-54521552D01*
X224287009Y-54492222D01*
X224304913Y-54482652D01*
X224443533Y-54408557D01*
X224500147Y-54391384D01*
X224613373Y-54357037D01*
X224679558Y-54350518D01*
X224745740Y-54344000D01*
X224834260Y-54344000D01*
X224900442Y-54350518D01*
X224900442Y-54350518D01*
G37*
G36*
X181241000Y-56146000D02*
X179439000Y-56146000D01*
X179439000Y-54344000D01*
X181241000Y-54344000D01*
X181241000Y-56146000D01*
X181241000Y-56146000D01*
G37*
G36*
X224900442Y-51810518D02*
X224966627Y-51817037D01*
X225079853Y-51851384D01*
X225136467Y-51868557D01*
X225275087Y-51942652D01*
X225292991Y-51952222D01*
X225328729Y-51981552D01*
X225430186Y-52064814D01*
X225513448Y-52166271D01*
X225542778Y-52202009D01*
X225542779Y-52202011D01*
X225626443Y-52358533D01*
X225626443Y-52358534D01*
X225677963Y-52528373D01*
X225695359Y-52705000D01*
X225677963Y-52881627D01*
X225643616Y-52994853D01*
X225626443Y-53051467D01*
X225552348Y-53190087D01*
X225542778Y-53207991D01*
X225513448Y-53243729D01*
X225430186Y-53345186D01*
X225328729Y-53428448D01*
X225292991Y-53457778D01*
X225292989Y-53457779D01*
X225136467Y-53541443D01*
X225079853Y-53558616D01*
X224966627Y-53592963D01*
X224900442Y-53599482D01*
X224834260Y-53606000D01*
X224745740Y-53606000D01*
X224679558Y-53599482D01*
X224613373Y-53592963D01*
X224500147Y-53558616D01*
X224443533Y-53541443D01*
X224287011Y-53457779D01*
X224287009Y-53457778D01*
X224251271Y-53428448D01*
X224149814Y-53345186D01*
X224066552Y-53243729D01*
X224037222Y-53207991D01*
X224027652Y-53190087D01*
X223953557Y-53051467D01*
X223936384Y-52994853D01*
X223902037Y-52881627D01*
X223884641Y-52705000D01*
X223902037Y-52528373D01*
X223953557Y-52358534D01*
X223953557Y-52358533D01*
X224037221Y-52202011D01*
X224037222Y-52202009D01*
X224066552Y-52166271D01*
X224149814Y-52064814D01*
X224251271Y-51981552D01*
X224287009Y-51952222D01*
X224304913Y-51942652D01*
X224443533Y-51868557D01*
X224500147Y-51851384D01*
X224613373Y-51817037D01*
X224679558Y-51810518D01*
X224745740Y-51804000D01*
X224834260Y-51804000D01*
X224900442Y-51810518D01*
X224900442Y-51810518D01*
G37*
G36*
X222360442Y-51810518D02*
X222426627Y-51817037D01*
X222539853Y-51851384D01*
X222596467Y-51868557D01*
X222735087Y-51942652D01*
X222752991Y-51952222D01*
X222788729Y-51981552D01*
X222890186Y-52064814D01*
X222973448Y-52166271D01*
X223002778Y-52202009D01*
X223002779Y-52202011D01*
X223086443Y-52358533D01*
X223086443Y-52358534D01*
X223137963Y-52528373D01*
X223155359Y-52705000D01*
X223137963Y-52881627D01*
X223103616Y-52994853D01*
X223086443Y-53051467D01*
X223012348Y-53190087D01*
X223002778Y-53207991D01*
X222973448Y-53243729D01*
X222890186Y-53345186D01*
X222788729Y-53428448D01*
X222752991Y-53457778D01*
X222752989Y-53457779D01*
X222596467Y-53541443D01*
X222539853Y-53558616D01*
X222426627Y-53592963D01*
X222360442Y-53599482D01*
X222294260Y-53606000D01*
X222205740Y-53606000D01*
X222139558Y-53599482D01*
X222073373Y-53592963D01*
X221960147Y-53558616D01*
X221903533Y-53541443D01*
X221747011Y-53457779D01*
X221747009Y-53457778D01*
X221711271Y-53428448D01*
X221609814Y-53345186D01*
X221526552Y-53243729D01*
X221497222Y-53207991D01*
X221487652Y-53190087D01*
X221413557Y-53051467D01*
X221396384Y-52994853D01*
X221362037Y-52881627D01*
X221344641Y-52705000D01*
X221362037Y-52528373D01*
X221413557Y-52358534D01*
X221413557Y-52358533D01*
X221497221Y-52202011D01*
X221497222Y-52202009D01*
X221526552Y-52166271D01*
X221609814Y-52064814D01*
X221711271Y-51981552D01*
X221747009Y-51952222D01*
X221764913Y-51942652D01*
X221903533Y-51868557D01*
X221960147Y-51851384D01*
X222073373Y-51817037D01*
X222139558Y-51810518D01*
X222205740Y-51804000D01*
X222294260Y-51804000D01*
X222360442Y-51810518D01*
X222360442Y-51810518D01*
G37*
G36*
X224900443Y-49270519D02*
X224966627Y-49277037D01*
X225079853Y-49311384D01*
X225136467Y-49328557D01*
X225275087Y-49402652D01*
X225292991Y-49412222D01*
X225328729Y-49441552D01*
X225430186Y-49524814D01*
X225513448Y-49626271D01*
X225542778Y-49662009D01*
X225542779Y-49662011D01*
X225626443Y-49818533D01*
X225626443Y-49818534D01*
X225677963Y-49988373D01*
X225695359Y-50165000D01*
X225677963Y-50341627D01*
X225643616Y-50454853D01*
X225626443Y-50511467D01*
X225552348Y-50650087D01*
X225542778Y-50667991D01*
X225513448Y-50703729D01*
X225430186Y-50805186D01*
X225328729Y-50888448D01*
X225292991Y-50917778D01*
X225292989Y-50917779D01*
X225136467Y-51001443D01*
X225079853Y-51018616D01*
X224966627Y-51052963D01*
X224900443Y-51059481D01*
X224834260Y-51066000D01*
X224745740Y-51066000D01*
X224679557Y-51059481D01*
X224613373Y-51052963D01*
X224500147Y-51018616D01*
X224443533Y-51001443D01*
X224287011Y-50917779D01*
X224287009Y-50917778D01*
X224251271Y-50888448D01*
X224149814Y-50805186D01*
X224066552Y-50703729D01*
X224037222Y-50667991D01*
X224027652Y-50650087D01*
X223953557Y-50511467D01*
X223936384Y-50454853D01*
X223902037Y-50341627D01*
X223884641Y-50165000D01*
X223902037Y-49988373D01*
X223953557Y-49818534D01*
X223953557Y-49818533D01*
X224037221Y-49662011D01*
X224037222Y-49662009D01*
X224066552Y-49626271D01*
X224149814Y-49524814D01*
X224251271Y-49441552D01*
X224287009Y-49412222D01*
X224304913Y-49402652D01*
X224443533Y-49328557D01*
X224500147Y-49311384D01*
X224613373Y-49277037D01*
X224679558Y-49270518D01*
X224745740Y-49264000D01*
X224834260Y-49264000D01*
X224900443Y-49270519D01*
X224900443Y-49270519D01*
G37*
G36*
X180450443Y-49270519D02*
X180516627Y-49277037D01*
X180629853Y-49311384D01*
X180686467Y-49328557D01*
X180825087Y-49402652D01*
X180842991Y-49412222D01*
X180878729Y-49441552D01*
X180980186Y-49524814D01*
X181063448Y-49626271D01*
X181092778Y-49662009D01*
X181092779Y-49662011D01*
X181176443Y-49818533D01*
X181176443Y-49818534D01*
X181227963Y-49988373D01*
X181245359Y-50165000D01*
X181227963Y-50341627D01*
X181193616Y-50454853D01*
X181176443Y-50511467D01*
X181102348Y-50650087D01*
X181092778Y-50667991D01*
X181063448Y-50703729D01*
X180980186Y-50805186D01*
X180878729Y-50888448D01*
X180842991Y-50917778D01*
X180842989Y-50917779D01*
X180686467Y-51001443D01*
X180629853Y-51018616D01*
X180516627Y-51052963D01*
X180450443Y-51059481D01*
X180384260Y-51066000D01*
X180295740Y-51066000D01*
X180229557Y-51059481D01*
X180163373Y-51052963D01*
X180050147Y-51018616D01*
X179993533Y-51001443D01*
X179837011Y-50917779D01*
X179837009Y-50917778D01*
X179801271Y-50888448D01*
X179699814Y-50805186D01*
X179616552Y-50703729D01*
X179587222Y-50667991D01*
X179577652Y-50650087D01*
X179503557Y-50511467D01*
X179486384Y-50454853D01*
X179452037Y-50341627D01*
X179434641Y-50165000D01*
X179452037Y-49988373D01*
X179503557Y-49818534D01*
X179503557Y-49818533D01*
X179587221Y-49662011D01*
X179587222Y-49662009D01*
X179616552Y-49626271D01*
X179699814Y-49524814D01*
X179801271Y-49441552D01*
X179837009Y-49412222D01*
X179854913Y-49402652D01*
X179993533Y-49328557D01*
X180050147Y-49311384D01*
X180163373Y-49277037D01*
X180229558Y-49270518D01*
X180295740Y-49264000D01*
X180384260Y-49264000D01*
X180450443Y-49270519D01*
X180450443Y-49270519D01*
G37*
G36*
X222360443Y-49270519D02*
X222426627Y-49277037D01*
X222539853Y-49311384D01*
X222596467Y-49328557D01*
X222735087Y-49402652D01*
X222752991Y-49412222D01*
X222788729Y-49441552D01*
X222890186Y-49524814D01*
X222973448Y-49626271D01*
X223002778Y-49662009D01*
X223002779Y-49662011D01*
X223086443Y-49818533D01*
X223086443Y-49818534D01*
X223137963Y-49988373D01*
X223155359Y-50165000D01*
X223137963Y-50341627D01*
X223103616Y-50454853D01*
X223086443Y-50511467D01*
X223012348Y-50650087D01*
X223002778Y-50667991D01*
X222973448Y-50703729D01*
X222890186Y-50805186D01*
X222788729Y-50888448D01*
X222752991Y-50917778D01*
X222752989Y-50917779D01*
X222596467Y-51001443D01*
X222539853Y-51018616D01*
X222426627Y-51052963D01*
X222360443Y-51059481D01*
X222294260Y-51066000D01*
X222205740Y-51066000D01*
X222139557Y-51059481D01*
X222073373Y-51052963D01*
X221960147Y-51018616D01*
X221903533Y-51001443D01*
X221747011Y-50917779D01*
X221747009Y-50917778D01*
X221711271Y-50888448D01*
X221609814Y-50805186D01*
X221526552Y-50703729D01*
X221497222Y-50667991D01*
X221487652Y-50650087D01*
X221413557Y-50511467D01*
X221396384Y-50454853D01*
X221362037Y-50341627D01*
X221344641Y-50165000D01*
X221362037Y-49988373D01*
X221413557Y-49818534D01*
X221413557Y-49818533D01*
X221497221Y-49662011D01*
X221497222Y-49662009D01*
X221526552Y-49626271D01*
X221609814Y-49524814D01*
X221711271Y-49441552D01*
X221747009Y-49412222D01*
X221764913Y-49402652D01*
X221903533Y-49328557D01*
X221960147Y-49311384D01*
X222073373Y-49277037D01*
X222139558Y-49270518D01*
X222205740Y-49264000D01*
X222294260Y-49264000D01*
X222360443Y-49270519D01*
X222360443Y-49270519D01*
G37*
G36*
X180450442Y-46730518D02*
X180516627Y-46737037D01*
X180629853Y-46771384D01*
X180686467Y-46788557D01*
X180825087Y-46862652D01*
X180842991Y-46872222D01*
X180878729Y-46901552D01*
X180980186Y-46984814D01*
X181063448Y-47086271D01*
X181092778Y-47122009D01*
X181092779Y-47122011D01*
X181176443Y-47278533D01*
X181176443Y-47278534D01*
X181227963Y-47448373D01*
X181245359Y-47625000D01*
X181227963Y-47801627D01*
X181204807Y-47877963D01*
X181176443Y-47971467D01*
X181153591Y-48014219D01*
X181092778Y-48127991D01*
X181063448Y-48163729D01*
X180980186Y-48265186D01*
X180878729Y-48348448D01*
X180842991Y-48377778D01*
X180842989Y-48377779D01*
X180686467Y-48461443D01*
X180629853Y-48478616D01*
X180516627Y-48512963D01*
X180450442Y-48519482D01*
X180384260Y-48526000D01*
X180295740Y-48526000D01*
X180229557Y-48519481D01*
X180163373Y-48512963D01*
X180050147Y-48478616D01*
X179993533Y-48461443D01*
X179837011Y-48377779D01*
X179837009Y-48377778D01*
X179801271Y-48348448D01*
X179699814Y-48265186D01*
X179616552Y-48163729D01*
X179587222Y-48127991D01*
X179526409Y-48014219D01*
X179503557Y-47971467D01*
X179475193Y-47877963D01*
X179452037Y-47801627D01*
X179434641Y-47625000D01*
X179452037Y-47448373D01*
X179503557Y-47278534D01*
X179503557Y-47278533D01*
X179587221Y-47122011D01*
X179587222Y-47122009D01*
X179616552Y-47086271D01*
X179699814Y-46984814D01*
X179801271Y-46901552D01*
X179837009Y-46872222D01*
X179854913Y-46862652D01*
X179993533Y-46788557D01*
X180050147Y-46771384D01*
X180163373Y-46737037D01*
X180229558Y-46730518D01*
X180295740Y-46724000D01*
X180384260Y-46724000D01*
X180450442Y-46730518D01*
X180450442Y-46730518D01*
G37*
G36*
X198988643Y-46473781D02*
X199134415Y-46534162D01*
X199265611Y-46621824D01*
X199377176Y-46733389D01*
X199464838Y-46864585D01*
X199525219Y-47010357D01*
X199556000Y-47165107D01*
X199556000Y-47322893D01*
X199525219Y-47477643D01*
X199464838Y-47623415D01*
X199377176Y-47754611D01*
X199265611Y-47866176D01*
X199134415Y-47953838D01*
X198988643Y-48014219D01*
X198833893Y-48045000D01*
X198676107Y-48045000D01*
X198521357Y-48014219D01*
X198375585Y-47953838D01*
X198244389Y-47866176D01*
X198132824Y-47754611D01*
X198045162Y-47623415D01*
X197984781Y-47477643D01*
X197954000Y-47322893D01*
X197954000Y-47165107D01*
X197984781Y-47010357D01*
X198045162Y-46864585D01*
X198132824Y-46733389D01*
X198244389Y-46621824D01*
X198375585Y-46534162D01*
X198521357Y-46473781D01*
X198676107Y-46443000D01*
X198833893Y-46443000D01*
X198988643Y-46473781D01*
X198988643Y-46473781D01*
G37*
G36*
X194108643Y-46473781D02*
X194254415Y-46534162D01*
X194385611Y-46621824D01*
X194497176Y-46733389D01*
X194584838Y-46864585D01*
X194645219Y-47010357D01*
X194676000Y-47165107D01*
X194676000Y-47322893D01*
X194645219Y-47477643D01*
X194584838Y-47623415D01*
X194497176Y-47754611D01*
X194385611Y-47866176D01*
X194254415Y-47953838D01*
X194108643Y-48014219D01*
X193953893Y-48045000D01*
X193796107Y-48045000D01*
X193641357Y-48014219D01*
X193495585Y-47953838D01*
X193364389Y-47866176D01*
X193252824Y-47754611D01*
X193165162Y-47623415D01*
X193104781Y-47477643D01*
X193074000Y-47322893D01*
X193074000Y-47165107D01*
X193104781Y-47010357D01*
X193165162Y-46864585D01*
X193252824Y-46733389D01*
X193364389Y-46621824D01*
X193495585Y-46534162D01*
X193641357Y-46473781D01*
X193796107Y-46443000D01*
X193953893Y-46443000D01*
X194108643Y-46473781D01*
X194108643Y-46473781D01*
G37*
G36*
X210930442Y-46095518D02*
X210996627Y-46102037D01*
X211109853Y-46136384D01*
X211166467Y-46153557D01*
X211305087Y-46227652D01*
X211322991Y-46237222D01*
X211358729Y-46266552D01*
X211460186Y-46349814D01*
X211543448Y-46451271D01*
X211572778Y-46487009D01*
X211572779Y-46487011D01*
X211656443Y-46643533D01*
X211656443Y-46643534D01*
X211707963Y-46813373D01*
X211725359Y-46990000D01*
X211707963Y-47166627D01*
X211674017Y-47278533D01*
X211656443Y-47336467D01*
X211596627Y-47448373D01*
X211572778Y-47492991D01*
X211543448Y-47528729D01*
X211460186Y-47630186D01*
X211358729Y-47713448D01*
X211322991Y-47742778D01*
X211322989Y-47742779D01*
X211166467Y-47826443D01*
X211109853Y-47843616D01*
X210996627Y-47877963D01*
X210930443Y-47884481D01*
X210864260Y-47891000D01*
X210775740Y-47891000D01*
X210709557Y-47884481D01*
X210643373Y-47877963D01*
X210530147Y-47843616D01*
X210473533Y-47826443D01*
X210317011Y-47742779D01*
X210317009Y-47742778D01*
X210281271Y-47713448D01*
X210179814Y-47630186D01*
X210096552Y-47528729D01*
X210067222Y-47492991D01*
X210043373Y-47448373D01*
X209983557Y-47336467D01*
X209965983Y-47278533D01*
X209932037Y-47166627D01*
X209914641Y-46990000D01*
X209932037Y-46813373D01*
X209983557Y-46643534D01*
X209983557Y-46643533D01*
X210067221Y-46487011D01*
X210067222Y-46487009D01*
X210096552Y-46451271D01*
X210179814Y-46349814D01*
X210281271Y-46266552D01*
X210317009Y-46237222D01*
X210334913Y-46227652D01*
X210473533Y-46153557D01*
X210530147Y-46136384D01*
X210643373Y-46102037D01*
X210709558Y-46095518D01*
X210775740Y-46089000D01*
X210864260Y-46089000D01*
X210930442Y-46095518D01*
X210930442Y-46095518D01*
G37*
G36*
X206641000Y-47891000D02*
X204839000Y-47891000D01*
X204839000Y-46089000D01*
X206641000Y-46089000D01*
X206641000Y-47891000D01*
X206641000Y-47891000D01*
G37*
G36*
X208390442Y-46095518D02*
X208456627Y-46102037D01*
X208569853Y-46136384D01*
X208626467Y-46153557D01*
X208765087Y-46227652D01*
X208782991Y-46237222D01*
X208818729Y-46266552D01*
X208920186Y-46349814D01*
X209003448Y-46451271D01*
X209032778Y-46487009D01*
X209032779Y-46487011D01*
X209116443Y-46643533D01*
X209116443Y-46643534D01*
X209167963Y-46813373D01*
X209185359Y-46990000D01*
X209167963Y-47166627D01*
X209134017Y-47278533D01*
X209116443Y-47336467D01*
X209056627Y-47448373D01*
X209032778Y-47492991D01*
X209003448Y-47528729D01*
X208920186Y-47630186D01*
X208818729Y-47713448D01*
X208782991Y-47742778D01*
X208782989Y-47742779D01*
X208626467Y-47826443D01*
X208569853Y-47843616D01*
X208456627Y-47877963D01*
X208390443Y-47884481D01*
X208324260Y-47891000D01*
X208235740Y-47891000D01*
X208169557Y-47884481D01*
X208103373Y-47877963D01*
X207990147Y-47843616D01*
X207933533Y-47826443D01*
X207777011Y-47742779D01*
X207777009Y-47742778D01*
X207741271Y-47713448D01*
X207639814Y-47630186D01*
X207556552Y-47528729D01*
X207527222Y-47492991D01*
X207503373Y-47448373D01*
X207443557Y-47336467D01*
X207425983Y-47278533D01*
X207392037Y-47166627D01*
X207374641Y-46990000D01*
X207392037Y-46813373D01*
X207443557Y-46643534D01*
X207443557Y-46643533D01*
X207527221Y-46487011D01*
X207527222Y-46487009D01*
X207556552Y-46451271D01*
X207639814Y-46349814D01*
X207741271Y-46266552D01*
X207777009Y-46237222D01*
X207794913Y-46227652D01*
X207933533Y-46153557D01*
X207990147Y-46136384D01*
X208103373Y-46102037D01*
X208169558Y-46095518D01*
X208235740Y-46089000D01*
X208324260Y-46089000D01*
X208390442Y-46095518D01*
X208390442Y-46095518D01*
G37*
G36*
X181241000Y-45986000D02*
X179439000Y-45986000D01*
X179439000Y-44184000D01*
X181241000Y-44184000D01*
X181241000Y-45986000D01*
X181241000Y-45986000D01*
G37*
G36*
X225056000Y-45351000D02*
X223254000Y-45351000D01*
X223254000Y-43549000D01*
X225056000Y-43549000D01*
X225056000Y-45351000D01*
X225056000Y-45351000D01*
G37*
G36*
X224265442Y-41015518D02*
X224331627Y-41022037D01*
X224443588Y-41056000D01*
X224501467Y-41073557D01*
X224640087Y-41147652D01*
X224657991Y-41157222D01*
X224693729Y-41186552D01*
X224795186Y-41269814D01*
X224878448Y-41371271D01*
X224907778Y-41407009D01*
X224907779Y-41407011D01*
X224991443Y-41563533D01*
X224991443Y-41563534D01*
X225042963Y-41733373D01*
X225060359Y-41910000D01*
X225042963Y-42086627D01*
X225008616Y-42199853D01*
X224991443Y-42256467D01*
X224917348Y-42395087D01*
X224907778Y-42412991D01*
X224878448Y-42448729D01*
X224795186Y-42550186D01*
X224693729Y-42633448D01*
X224657991Y-42662778D01*
X224657989Y-42662779D01*
X224501467Y-42746443D01*
X224444853Y-42763616D01*
X224331627Y-42797963D01*
X224265442Y-42804482D01*
X224199260Y-42811000D01*
X224110740Y-42811000D01*
X224044557Y-42804481D01*
X223978373Y-42797963D01*
X223865147Y-42763616D01*
X223808533Y-42746443D01*
X223652011Y-42662779D01*
X223652009Y-42662778D01*
X223616271Y-42633448D01*
X223514814Y-42550186D01*
X223431552Y-42448729D01*
X223402222Y-42412991D01*
X223392652Y-42395087D01*
X223318557Y-42256467D01*
X223301384Y-42199853D01*
X223267037Y-42086627D01*
X223249641Y-41910000D01*
X223267037Y-41733373D01*
X223318557Y-41563534D01*
X223318557Y-41563533D01*
X223402221Y-41407011D01*
X223402222Y-41407009D01*
X223431552Y-41371271D01*
X223514814Y-41269814D01*
X223616271Y-41186552D01*
X223652009Y-41157222D01*
X223669913Y-41147652D01*
X223808533Y-41073557D01*
X223866412Y-41056000D01*
X223978373Y-41022037D01*
X224044558Y-41015518D01*
X224110740Y-41009000D01*
X224199260Y-41009000D01*
X224265442Y-41015518D01*
X224265442Y-41015518D01*
G37*
G36*
X180403433Y-38289893D02*
X180493657Y-38307839D01*
X180599267Y-38351585D01*
X180748621Y-38413449D01*
X180978089Y-38566774D01*
X181173226Y-38761911D01*
X181326551Y-38991379D01*
X181432161Y-39246344D01*
X181486000Y-39517012D01*
X181486000Y-39792988D01*
X181432161Y-40063656D01*
X181326551Y-40318621D01*
X181173226Y-40548089D01*
X180978089Y-40743226D01*
X180748621Y-40896551D01*
X180599267Y-40958415D01*
X180493657Y-41002161D01*
X180403433Y-41020107D01*
X180222988Y-41056000D01*
X179947012Y-41056000D01*
X179766567Y-41020107D01*
X179676343Y-41002161D01*
X179570733Y-40958415D01*
X179421379Y-40896551D01*
X179191911Y-40743226D01*
X178996774Y-40548089D01*
X178843449Y-40318621D01*
X178737839Y-40063656D01*
X178684000Y-39792988D01*
X178684000Y-39517012D01*
X178737839Y-39246344D01*
X178843449Y-38991379D01*
X178996774Y-38761911D01*
X179191911Y-38566774D01*
X179421379Y-38413449D01*
X179570733Y-38351585D01*
X179676343Y-38307839D01*
X179766567Y-38289893D01*
X179947012Y-38254000D01*
X180222988Y-38254000D01*
X180403433Y-38289893D01*
X180403433Y-38289893D01*
G37*
G36*
X224280589Y-34798876D02*
X224379893Y-34818629D01*
X224520206Y-34876748D01*
X224646484Y-34961125D01*
X224753875Y-35068516D01*
X224838252Y-35194794D01*
X224896371Y-35335107D01*
X224926000Y-35484063D01*
X224926000Y-35635937D01*
X224896371Y-35784893D01*
X224838252Y-35925206D01*
X224753875Y-36051484D01*
X224646484Y-36158875D01*
X224520206Y-36243252D01*
X224379893Y-36301371D01*
X224280589Y-36321124D01*
X224230938Y-36331000D01*
X224079062Y-36331000D01*
X224029411Y-36321124D01*
X223930107Y-36301371D01*
X223789794Y-36243252D01*
X223663516Y-36158875D01*
X223556125Y-36051484D01*
X223471748Y-35925206D01*
X223413629Y-35784893D01*
X223384000Y-35635937D01*
X223384000Y-35484063D01*
X223413629Y-35335107D01*
X223471748Y-35194794D01*
X223556125Y-35068516D01*
X223663516Y-34961125D01*
X223789794Y-34876748D01*
X223930107Y-34818629D01*
X224029411Y-34798876D01*
X224079062Y-34789000D01*
X224230938Y-34789000D01*
X224280589Y-34798876D01*
X224280589Y-34798876D01*
G37*
G36*
X183021560Y-34145166D02*
X183169153Y-34206301D01*
X183300213Y-34293873D01*
X183301985Y-34295057D01*
X183414943Y-34408015D01*
X183503700Y-34540849D01*
X183564834Y-34688440D01*
X183596000Y-34845122D01*
X183596000Y-35004878D01*
X183564834Y-35161560D01*
X183503699Y-35309153D01*
X183416127Y-35440213D01*
X183414943Y-35441985D01*
X183301985Y-35554943D01*
X183301982Y-35554945D01*
X183169153Y-35643699D01*
X183169152Y-35643700D01*
X183169151Y-35643700D01*
X183021560Y-35704834D01*
X182864878Y-35736000D01*
X182705122Y-35736000D01*
X182548440Y-35704834D01*
X182400849Y-35643700D01*
X182400848Y-35643700D01*
X182400847Y-35643699D01*
X182268018Y-35554945D01*
X182268015Y-35554943D01*
X182155057Y-35441985D01*
X182153873Y-35440213D01*
X182066301Y-35309153D01*
X182005166Y-35161560D01*
X181974000Y-35004878D01*
X181974000Y-34845122D01*
X182005166Y-34688440D01*
X182066300Y-34540849D01*
X182155057Y-34408015D01*
X182268015Y-34295057D01*
X182269787Y-34293873D01*
X182400847Y-34206301D01*
X182548440Y-34145166D01*
X182705122Y-34114000D01*
X182864878Y-34114000D01*
X183021560Y-34145166D01*
X183021560Y-34145166D01*
G37*
G36*
X185021560Y-34145166D02*
X185169153Y-34206301D01*
X185300213Y-34293873D01*
X185301985Y-34295057D01*
X185414943Y-34408015D01*
X185503700Y-34540849D01*
X185564834Y-34688440D01*
X185596000Y-34845122D01*
X185596000Y-35004878D01*
X185564834Y-35161560D01*
X185503699Y-35309153D01*
X185416127Y-35440213D01*
X185414943Y-35441985D01*
X185301985Y-35554943D01*
X185301982Y-35554945D01*
X185169153Y-35643699D01*
X185169152Y-35643700D01*
X185169151Y-35643700D01*
X185021560Y-35704834D01*
X184864878Y-35736000D01*
X184705122Y-35736000D01*
X184548440Y-35704834D01*
X184400849Y-35643700D01*
X184400848Y-35643700D01*
X184400847Y-35643699D01*
X184268018Y-35554945D01*
X184268015Y-35554943D01*
X184155057Y-35441985D01*
X184153873Y-35440213D01*
X184066301Y-35309153D01*
X184005166Y-35161560D01*
X183974000Y-35004878D01*
X183974000Y-34845122D01*
X184005166Y-34688440D01*
X184066300Y-34540849D01*
X184155057Y-34408015D01*
X184268015Y-34295057D01*
X184269787Y-34293873D01*
X184400847Y-34206301D01*
X184548440Y-34145166D01*
X184705122Y-34114000D01*
X184864878Y-34114000D01*
X185021560Y-34145166D01*
X185021560Y-34145166D01*
G37*
G36*
X224280589Y-32258876D02*
X224379893Y-32278629D01*
X224520206Y-32336748D01*
X224646484Y-32421125D01*
X224753875Y-32528516D01*
X224838252Y-32654794D01*
X224896371Y-32795107D01*
X224926000Y-32944063D01*
X224926000Y-33095937D01*
X224896371Y-33244893D01*
X224838252Y-33385206D01*
X224753875Y-33511484D01*
X224646484Y-33618875D01*
X224520206Y-33703252D01*
X224379893Y-33761371D01*
X224280589Y-33781124D01*
X224230938Y-33791000D01*
X224079062Y-33791000D01*
X224029411Y-33781124D01*
X223930107Y-33761371D01*
X223789794Y-33703252D01*
X223663516Y-33618875D01*
X223556125Y-33511484D01*
X223471748Y-33385206D01*
X223413629Y-33244893D01*
X223384000Y-33095937D01*
X223384000Y-32944063D01*
X223413629Y-32795107D01*
X223471748Y-32654794D01*
X223556125Y-32528516D01*
X223663516Y-32421125D01*
X223789794Y-32336748D01*
X223930107Y-32278629D01*
X224029411Y-32258876D01*
X224079062Y-32249000D01*
X224230938Y-32249000D01*
X224280589Y-32258876D01*
X224280589Y-32258876D01*
G37*
G36*
X183021560Y-31605166D02*
X183169153Y-31666301D01*
X183300213Y-31753873D01*
X183301985Y-31755057D01*
X183414943Y-31868015D01*
X183503700Y-32000849D01*
X183564834Y-32148440D01*
X183596000Y-32305122D01*
X183596000Y-32464878D01*
X183564834Y-32621560D01*
X183503699Y-32769153D01*
X183416127Y-32900213D01*
X183414943Y-32901985D01*
X183301985Y-33014943D01*
X183301982Y-33014945D01*
X183169153Y-33103699D01*
X183169152Y-33103700D01*
X183169151Y-33103700D01*
X183021560Y-33164834D01*
X182864878Y-33196000D01*
X182705122Y-33196000D01*
X182548440Y-33164834D01*
X182400849Y-33103700D01*
X182400848Y-33103700D01*
X182400847Y-33103699D01*
X182268018Y-33014945D01*
X182268015Y-33014943D01*
X182155057Y-32901985D01*
X182153873Y-32900213D01*
X182066301Y-32769153D01*
X182005166Y-32621560D01*
X181974000Y-32464878D01*
X181974000Y-32305122D01*
X182005166Y-32148440D01*
X182066300Y-32000849D01*
X182155057Y-31868015D01*
X182268015Y-31755057D01*
X182269787Y-31753873D01*
X182400847Y-31666301D01*
X182548440Y-31605166D01*
X182705122Y-31574000D01*
X182864878Y-31574000D01*
X183021560Y-31605166D01*
X183021560Y-31605166D01*
G37*
G36*
X185021560Y-31605166D02*
X185169153Y-31666301D01*
X185300213Y-31753873D01*
X185301985Y-31755057D01*
X185414943Y-31868015D01*
X185503700Y-32000849D01*
X185564834Y-32148440D01*
X185596000Y-32305122D01*
X185596000Y-32464878D01*
X185564834Y-32621560D01*
X185503699Y-32769153D01*
X185416127Y-32900213D01*
X185414943Y-32901985D01*
X185301985Y-33014943D01*
X185301982Y-33014945D01*
X185169153Y-33103699D01*
X185169152Y-33103700D01*
X185169151Y-33103700D01*
X185021560Y-33164834D01*
X184864878Y-33196000D01*
X184705122Y-33196000D01*
X184548440Y-33164834D01*
X184400849Y-33103700D01*
X184400848Y-33103700D01*
X184400847Y-33103699D01*
X184268018Y-33014945D01*
X184268015Y-33014943D01*
X184155057Y-32901985D01*
X184153873Y-32900213D01*
X184066301Y-32769153D01*
X184005166Y-32621560D01*
X183974000Y-32464878D01*
X183974000Y-32305122D01*
X184005166Y-32148440D01*
X184066300Y-32000849D01*
X184155057Y-31868015D01*
X184268015Y-31755057D01*
X184269787Y-31753873D01*
X184400847Y-31666301D01*
X184548440Y-31605166D01*
X184705122Y-31574000D01*
X184864878Y-31574000D01*
X185021560Y-31605166D01*
X185021560Y-31605166D01*
G37*
G36*
X224280589Y-29718876D02*
X224379893Y-29738629D01*
X224520206Y-29796748D01*
X224646484Y-29881125D01*
X224753875Y-29988516D01*
X224838252Y-30114794D01*
X224896371Y-30255107D01*
X224926000Y-30404063D01*
X224926000Y-30555937D01*
X224896371Y-30704893D01*
X224838252Y-30845206D01*
X224753875Y-30971484D01*
X224646484Y-31078875D01*
X224520206Y-31163252D01*
X224379893Y-31221371D01*
X224280589Y-31241124D01*
X224230938Y-31251000D01*
X224079062Y-31251000D01*
X224029411Y-31241124D01*
X223930107Y-31221371D01*
X223789794Y-31163252D01*
X223663516Y-31078875D01*
X223556125Y-30971484D01*
X223471748Y-30845206D01*
X223413629Y-30704893D01*
X223384000Y-30555937D01*
X223384000Y-30404063D01*
X223413629Y-30255107D01*
X223471748Y-30114794D01*
X223556125Y-29988516D01*
X223663516Y-29881125D01*
X223789794Y-29796748D01*
X223930107Y-29738629D01*
X224029411Y-29718876D01*
X224079062Y-29709000D01*
X224230938Y-29709000D01*
X224280589Y-29718876D01*
X224280589Y-29718876D01*
G37*
G36*
X180403433Y-26289893D02*
X180493657Y-26307839D01*
X180599267Y-26351585D01*
X180748621Y-26413449D01*
X180978089Y-26566774D01*
X181173226Y-26761911D01*
X181326551Y-26991379D01*
X181432161Y-27246344D01*
X181486000Y-27517012D01*
X181486000Y-27792988D01*
X181432161Y-28063656D01*
X181326551Y-28318621D01*
X181173226Y-28548089D01*
X180978089Y-28743226D01*
X180748621Y-28896551D01*
X180599267Y-28958415D01*
X180493657Y-29002161D01*
X180403433Y-29020107D01*
X180222988Y-29056000D01*
X179947012Y-29056000D01*
X179766567Y-29020107D01*
X179676343Y-29002161D01*
X179570733Y-28958415D01*
X179421379Y-28896551D01*
X179191911Y-28743226D01*
X178996774Y-28548089D01*
X178843449Y-28318621D01*
X178737839Y-28063656D01*
X178684000Y-27792988D01*
X178684000Y-27517012D01*
X178737839Y-27246344D01*
X178843449Y-26991379D01*
X178996774Y-26761911D01*
X179191911Y-26566774D01*
X179421379Y-26413449D01*
X179570733Y-26351585D01*
X179676343Y-26307839D01*
X179766567Y-26289893D01*
X179947012Y-26254000D01*
X180222988Y-26254000D01*
X180403433Y-26289893D01*
X180403433Y-26289893D01*
G37*
G36*
X186165442Y-20720918D02*
X186231627Y-20727437D01*
X186344853Y-20761784D01*
X186401467Y-20778957D01*
X186540087Y-20853052D01*
X186557991Y-20862622D01*
X186593729Y-20891952D01*
X186695186Y-20975214D01*
X186778448Y-21076671D01*
X186807778Y-21112409D01*
X186807779Y-21112411D01*
X186891443Y-21268933D01*
X186891443Y-21268934D01*
X186942963Y-21438773D01*
X186960359Y-21615400D01*
X186942963Y-21792027D01*
X186908616Y-21905253D01*
X186891443Y-21961867D01*
X186817348Y-22100487D01*
X186807778Y-22118391D01*
X186778448Y-22154129D01*
X186695186Y-22255586D01*
X186593729Y-22338848D01*
X186557991Y-22368178D01*
X186557989Y-22368179D01*
X186401467Y-22451843D01*
X186344853Y-22469016D01*
X186231627Y-22503363D01*
X186165443Y-22509881D01*
X186099260Y-22516400D01*
X186010740Y-22516400D01*
X185944557Y-22509881D01*
X185878373Y-22503363D01*
X185765147Y-22469016D01*
X185708533Y-22451843D01*
X185552011Y-22368179D01*
X185552009Y-22368178D01*
X185516271Y-22338848D01*
X185414814Y-22255586D01*
X185331552Y-22154129D01*
X185302222Y-22118391D01*
X185292652Y-22100487D01*
X185218557Y-21961867D01*
X185201384Y-21905253D01*
X185167037Y-21792027D01*
X185149641Y-21615400D01*
X185167037Y-21438773D01*
X185218557Y-21268934D01*
X185218557Y-21268933D01*
X185302221Y-21112411D01*
X185302222Y-21112409D01*
X185331552Y-21076671D01*
X185414814Y-20975214D01*
X185516271Y-20891952D01*
X185552009Y-20862622D01*
X185569913Y-20853052D01*
X185708533Y-20778957D01*
X185765147Y-20761784D01*
X185878373Y-20727437D01*
X185944558Y-20720918D01*
X186010740Y-20714400D01*
X186099260Y-20714400D01*
X186165442Y-20720918D01*
X186165442Y-20720918D01*
G37*
G36*
X222516000Y-22516400D02*
X220714000Y-22516400D01*
X220714000Y-20714400D01*
X222516000Y-20714400D01*
X222516000Y-22516400D01*
X222516000Y-22516400D01*
G37*
G36*
X219185442Y-20720918D02*
X219251627Y-20727437D01*
X219364853Y-20761784D01*
X219421467Y-20778957D01*
X219560087Y-20853052D01*
X219577991Y-20862622D01*
X219613729Y-20891952D01*
X219715186Y-20975214D01*
X219798448Y-21076671D01*
X219827778Y-21112409D01*
X219827779Y-21112411D01*
X219911443Y-21268933D01*
X219911443Y-21268934D01*
X219962963Y-21438773D01*
X219980359Y-21615400D01*
X219962963Y-21792027D01*
X219928616Y-21905253D01*
X219911443Y-21961867D01*
X219837348Y-22100487D01*
X219827778Y-22118391D01*
X219798448Y-22154129D01*
X219715186Y-22255586D01*
X219613729Y-22338848D01*
X219577991Y-22368178D01*
X219577989Y-22368179D01*
X219421467Y-22451843D01*
X219364853Y-22469016D01*
X219251627Y-22503363D01*
X219185443Y-22509881D01*
X219119260Y-22516400D01*
X219030740Y-22516400D01*
X218964557Y-22509881D01*
X218898373Y-22503363D01*
X218785147Y-22469016D01*
X218728533Y-22451843D01*
X218572011Y-22368179D01*
X218572009Y-22368178D01*
X218536271Y-22338848D01*
X218434814Y-22255586D01*
X218351552Y-22154129D01*
X218322222Y-22118391D01*
X218312652Y-22100487D01*
X218238557Y-21961867D01*
X218221384Y-21905253D01*
X218187037Y-21792027D01*
X218169641Y-21615400D01*
X218187037Y-21438773D01*
X218238557Y-21268934D01*
X218238557Y-21268933D01*
X218322221Y-21112411D01*
X218322222Y-21112409D01*
X218351552Y-21076671D01*
X218434814Y-20975214D01*
X218536271Y-20891952D01*
X218572009Y-20862622D01*
X218589913Y-20853052D01*
X218728533Y-20778957D01*
X218785147Y-20761784D01*
X218898373Y-20727437D01*
X218964558Y-20720918D01*
X219030740Y-20714400D01*
X219119260Y-20714400D01*
X219185442Y-20720918D01*
X219185442Y-20720918D01*
G37*
G36*
X216645442Y-20720918D02*
X216711627Y-20727437D01*
X216824853Y-20761784D01*
X216881467Y-20778957D01*
X217020087Y-20853052D01*
X217037991Y-20862622D01*
X217073729Y-20891952D01*
X217175186Y-20975214D01*
X217258448Y-21076671D01*
X217287778Y-21112409D01*
X217287779Y-21112411D01*
X217371443Y-21268933D01*
X217371443Y-21268934D01*
X217422963Y-21438773D01*
X217440359Y-21615400D01*
X217422963Y-21792027D01*
X217388616Y-21905253D01*
X217371443Y-21961867D01*
X217297348Y-22100487D01*
X217287778Y-22118391D01*
X217258448Y-22154129D01*
X217175186Y-22255586D01*
X217073729Y-22338848D01*
X217037991Y-22368178D01*
X217037989Y-22368179D01*
X216881467Y-22451843D01*
X216824853Y-22469016D01*
X216711627Y-22503363D01*
X216645443Y-22509881D01*
X216579260Y-22516400D01*
X216490740Y-22516400D01*
X216424557Y-22509881D01*
X216358373Y-22503363D01*
X216245147Y-22469016D01*
X216188533Y-22451843D01*
X216032011Y-22368179D01*
X216032009Y-22368178D01*
X215996271Y-22338848D01*
X215894814Y-22255586D01*
X215811552Y-22154129D01*
X215782222Y-22118391D01*
X215772652Y-22100487D01*
X215698557Y-21961867D01*
X215681384Y-21905253D01*
X215647037Y-21792027D01*
X215629641Y-21615400D01*
X215647037Y-21438773D01*
X215698557Y-21268934D01*
X215698557Y-21268933D01*
X215782221Y-21112411D01*
X215782222Y-21112409D01*
X215811552Y-21076671D01*
X215894814Y-20975214D01*
X215996271Y-20891952D01*
X216032009Y-20862622D01*
X216049913Y-20853052D01*
X216188533Y-20778957D01*
X216245147Y-20761784D01*
X216358373Y-20727437D01*
X216424558Y-20720918D01*
X216490740Y-20714400D01*
X216579260Y-20714400D01*
X216645442Y-20720918D01*
X216645442Y-20720918D01*
G37*
G36*
X214105442Y-20720918D02*
X214171627Y-20727437D01*
X214284853Y-20761784D01*
X214341467Y-20778957D01*
X214480087Y-20853052D01*
X214497991Y-20862622D01*
X214533729Y-20891952D01*
X214635186Y-20975214D01*
X214718448Y-21076671D01*
X214747778Y-21112409D01*
X214747779Y-21112411D01*
X214831443Y-21268933D01*
X214831443Y-21268934D01*
X214882963Y-21438773D01*
X214900359Y-21615400D01*
X214882963Y-21792027D01*
X214848616Y-21905253D01*
X214831443Y-21961867D01*
X214757348Y-22100487D01*
X214747778Y-22118391D01*
X214718448Y-22154129D01*
X214635186Y-22255586D01*
X214533729Y-22338848D01*
X214497991Y-22368178D01*
X214497989Y-22368179D01*
X214341467Y-22451843D01*
X214284853Y-22469016D01*
X214171627Y-22503363D01*
X214105443Y-22509881D01*
X214039260Y-22516400D01*
X213950740Y-22516400D01*
X213884557Y-22509881D01*
X213818373Y-22503363D01*
X213705147Y-22469016D01*
X213648533Y-22451843D01*
X213492011Y-22368179D01*
X213492009Y-22368178D01*
X213456271Y-22338848D01*
X213354814Y-22255586D01*
X213271552Y-22154129D01*
X213242222Y-22118391D01*
X213232652Y-22100487D01*
X213158557Y-21961867D01*
X213141384Y-21905253D01*
X213107037Y-21792027D01*
X213089641Y-21615400D01*
X213107037Y-21438773D01*
X213158557Y-21268934D01*
X213158557Y-21268933D01*
X213242221Y-21112411D01*
X213242222Y-21112409D01*
X213271552Y-21076671D01*
X213354814Y-20975214D01*
X213456271Y-20891952D01*
X213492009Y-20862622D01*
X213509913Y-20853052D01*
X213648533Y-20778957D01*
X213705147Y-20761784D01*
X213818373Y-20727437D01*
X213884558Y-20720918D01*
X213950740Y-20714400D01*
X214039260Y-20714400D01*
X214105442Y-20720918D01*
X214105442Y-20720918D01*
G37*
G36*
X211565442Y-20720918D02*
X211631627Y-20727437D01*
X211744853Y-20761784D01*
X211801467Y-20778957D01*
X211940087Y-20853052D01*
X211957991Y-20862622D01*
X211993729Y-20891952D01*
X212095186Y-20975214D01*
X212178448Y-21076671D01*
X212207778Y-21112409D01*
X212207779Y-21112411D01*
X212291443Y-21268933D01*
X212291443Y-21268934D01*
X212342963Y-21438773D01*
X212360359Y-21615400D01*
X212342963Y-21792027D01*
X212308616Y-21905253D01*
X212291443Y-21961867D01*
X212217348Y-22100487D01*
X212207778Y-22118391D01*
X212178448Y-22154129D01*
X212095186Y-22255586D01*
X211993729Y-22338848D01*
X211957991Y-22368178D01*
X211957989Y-22368179D01*
X211801467Y-22451843D01*
X211744853Y-22469016D01*
X211631627Y-22503363D01*
X211565443Y-22509881D01*
X211499260Y-22516400D01*
X211410740Y-22516400D01*
X211344557Y-22509881D01*
X211278373Y-22503363D01*
X211165147Y-22469016D01*
X211108533Y-22451843D01*
X210952011Y-22368179D01*
X210952009Y-22368178D01*
X210916271Y-22338848D01*
X210814814Y-22255586D01*
X210731552Y-22154129D01*
X210702222Y-22118391D01*
X210692652Y-22100487D01*
X210618557Y-21961867D01*
X210601384Y-21905253D01*
X210567037Y-21792027D01*
X210549641Y-21615400D01*
X210567037Y-21438773D01*
X210618557Y-21268934D01*
X210618557Y-21268933D01*
X210702221Y-21112411D01*
X210702222Y-21112409D01*
X210731552Y-21076671D01*
X210814814Y-20975214D01*
X210916271Y-20891952D01*
X210952009Y-20862622D01*
X210969913Y-20853052D01*
X211108533Y-20778957D01*
X211165147Y-20761784D01*
X211278373Y-20727437D01*
X211344558Y-20720918D01*
X211410740Y-20714400D01*
X211499260Y-20714400D01*
X211565442Y-20720918D01*
X211565442Y-20720918D01*
G37*
G36*
X209025442Y-20720918D02*
X209091627Y-20727437D01*
X209204853Y-20761784D01*
X209261467Y-20778957D01*
X209400087Y-20853052D01*
X209417991Y-20862622D01*
X209453729Y-20891952D01*
X209555186Y-20975214D01*
X209638448Y-21076671D01*
X209667778Y-21112409D01*
X209667779Y-21112411D01*
X209751443Y-21268933D01*
X209751443Y-21268934D01*
X209802963Y-21438773D01*
X209820359Y-21615400D01*
X209802963Y-21792027D01*
X209768616Y-21905253D01*
X209751443Y-21961867D01*
X209677348Y-22100487D01*
X209667778Y-22118391D01*
X209638448Y-22154129D01*
X209555186Y-22255586D01*
X209453729Y-22338848D01*
X209417991Y-22368178D01*
X209417989Y-22368179D01*
X209261467Y-22451843D01*
X209204853Y-22469016D01*
X209091627Y-22503363D01*
X209025443Y-22509881D01*
X208959260Y-22516400D01*
X208870740Y-22516400D01*
X208804557Y-22509881D01*
X208738373Y-22503363D01*
X208625147Y-22469016D01*
X208568533Y-22451843D01*
X208412011Y-22368179D01*
X208412009Y-22368178D01*
X208376271Y-22338848D01*
X208274814Y-22255586D01*
X208191552Y-22154129D01*
X208162222Y-22118391D01*
X208152652Y-22100487D01*
X208078557Y-21961867D01*
X208061384Y-21905253D01*
X208027037Y-21792027D01*
X208009641Y-21615400D01*
X208027037Y-21438773D01*
X208078557Y-21268934D01*
X208078557Y-21268933D01*
X208162221Y-21112411D01*
X208162222Y-21112409D01*
X208191552Y-21076671D01*
X208274814Y-20975214D01*
X208376271Y-20891952D01*
X208412009Y-20862622D01*
X208429913Y-20853052D01*
X208568533Y-20778957D01*
X208625147Y-20761784D01*
X208738373Y-20727437D01*
X208804558Y-20720918D01*
X208870740Y-20714400D01*
X208959260Y-20714400D01*
X209025442Y-20720918D01*
X209025442Y-20720918D01*
G37*
G36*
X206485442Y-20720918D02*
X206551627Y-20727437D01*
X206664853Y-20761784D01*
X206721467Y-20778957D01*
X206860087Y-20853052D01*
X206877991Y-20862622D01*
X206913729Y-20891952D01*
X207015186Y-20975214D01*
X207098448Y-21076671D01*
X207127778Y-21112409D01*
X207127779Y-21112411D01*
X207211443Y-21268933D01*
X207211443Y-21268934D01*
X207262963Y-21438773D01*
X207280359Y-21615400D01*
X207262963Y-21792027D01*
X207228616Y-21905253D01*
X207211443Y-21961867D01*
X207137348Y-22100487D01*
X207127778Y-22118391D01*
X207098448Y-22154129D01*
X207015186Y-22255586D01*
X206913729Y-22338848D01*
X206877991Y-22368178D01*
X206877989Y-22368179D01*
X206721467Y-22451843D01*
X206664853Y-22469016D01*
X206551627Y-22503363D01*
X206485443Y-22509881D01*
X206419260Y-22516400D01*
X206330740Y-22516400D01*
X206264557Y-22509881D01*
X206198373Y-22503363D01*
X206085147Y-22469016D01*
X206028533Y-22451843D01*
X205872011Y-22368179D01*
X205872009Y-22368178D01*
X205836271Y-22338848D01*
X205734814Y-22255586D01*
X205651552Y-22154129D01*
X205622222Y-22118391D01*
X205612652Y-22100487D01*
X205538557Y-21961867D01*
X205521384Y-21905253D01*
X205487037Y-21792027D01*
X205469641Y-21615400D01*
X205487037Y-21438773D01*
X205538557Y-21268934D01*
X205538557Y-21268933D01*
X205622221Y-21112411D01*
X205622222Y-21112409D01*
X205651552Y-21076671D01*
X205734814Y-20975214D01*
X205836271Y-20891952D01*
X205872009Y-20862622D01*
X205889913Y-20853052D01*
X206028533Y-20778957D01*
X206085147Y-20761784D01*
X206198373Y-20727437D01*
X206264558Y-20720918D01*
X206330740Y-20714400D01*
X206419260Y-20714400D01*
X206485442Y-20720918D01*
X206485442Y-20720918D01*
G37*
G36*
X203945442Y-20720918D02*
X204011627Y-20727437D01*
X204124853Y-20761784D01*
X204181467Y-20778957D01*
X204320087Y-20853052D01*
X204337991Y-20862622D01*
X204373729Y-20891952D01*
X204475186Y-20975214D01*
X204558448Y-21076671D01*
X204587778Y-21112409D01*
X204587779Y-21112411D01*
X204671443Y-21268933D01*
X204671443Y-21268934D01*
X204722963Y-21438773D01*
X204740359Y-21615400D01*
X204722963Y-21792027D01*
X204688616Y-21905253D01*
X204671443Y-21961867D01*
X204597348Y-22100487D01*
X204587778Y-22118391D01*
X204558448Y-22154129D01*
X204475186Y-22255586D01*
X204373729Y-22338848D01*
X204337991Y-22368178D01*
X204337989Y-22368179D01*
X204181467Y-22451843D01*
X204124853Y-22469016D01*
X204011627Y-22503363D01*
X203945443Y-22509881D01*
X203879260Y-22516400D01*
X203790740Y-22516400D01*
X203724557Y-22509881D01*
X203658373Y-22503363D01*
X203545147Y-22469016D01*
X203488533Y-22451843D01*
X203332011Y-22368179D01*
X203332009Y-22368178D01*
X203296271Y-22338848D01*
X203194814Y-22255586D01*
X203111552Y-22154129D01*
X203082222Y-22118391D01*
X203072652Y-22100487D01*
X202998557Y-21961867D01*
X202981384Y-21905253D01*
X202947037Y-21792027D01*
X202929641Y-21615400D01*
X202947037Y-21438773D01*
X202998557Y-21268934D01*
X202998557Y-21268933D01*
X203082221Y-21112411D01*
X203082222Y-21112409D01*
X203111552Y-21076671D01*
X203194814Y-20975214D01*
X203296271Y-20891952D01*
X203332009Y-20862622D01*
X203349913Y-20853052D01*
X203488533Y-20778957D01*
X203545147Y-20761784D01*
X203658373Y-20727437D01*
X203724558Y-20720918D01*
X203790740Y-20714400D01*
X203879260Y-20714400D01*
X203945442Y-20720918D01*
X203945442Y-20720918D01*
G37*
G36*
X201405442Y-20720918D02*
X201471627Y-20727437D01*
X201584853Y-20761784D01*
X201641467Y-20778957D01*
X201780087Y-20853052D01*
X201797991Y-20862622D01*
X201833729Y-20891952D01*
X201935186Y-20975214D01*
X202018448Y-21076671D01*
X202047778Y-21112409D01*
X202047779Y-21112411D01*
X202131443Y-21268933D01*
X202131443Y-21268934D01*
X202182963Y-21438773D01*
X202200359Y-21615400D01*
X202182963Y-21792027D01*
X202148616Y-21905253D01*
X202131443Y-21961867D01*
X202057348Y-22100487D01*
X202047778Y-22118391D01*
X202018448Y-22154129D01*
X201935186Y-22255586D01*
X201833729Y-22338848D01*
X201797991Y-22368178D01*
X201797989Y-22368179D01*
X201641467Y-22451843D01*
X201584853Y-22469016D01*
X201471627Y-22503363D01*
X201405443Y-22509881D01*
X201339260Y-22516400D01*
X201250740Y-22516400D01*
X201184557Y-22509881D01*
X201118373Y-22503363D01*
X201005147Y-22469016D01*
X200948533Y-22451843D01*
X200792011Y-22368179D01*
X200792009Y-22368178D01*
X200756271Y-22338848D01*
X200654814Y-22255586D01*
X200571552Y-22154129D01*
X200542222Y-22118391D01*
X200532652Y-22100487D01*
X200458557Y-21961867D01*
X200441384Y-21905253D01*
X200407037Y-21792027D01*
X200389641Y-21615400D01*
X200407037Y-21438773D01*
X200458557Y-21268934D01*
X200458557Y-21268933D01*
X200542221Y-21112411D01*
X200542222Y-21112409D01*
X200571552Y-21076671D01*
X200654814Y-20975214D01*
X200756271Y-20891952D01*
X200792009Y-20862622D01*
X200809913Y-20853052D01*
X200948533Y-20778957D01*
X201005147Y-20761784D01*
X201118373Y-20727437D01*
X201184558Y-20720918D01*
X201250740Y-20714400D01*
X201339260Y-20714400D01*
X201405442Y-20720918D01*
X201405442Y-20720918D01*
G37*
G36*
X198865442Y-20720918D02*
X198931627Y-20727437D01*
X199044853Y-20761784D01*
X199101467Y-20778957D01*
X199240087Y-20853052D01*
X199257991Y-20862622D01*
X199293729Y-20891952D01*
X199395186Y-20975214D01*
X199478448Y-21076671D01*
X199507778Y-21112409D01*
X199507779Y-21112411D01*
X199591443Y-21268933D01*
X199591443Y-21268934D01*
X199642963Y-21438773D01*
X199660359Y-21615400D01*
X199642963Y-21792027D01*
X199608616Y-21905253D01*
X199591443Y-21961867D01*
X199517348Y-22100487D01*
X199507778Y-22118391D01*
X199478448Y-22154129D01*
X199395186Y-22255586D01*
X199293729Y-22338848D01*
X199257991Y-22368178D01*
X199257989Y-22368179D01*
X199101467Y-22451843D01*
X199044853Y-22469016D01*
X198931627Y-22503363D01*
X198865443Y-22509881D01*
X198799260Y-22516400D01*
X198710740Y-22516400D01*
X198644557Y-22509881D01*
X198578373Y-22503363D01*
X198465147Y-22469016D01*
X198408533Y-22451843D01*
X198252011Y-22368179D01*
X198252009Y-22368178D01*
X198216271Y-22338848D01*
X198114814Y-22255586D01*
X198031552Y-22154129D01*
X198002222Y-22118391D01*
X197992652Y-22100487D01*
X197918557Y-21961867D01*
X197901384Y-21905253D01*
X197867037Y-21792027D01*
X197849641Y-21615400D01*
X197867037Y-21438773D01*
X197918557Y-21268934D01*
X197918557Y-21268933D01*
X198002221Y-21112411D01*
X198002222Y-21112409D01*
X198031552Y-21076671D01*
X198114814Y-20975214D01*
X198216271Y-20891952D01*
X198252009Y-20862622D01*
X198269913Y-20853052D01*
X198408533Y-20778957D01*
X198465147Y-20761784D01*
X198578373Y-20727437D01*
X198644558Y-20720918D01*
X198710740Y-20714400D01*
X198799260Y-20714400D01*
X198865442Y-20720918D01*
X198865442Y-20720918D01*
G37*
G36*
X196325442Y-20720918D02*
X196391627Y-20727437D01*
X196504853Y-20761784D01*
X196561467Y-20778957D01*
X196700087Y-20853052D01*
X196717991Y-20862622D01*
X196753729Y-20891952D01*
X196855186Y-20975214D01*
X196938448Y-21076671D01*
X196967778Y-21112409D01*
X196967779Y-21112411D01*
X197051443Y-21268933D01*
X197051443Y-21268934D01*
X197102963Y-21438773D01*
X197120359Y-21615400D01*
X197102963Y-21792027D01*
X197068616Y-21905253D01*
X197051443Y-21961867D01*
X196977348Y-22100487D01*
X196967778Y-22118391D01*
X196938448Y-22154129D01*
X196855186Y-22255586D01*
X196753729Y-22338848D01*
X196717991Y-22368178D01*
X196717989Y-22368179D01*
X196561467Y-22451843D01*
X196504853Y-22469016D01*
X196391627Y-22503363D01*
X196325443Y-22509881D01*
X196259260Y-22516400D01*
X196170740Y-22516400D01*
X196104557Y-22509881D01*
X196038373Y-22503363D01*
X195925147Y-22469016D01*
X195868533Y-22451843D01*
X195712011Y-22368179D01*
X195712009Y-22368178D01*
X195676271Y-22338848D01*
X195574814Y-22255586D01*
X195491552Y-22154129D01*
X195462222Y-22118391D01*
X195452652Y-22100487D01*
X195378557Y-21961867D01*
X195361384Y-21905253D01*
X195327037Y-21792027D01*
X195309641Y-21615400D01*
X195327037Y-21438773D01*
X195378557Y-21268934D01*
X195378557Y-21268933D01*
X195462221Y-21112411D01*
X195462222Y-21112409D01*
X195491552Y-21076671D01*
X195574814Y-20975214D01*
X195676271Y-20891952D01*
X195712009Y-20862622D01*
X195729913Y-20853052D01*
X195868533Y-20778957D01*
X195925147Y-20761784D01*
X196038373Y-20727437D01*
X196104558Y-20720918D01*
X196170740Y-20714400D01*
X196259260Y-20714400D01*
X196325442Y-20720918D01*
X196325442Y-20720918D01*
G37*
G36*
X193785442Y-20720918D02*
X193851627Y-20727437D01*
X193964853Y-20761784D01*
X194021467Y-20778957D01*
X194160087Y-20853052D01*
X194177991Y-20862622D01*
X194213729Y-20891952D01*
X194315186Y-20975214D01*
X194398448Y-21076671D01*
X194427778Y-21112409D01*
X194427779Y-21112411D01*
X194511443Y-21268933D01*
X194511443Y-21268934D01*
X194562963Y-21438773D01*
X194580359Y-21615400D01*
X194562963Y-21792027D01*
X194528616Y-21905253D01*
X194511443Y-21961867D01*
X194437348Y-22100487D01*
X194427778Y-22118391D01*
X194398448Y-22154129D01*
X194315186Y-22255586D01*
X194213729Y-22338848D01*
X194177991Y-22368178D01*
X194177989Y-22368179D01*
X194021467Y-22451843D01*
X193964853Y-22469016D01*
X193851627Y-22503363D01*
X193785443Y-22509881D01*
X193719260Y-22516400D01*
X193630740Y-22516400D01*
X193564557Y-22509881D01*
X193498373Y-22503363D01*
X193385147Y-22469016D01*
X193328533Y-22451843D01*
X193172011Y-22368179D01*
X193172009Y-22368178D01*
X193136271Y-22338848D01*
X193034814Y-22255586D01*
X192951552Y-22154129D01*
X192922222Y-22118391D01*
X192912652Y-22100487D01*
X192838557Y-21961867D01*
X192821384Y-21905253D01*
X192787037Y-21792027D01*
X192769641Y-21615400D01*
X192787037Y-21438773D01*
X192838557Y-21268934D01*
X192838557Y-21268933D01*
X192922221Y-21112411D01*
X192922222Y-21112409D01*
X192951552Y-21076671D01*
X193034814Y-20975214D01*
X193136271Y-20891952D01*
X193172009Y-20862622D01*
X193189913Y-20853052D01*
X193328533Y-20778957D01*
X193385147Y-20761784D01*
X193498373Y-20727437D01*
X193564558Y-20720918D01*
X193630740Y-20714400D01*
X193719260Y-20714400D01*
X193785442Y-20720918D01*
X193785442Y-20720918D01*
G37*
G36*
X191245442Y-20720918D02*
X191311627Y-20727437D01*
X191424853Y-20761784D01*
X191481467Y-20778957D01*
X191620087Y-20853052D01*
X191637991Y-20862622D01*
X191673729Y-20891952D01*
X191775186Y-20975214D01*
X191858448Y-21076671D01*
X191887778Y-21112409D01*
X191887779Y-21112411D01*
X191971443Y-21268933D01*
X191971443Y-21268934D01*
X192022963Y-21438773D01*
X192040359Y-21615400D01*
X192022963Y-21792027D01*
X191988616Y-21905253D01*
X191971443Y-21961867D01*
X191897348Y-22100487D01*
X191887778Y-22118391D01*
X191858448Y-22154129D01*
X191775186Y-22255586D01*
X191673729Y-22338848D01*
X191637991Y-22368178D01*
X191637989Y-22368179D01*
X191481467Y-22451843D01*
X191424853Y-22469016D01*
X191311627Y-22503363D01*
X191245443Y-22509881D01*
X191179260Y-22516400D01*
X191090740Y-22516400D01*
X191024557Y-22509881D01*
X190958373Y-22503363D01*
X190845147Y-22469016D01*
X190788533Y-22451843D01*
X190632011Y-22368179D01*
X190632009Y-22368178D01*
X190596271Y-22338848D01*
X190494814Y-22255586D01*
X190411552Y-22154129D01*
X190382222Y-22118391D01*
X190372652Y-22100487D01*
X190298557Y-21961867D01*
X190281384Y-21905253D01*
X190247037Y-21792027D01*
X190229641Y-21615400D01*
X190247037Y-21438773D01*
X190298557Y-21268934D01*
X190298557Y-21268933D01*
X190382221Y-21112411D01*
X190382222Y-21112409D01*
X190411552Y-21076671D01*
X190494814Y-20975214D01*
X190596271Y-20891952D01*
X190632009Y-20862622D01*
X190649913Y-20853052D01*
X190788533Y-20778957D01*
X190845147Y-20761784D01*
X190958373Y-20727437D01*
X191024558Y-20720918D01*
X191090740Y-20714400D01*
X191179260Y-20714400D01*
X191245442Y-20720918D01*
X191245442Y-20720918D01*
G37*
G36*
X183625442Y-20720918D02*
X183691627Y-20727437D01*
X183804853Y-20761784D01*
X183861467Y-20778957D01*
X184000087Y-20853052D01*
X184017991Y-20862622D01*
X184053729Y-20891952D01*
X184155186Y-20975214D01*
X184238448Y-21076671D01*
X184267778Y-21112409D01*
X184267779Y-21112411D01*
X184351443Y-21268933D01*
X184351443Y-21268934D01*
X184402963Y-21438773D01*
X184420359Y-21615400D01*
X184402963Y-21792027D01*
X184368616Y-21905253D01*
X184351443Y-21961867D01*
X184277348Y-22100487D01*
X184267778Y-22118391D01*
X184238448Y-22154129D01*
X184155186Y-22255586D01*
X184053729Y-22338848D01*
X184017991Y-22368178D01*
X184017989Y-22368179D01*
X183861467Y-22451843D01*
X183804853Y-22469016D01*
X183691627Y-22503363D01*
X183625443Y-22509881D01*
X183559260Y-22516400D01*
X183470740Y-22516400D01*
X183404557Y-22509881D01*
X183338373Y-22503363D01*
X183225147Y-22469016D01*
X183168533Y-22451843D01*
X183012011Y-22368179D01*
X183012009Y-22368178D01*
X182976271Y-22338848D01*
X182874814Y-22255586D01*
X182791552Y-22154129D01*
X182762222Y-22118391D01*
X182752652Y-22100487D01*
X182678557Y-21961867D01*
X182661384Y-21905253D01*
X182627037Y-21792027D01*
X182609641Y-21615400D01*
X182627037Y-21438773D01*
X182678557Y-21268934D01*
X182678557Y-21268933D01*
X182762221Y-21112411D01*
X182762222Y-21112409D01*
X182791552Y-21076671D01*
X182874814Y-20975214D01*
X182976271Y-20891952D01*
X183012009Y-20862622D01*
X183029913Y-20853052D01*
X183168533Y-20778957D01*
X183225147Y-20761784D01*
X183338373Y-20727437D01*
X183404558Y-20720918D01*
X183470740Y-20714400D01*
X183559260Y-20714400D01*
X183625442Y-20720918D01*
X183625442Y-20720918D01*
G37*
G36*
X188705442Y-20720918D02*
X188771627Y-20727437D01*
X188884853Y-20761784D01*
X188941467Y-20778957D01*
X189080087Y-20853052D01*
X189097991Y-20862622D01*
X189133729Y-20891952D01*
X189235186Y-20975214D01*
X189318448Y-21076671D01*
X189347778Y-21112409D01*
X189347779Y-21112411D01*
X189431443Y-21268933D01*
X189431443Y-21268934D01*
X189482963Y-21438773D01*
X189500359Y-21615400D01*
X189482963Y-21792027D01*
X189448616Y-21905253D01*
X189431443Y-21961867D01*
X189357348Y-22100487D01*
X189347778Y-22118391D01*
X189318448Y-22154129D01*
X189235186Y-22255586D01*
X189133729Y-22338848D01*
X189097991Y-22368178D01*
X189097989Y-22368179D01*
X188941467Y-22451843D01*
X188884853Y-22469016D01*
X188771627Y-22503363D01*
X188705443Y-22509881D01*
X188639260Y-22516400D01*
X188550740Y-22516400D01*
X188484557Y-22509881D01*
X188418373Y-22503363D01*
X188305147Y-22469016D01*
X188248533Y-22451843D01*
X188092011Y-22368179D01*
X188092009Y-22368178D01*
X188056271Y-22338848D01*
X187954814Y-22255586D01*
X187871552Y-22154129D01*
X187842222Y-22118391D01*
X187832652Y-22100487D01*
X187758557Y-21961867D01*
X187741384Y-21905253D01*
X187707037Y-21792027D01*
X187689641Y-21615400D01*
X187707037Y-21438773D01*
X187758557Y-21268934D01*
X187758557Y-21268933D01*
X187842221Y-21112411D01*
X187842222Y-21112409D01*
X187871552Y-21076671D01*
X187954814Y-20975214D01*
X188056271Y-20891952D01*
X188092009Y-20862622D01*
X188109913Y-20853052D01*
X188248533Y-20778957D01*
X188305147Y-20761784D01*
X188418373Y-20727437D01*
X188484558Y-20720918D01*
X188550740Y-20714400D01*
X188639260Y-20714400D01*
X188705442Y-20720918D01*
X188705442Y-20720918D01*
G37*
M02*
