G04 #@! TF.GenerationSoftware,KiCad,Pcbnew,(5.0.2)-1*
G04 #@! TF.CreationDate,2019-06-11T21:21:37-03:00*
G04 #@! TF.ProjectId,projeto(2),70726f6a-6574-46f2-9832-292e6b696361,rev?*
G04 #@! TF.SameCoordinates,Original*
G04 #@! TF.FileFunction,Legend,Top*
G04 #@! TF.FilePolarity,Positive*
%FSLAX46Y46*%
G04 Gerber Fmt 4.6, Leading zero omitted, Abs format (unit mm)*
G04 Created by KiCad (PCBNEW (5.0.2)-1) date 11/06/2019 21:21:37*
%MOMM*%
%LPD*%
G01*
G04 APERTURE LIST*
%ADD10C,0.200000*%
%ADD11C,0.120000*%
%ADD12C,0.254000*%
%ADD13C,0.150000*%
%ADD14C,0.100000*%
%ADD15C,0.190500*%
G04 APERTURE END LIST*
D10*
G04 #@! TO.C,C14*
X190170000Y-77000000D02*
X193370000Y-77000000D01*
X193370000Y-75400000D02*
X189570000Y-75400000D01*
D11*
G04 #@! TO.C,J1*
X211500000Y-118735000D02*
X220300000Y-118735000D01*
X220300000Y-114935000D02*
X220300000Y-122635000D01*
X220300000Y-122635000D02*
X211500000Y-122635000D01*
X211500000Y-122635000D02*
X211500000Y-122435000D01*
X218450000Y-109035000D02*
X220300000Y-109035000D01*
X220300000Y-109035000D02*
X220300000Y-109885000D01*
X211500000Y-122535000D02*
X211500000Y-109035000D01*
X211500000Y-109035000D02*
X213350000Y-109035000D01*
G04 #@! TO.C,C1*
X221241252Y-90730000D02*
X220718748Y-90730000D01*
X221241252Y-92150000D02*
X220718748Y-92150000D01*
D10*
G04 #@! TO.C,C2*
X217335000Y-104470000D02*
X217335000Y-101270000D01*
X215735000Y-101270000D02*
X215735000Y-105070000D01*
D11*
G04 #@! TO.C,C3*
X206748748Y-98500000D02*
X207271252Y-98500000D01*
X206748748Y-97080000D02*
X207271252Y-97080000D01*
D10*
G04 #@! TO.C,C4*
X211925000Y-101270000D02*
X211925000Y-104470000D01*
X213525000Y-104470000D02*
X213525000Y-100670000D01*
D11*
G04 #@! TO.C,C5*
X190575000Y-40901252D02*
X190575000Y-40378748D01*
X189155000Y-40901252D02*
X189155000Y-40378748D01*
G04 #@! TO.C,C6*
X195020000Y-40901252D02*
X195020000Y-40378748D01*
X193600000Y-40901252D02*
X193600000Y-40378748D01*
G04 #@! TO.C,C7*
X201855000Y-40378748D02*
X201855000Y-40901252D01*
X203275000Y-40378748D02*
X203275000Y-40901252D01*
G04 #@! TO.C,C8*
X215526252Y-36755000D02*
X215003748Y-36755000D01*
X215526252Y-38175000D02*
X215003748Y-38175000D01*
G04 #@! TO.C,C9*
X185793748Y-50875000D02*
X186316252Y-50875000D01*
X185793748Y-49455000D02*
X186316252Y-49455000D01*
G04 #@! TO.C,C10*
X186316252Y-45010000D02*
X185793748Y-45010000D01*
X186316252Y-46430000D02*
X185793748Y-46430000D01*
G04 #@! TO.C,C11*
X198045000Y-40378748D02*
X198045000Y-40901252D01*
X199465000Y-40378748D02*
X199465000Y-40901252D01*
G04 #@! TO.C,C12*
X199128748Y-85800000D02*
X199651252Y-85800000D01*
X199128748Y-84380000D02*
X199651252Y-84380000D01*
G04 #@! TO.C,C13*
X192143748Y-72465000D02*
X192666252Y-72465000D01*
X192143748Y-71045000D02*
X192666252Y-71045000D01*
G04 #@! TO.C,C15*
X197111252Y-69775000D02*
X196588748Y-69775000D01*
X197111252Y-71195000D02*
X196588748Y-71195000D01*
G04 #@! TO.C,C16*
X201556252Y-69775000D02*
X201033748Y-69775000D01*
X201556252Y-71195000D02*
X201033748Y-71195000D01*
G04 #@! TO.C,C17*
X207570000Y-79748748D02*
X207570000Y-80271252D01*
X208990000Y-79748748D02*
X208990000Y-80271252D01*
G04 #@! TO.C,C18*
X196588748Y-55320000D02*
X197111252Y-55320000D01*
X196588748Y-53900000D02*
X197111252Y-53900000D01*
G04 #@! TO.C,C19*
X206748748Y-60400000D02*
X207271252Y-60400000D01*
X206748748Y-58980000D02*
X207271252Y-58980000D01*
G04 #@! TO.C,C20*
X213733748Y-60400000D02*
X214256252Y-60400000D01*
X213733748Y-58980000D02*
X214256252Y-58980000D01*
G04 #@! TO.C,C21*
X193413748Y-59130000D02*
X193936252Y-59130000D01*
X193413748Y-57710000D02*
X193936252Y-57710000D01*
D10*
G04 #@! TO.C,D1*
X215125000Y-94535000D02*
X215125000Y-97235000D01*
X216675000Y-93585000D02*
X216675000Y-97235000D01*
D11*
G04 #@! TO.C,POT2*
X221625000Y-28135000D02*
X226695000Y-28135000D01*
X221625000Y-37905000D02*
X226695000Y-37905000D01*
X226695000Y-37905000D02*
X226695000Y-28135000D01*
X221625000Y-37905000D02*
X221625000Y-28135000D01*
G04 #@! TO.C,R1*
X207271252Y-93270000D02*
X206748748Y-93270000D01*
X207271252Y-94690000D02*
X206748748Y-94690000D01*
G04 #@! TO.C,R2*
X185793748Y-55320000D02*
X186316252Y-55320000D01*
X185793748Y-53900000D02*
X186316252Y-53900000D01*
G04 #@! TO.C,R3*
X209288748Y-38175000D02*
X209811252Y-38175000D01*
X209288748Y-36755000D02*
X209811252Y-36755000D01*
G04 #@! TO.C,R4*
X213851748Y-80720000D02*
X214374252Y-80720000D01*
X213851748Y-79300000D02*
X214374252Y-79300000D01*
G04 #@! TO.C,R5*
X213851748Y-77164000D02*
X214374252Y-77164000D01*
X213851748Y-75744000D02*
X214374252Y-75744000D01*
G04 #@! TO.C,R6*
X214374252Y-68378000D02*
X213851748Y-68378000D01*
X214374252Y-69798000D02*
X213851748Y-69798000D01*
G04 #@! TO.C,R7*
X214374252Y-72188000D02*
X213851748Y-72188000D01*
X214374252Y-73608000D02*
X213851748Y-73608000D01*
G04 #@! TO.C,R8*
X207271252Y-84380000D02*
X206748748Y-84380000D01*
X207271252Y-85800000D02*
X206748748Y-85800000D01*
G04 #@! TO.C,R9*
X191845000Y-92336252D02*
X191845000Y-91813748D01*
X190425000Y-92336252D02*
X190425000Y-91813748D01*
G04 #@! TO.C,R10*
X190873748Y-55320000D02*
X191396252Y-55320000D01*
X190873748Y-53900000D02*
X191396252Y-53900000D01*
G04 #@! TO.C,R11*
X193936252Y-62155000D02*
X193413748Y-62155000D01*
X193936252Y-63575000D02*
X193413748Y-63575000D01*
G04 #@! TO.C,R12*
X186316252Y-62155000D02*
X185793748Y-62155000D01*
X186316252Y-63575000D02*
X185793748Y-63575000D01*
G04 #@! TO.C,R13*
X220606252Y-83110000D02*
X220083748Y-83110000D01*
X220606252Y-84530000D02*
X220083748Y-84530000D01*
G04 #@! TO.C,R14*
X211716252Y-97080000D02*
X211193748Y-97080000D01*
X211716252Y-98500000D02*
X211193748Y-98500000D01*
G04 #@! TO.C,R15*
X180415000Y-99956252D02*
X180415000Y-99433748D01*
X178995000Y-99956252D02*
X178995000Y-99433748D01*
G04 #@! TO.C,R16*
X180415000Y-107576252D02*
X180415000Y-107053748D01*
X178995000Y-107576252D02*
X178995000Y-107053748D01*
G04 #@! TO.C,R17*
X178995000Y-91813748D02*
X178995000Y-92336252D01*
X180415000Y-91813748D02*
X180415000Y-92336252D01*
G04 #@! TO.C,R18*
X191845000Y-99956252D02*
X191845000Y-99433748D01*
X190425000Y-99956252D02*
X190425000Y-99433748D01*
G04 #@! TO.C,R19*
X191845000Y-107576252D02*
X191845000Y-107053748D01*
X190425000Y-107576252D02*
X190425000Y-107053748D01*
G04 #@! TO.C,R20*
X192143748Y-84530000D02*
X192666252Y-84530000D01*
X192143748Y-83110000D02*
X192666252Y-83110000D01*
D12*
G04 #@! TO.C,SW1*
X189842510Y-96719000D02*
G75*
G03X189842510Y-96719000I-63510J0D01*
G01*
D10*
X188420000Y-98395000D02*
X188420000Y-100995000D01*
X182420000Y-98395000D02*
X182420000Y-100995000D01*
X182820000Y-102695000D02*
X188020000Y-102695000D01*
X182820000Y-96695000D02*
X188020000Y-96695000D01*
D12*
G04 #@! TO.C,SW2*
X189842510Y-104339000D02*
G75*
G03X189842510Y-104339000I-63510J0D01*
G01*
D10*
X188420000Y-106015000D02*
X188420000Y-108615000D01*
X182420000Y-106015000D02*
X182420000Y-108615000D01*
X182820000Y-110315000D02*
X188020000Y-110315000D01*
X182820000Y-104315000D02*
X188020000Y-104315000D01*
D12*
G04 #@! TO.C,SW3*
X189842510Y-89099000D02*
G75*
G03X189842510Y-89099000I-63510J0D01*
G01*
D10*
X188420000Y-90775000D02*
X188420000Y-93375000D01*
X182420000Y-90775000D02*
X182420000Y-93375000D01*
X182820000Y-95075000D02*
X188020000Y-95075000D01*
X182820000Y-89075000D02*
X188020000Y-89075000D01*
D12*
G04 #@! TO.C,SW4*
X201272510Y-96719000D02*
G75*
G03X201272510Y-96719000I-63510J0D01*
G01*
D10*
X199850000Y-98395000D02*
X199850000Y-100995000D01*
X193850000Y-98395000D02*
X193850000Y-100995000D01*
X194250000Y-102695000D02*
X199450000Y-102695000D01*
X194250000Y-96695000D02*
X199450000Y-96695000D01*
D12*
G04 #@! TO.C,SW5*
X201272510Y-104339000D02*
G75*
G03X201272510Y-104339000I-63510J0D01*
G01*
D10*
X199850000Y-106015000D02*
X199850000Y-108615000D01*
X193850000Y-106015000D02*
X193850000Y-108615000D01*
X194250000Y-110315000D02*
X199450000Y-110315000D01*
X194250000Y-104315000D02*
X199450000Y-104315000D01*
D12*
G04 #@! TO.C,RESET*
X201272510Y-89099000D02*
G75*
G03X201272510Y-89099000I-63510J0D01*
G01*
D10*
X199850000Y-90775000D02*
X199850000Y-93375000D01*
X193850000Y-90775000D02*
X193850000Y-93375000D01*
X194250000Y-95075000D02*
X199450000Y-95075000D01*
X194250000Y-89075000D02*
X199450000Y-89075000D01*
D13*
G04 #@! TO.C,U4*
X189001000Y-35243000D02*
X189001000Y-37043000D01*
X201901000Y-35243000D02*
X201901000Y-27493000D01*
X188751000Y-35243000D02*
X188751000Y-27493000D01*
X201901000Y-35243000D02*
X201566000Y-35243000D01*
X201901000Y-27493000D02*
X201566000Y-27493000D01*
X188751000Y-27493000D02*
X189086000Y-27493000D01*
X188751000Y-35243000D02*
X189001000Y-35243000D01*
G04 #@! TO.C,U5*
X197035000Y-74905000D02*
X195660000Y-74905000D01*
X204285000Y-74480000D02*
X203760000Y-74480000D01*
X204285000Y-81730000D02*
X203760000Y-81730000D01*
X197035000Y-81730000D02*
X197560000Y-81730000D01*
X197035000Y-74480000D02*
X197560000Y-74480000D01*
X197035000Y-81730000D02*
X197035000Y-81205000D01*
X204285000Y-81730000D02*
X204285000Y-81205000D01*
X204285000Y-74480000D02*
X204285000Y-75005000D01*
X197035000Y-74480000D02*
X197035000Y-74905000D01*
D11*
G04 #@! TO.C,Y1*
X193115000Y-44719000D02*
G75*
G03X193115000Y-49769000I0J-2525000D01*
G01*
X199515000Y-44719000D02*
G75*
G02X199515000Y-49769000I0J-2525000D01*
G01*
X199515000Y-44719000D02*
X193115000Y-44719000D01*
X199515000Y-49769000D02*
X193115000Y-49769000D01*
G04 #@! TO.C,U2*
X203346000Y-107726000D02*
X204606000Y-107726000D01*
X210166000Y-107726000D02*
X208906000Y-107726000D01*
X203346000Y-103966000D02*
X203346000Y-107726000D01*
X210166000Y-101716000D02*
X210166000Y-107726000D01*
G04 #@! TO.C,C22*
X219448748Y-25325000D02*
X219971252Y-25325000D01*
X219448748Y-26745000D02*
X219971252Y-26745000D01*
G04 #@! TO.C,C23*
X220718748Y-88975000D02*
X221241252Y-88975000D01*
X220718748Y-87555000D02*
X221241252Y-87555000D01*
G04 #@! TO.C,C24*
X186316252Y-69290000D02*
X185793748Y-69290000D01*
X186316252Y-67870000D02*
X185793748Y-67870000D01*
D10*
G04 #@! TO.C,D2*
X209360000Y-88310000D02*
X205510000Y-88310000D01*
X209360000Y-90760000D02*
X209360000Y-88310000D01*
X205510000Y-90760000D02*
X209360000Y-90760000D01*
G04 #@! TO.C,D3*
X215138000Y-82595000D02*
X211288000Y-82595000D01*
X211288000Y-82595000D02*
X211288000Y-85045000D01*
X211288000Y-85045000D02*
X215138000Y-85045000D01*
G04 #@! TO.C,D4*
X206970000Y-75901000D02*
X210820000Y-75901000D01*
X206970000Y-73451000D02*
X206970000Y-75901000D01*
X210820000Y-73451000D02*
X206970000Y-73451000D01*
G04 #@! TO.C,D5*
X210820000Y-69133000D02*
X206970000Y-69133000D01*
X206970000Y-69133000D02*
X206970000Y-71583000D01*
X206970000Y-71583000D02*
X210820000Y-71583000D01*
G04 #@! TO.C,D6*
X210820000Y-64815000D02*
X206970000Y-64815000D01*
X206970000Y-64815000D02*
X206970000Y-67265000D01*
X206970000Y-67265000D02*
X210820000Y-67265000D01*
D14*
G04 #@! TO.C,POT1*
X217439000Y-78430000D02*
X217439000Y-61430000D01*
X217439000Y-61430000D02*
X226939000Y-61430000D01*
X226939000Y-61430000D02*
X226939000Y-78430000D01*
X226939000Y-78430000D02*
X217439000Y-78430000D01*
D10*
X223039000Y-79030000D02*
X223039000Y-79030000D01*
X223239000Y-79030000D02*
X223239000Y-79030000D01*
X223239000Y-79030000D02*
G75*
G02X223039000Y-79030000I-100000J0D01*
G01*
X223039000Y-79030000D02*
G75*
G02X223239000Y-79030000I100000J0D01*
G01*
D11*
G04 #@! TO.C,R21*
X215526252Y-45795000D02*
X215003748Y-45795000D01*
X215526252Y-44375000D02*
X215003748Y-44375000D01*
G04 #@! TO.C,R22*
X207271252Y-50725000D02*
X206748748Y-50725000D01*
X207271252Y-52145000D02*
X206748748Y-52145000D01*
G04 #@! TO.C,R23*
X214374252Y-66242000D02*
X213851748Y-66242000D01*
X214374252Y-64822000D02*
X213851748Y-64822000D01*
G04 #@! TO.C,R24*
X215526252Y-40565000D02*
X215003748Y-40565000D01*
X215526252Y-41985000D02*
X215003748Y-41985000D01*
G04 #@! TO.C,R25*
X201033748Y-53900000D02*
X201556252Y-53900000D01*
X201033748Y-55320000D02*
X201556252Y-55320000D01*
G04 #@! TO.C,R26*
X207271252Y-53900000D02*
X206748748Y-53900000D01*
X207271252Y-55320000D02*
X206748748Y-55320000D01*
D13*
G04 #@! TO.C,U7*
X216705000Y-91475000D02*
X216705000Y-91425000D01*
X212555000Y-91475000D02*
X212555000Y-91330000D01*
X212555000Y-86325000D02*
X212555000Y-86470000D01*
X216705000Y-86325000D02*
X216705000Y-86470000D01*
X216705000Y-91475000D02*
X212555000Y-91475000D01*
X216705000Y-86325000D02*
X212555000Y-86325000D01*
X216705000Y-91425000D02*
X218105000Y-91425000D01*
D11*
G04 #@! TO.C,C25*
X192666252Y-80720000D02*
X192143748Y-80720000D01*
X192666252Y-79300000D02*
X192143748Y-79300000D01*
G04 #@! TO.C,DS1*
X220345000Y-20285400D02*
X182185000Y-20285400D01*
X182185000Y-20285400D02*
X182185000Y-22945400D01*
X182185000Y-22945400D02*
X220345000Y-22945400D01*
X220345000Y-22945400D02*
X220345000Y-20285400D01*
X221615000Y-20285400D02*
X222945000Y-20285400D01*
X222945000Y-20285400D02*
X222945000Y-21615400D01*
G04 #@! TO.C,J2*
X178435000Y-27555000D02*
X169795000Y-27555000D01*
X186815000Y-27555000D02*
X181735000Y-27555000D01*
X178435000Y-39755000D02*
X169795000Y-39755000D01*
X186815000Y-39755000D02*
X181735000Y-39755000D01*
X169795000Y-39755000D02*
X169795000Y-27555000D01*
X186815000Y-27555000D02*
X186815000Y-39755000D01*
G04 #@! TO.C,J3*
X186815000Y-72640000D02*
X186815000Y-84840000D01*
X169795000Y-84840000D02*
X169795000Y-72640000D01*
X186815000Y-84840000D02*
X181735000Y-84840000D01*
X178435000Y-84840000D02*
X169795000Y-84840000D01*
X186815000Y-72640000D02*
X181735000Y-72640000D01*
X178435000Y-72640000D02*
X169795000Y-72640000D01*
D13*
G04 #@! TO.C,U3*
X204225000Y-32339000D02*
X204800000Y-32339000D01*
X204225000Y-26589000D02*
X204875000Y-26589000D01*
X214875000Y-26589000D02*
X214225000Y-26589000D01*
X214875000Y-32339000D02*
X214225000Y-32339000D01*
X204225000Y-32339000D02*
X204225000Y-26589000D01*
X214875000Y-32339000D02*
X214875000Y-26589000D01*
X204800000Y-32339000D02*
X204800000Y-33939000D01*
D10*
G04 #@! TO.C,U6*
X202602000Y-59360000D02*
X202602000Y-62560000D01*
X202602000Y-62560000D02*
X197702000Y-62560000D01*
X197702000Y-62560000D02*
X197702000Y-59360000D01*
X197702000Y-59360000D02*
X202602000Y-59360000D01*
X202757000Y-57485000D02*
X202757000Y-59010000D01*
G04 #@! TO.C,IC1*
X217715000Y-51740000D02*
X217715000Y-54940000D01*
X217715000Y-54940000D02*
X212815000Y-54940000D01*
X212815000Y-54940000D02*
X212815000Y-51740000D01*
X212815000Y-51740000D02*
X217715000Y-51740000D01*
X217870000Y-49865000D02*
X217870000Y-51390000D01*
D11*
G04 #@! TO.C,DIG*
X179010000Y-53915000D02*
X180340000Y-53915000D01*
X179010000Y-55245000D02*
X179010000Y-53915000D01*
X179010000Y-56515000D02*
X181670000Y-56515000D01*
X181670000Y-56515000D02*
X181670000Y-64195000D01*
X179010000Y-56515000D02*
X179010000Y-64195000D01*
X179010000Y-64195000D02*
X181670000Y-64195000D01*
G04 #@! TO.C,GRAVA\00C7\00C3O ICSP*
X210245000Y-117010000D02*
X194885000Y-117010000D01*
X194885000Y-117010000D02*
X194885000Y-119670000D01*
X194885000Y-119670000D02*
X210245000Y-119670000D01*
X210245000Y-119670000D02*
X210245000Y-117010000D01*
X209295000Y-119670000D02*
X209295000Y-125670000D01*
X209295000Y-125670000D02*
X208535000Y-125670000D01*
X208535000Y-125670000D02*
X208535000Y-119670000D01*
X209235000Y-119670000D02*
X209235000Y-125670000D01*
X209115000Y-119670000D02*
X209115000Y-125670000D01*
X208995000Y-119670000D02*
X208995000Y-125670000D01*
X208875000Y-119670000D02*
X208875000Y-125670000D01*
X208755000Y-119670000D02*
X208755000Y-125670000D01*
X208635000Y-119670000D02*
X208635000Y-125670000D01*
X209295000Y-116680000D02*
X209295000Y-117010000D01*
X208535000Y-116680000D02*
X208535000Y-117010000D01*
X207645000Y-117010000D02*
X207645000Y-119670000D01*
X206755000Y-119670000D02*
X206755000Y-125670000D01*
X206755000Y-125670000D02*
X205995000Y-125670000D01*
X205995000Y-125670000D02*
X205995000Y-119670000D01*
X206755000Y-116612929D02*
X206755000Y-117010000D01*
X205995000Y-116612929D02*
X205995000Y-117010000D01*
X205105000Y-117010000D02*
X205105000Y-119670000D01*
X204215000Y-119670000D02*
X204215000Y-125670000D01*
X204215000Y-125670000D02*
X203455000Y-125670000D01*
X203455000Y-125670000D02*
X203455000Y-119670000D01*
X204215000Y-116612929D02*
X204215000Y-117010000D01*
X203455000Y-116612929D02*
X203455000Y-117010000D01*
X202565000Y-117010000D02*
X202565000Y-119670000D01*
X201675000Y-119670000D02*
X201675000Y-125670000D01*
X201675000Y-125670000D02*
X200915000Y-125670000D01*
X200915000Y-125670000D02*
X200915000Y-119670000D01*
X201675000Y-116612929D02*
X201675000Y-117010000D01*
X200915000Y-116612929D02*
X200915000Y-117010000D01*
X200025000Y-117010000D02*
X200025000Y-119670000D01*
X199135000Y-119670000D02*
X199135000Y-125670000D01*
X199135000Y-125670000D02*
X198375000Y-125670000D01*
X198375000Y-125670000D02*
X198375000Y-119670000D01*
X199135000Y-116612929D02*
X199135000Y-117010000D01*
X198375000Y-116612929D02*
X198375000Y-117010000D01*
X197485000Y-117010000D02*
X197485000Y-119670000D01*
X196595000Y-119670000D02*
X196595000Y-125670000D01*
X196595000Y-125670000D02*
X195835000Y-125670000D01*
X195835000Y-125670000D02*
X195835000Y-119670000D01*
X196595000Y-116612929D02*
X196595000Y-117010000D01*
X195835000Y-116612929D02*
X195835000Y-117010000D01*
X208915000Y-114300000D02*
X210185000Y-114300000D01*
X210185000Y-114300000D02*
X210185000Y-115570000D01*
G04 #@! TO.C,PWR*
X226120000Y-48835000D02*
X220920000Y-48835000D01*
X226120000Y-56515000D02*
X226120000Y-48835000D01*
X220920000Y-59115000D02*
X220920000Y-48835000D01*
X226120000Y-56515000D02*
X223520000Y-56515000D01*
X223520000Y-56515000D02*
X223520000Y-59115000D01*
X223520000Y-59115000D02*
X220920000Y-59115000D01*
X226120000Y-57785000D02*
X226120000Y-59115000D01*
X226120000Y-59115000D02*
X224790000Y-59115000D01*
G04 #@! TO.C,ANAG OUT*
X179010000Y-69910000D02*
X181670000Y-69910000D01*
X179010000Y-69850000D02*
X179010000Y-69910000D01*
X181670000Y-69850000D02*
X181670000Y-69910000D01*
X179010000Y-69850000D02*
X181670000Y-69850000D01*
X179010000Y-68580000D02*
X179010000Y-67250000D01*
X179010000Y-67250000D02*
X180340000Y-67250000D01*
G04 #@! TO.C,ANAG IN*
X225485000Y-45780000D02*
X224155000Y-45780000D01*
X225485000Y-44450000D02*
X225485000Y-45780000D01*
X225485000Y-43180000D02*
X222825000Y-43180000D01*
X222825000Y-43180000D02*
X222825000Y-40580000D01*
X225485000Y-43180000D02*
X225485000Y-40580000D01*
X225485000Y-40580000D02*
X222825000Y-40580000D01*
G04 #@! TO.C,SPI*
X182820000Y-114240000D02*
X182820000Y-116900000D01*
X190500000Y-114240000D02*
X182820000Y-114240000D01*
X190500000Y-116900000D02*
X182820000Y-116900000D01*
X190500000Y-114240000D02*
X190500000Y-116900000D01*
X191770000Y-114240000D02*
X193100000Y-114240000D01*
X193100000Y-114240000D02*
X193100000Y-115570000D01*
G04 #@! TO.C,EXT*
X179010000Y-51495000D02*
X181670000Y-51495000D01*
X179010000Y-46355000D02*
X179010000Y-51495000D01*
X181670000Y-46355000D02*
X181670000Y-51495000D01*
X179010000Y-46355000D02*
X181670000Y-46355000D01*
X179010000Y-45085000D02*
X179010000Y-43755000D01*
X179010000Y-43755000D02*
X180340000Y-43755000D01*
G04 #@! TO.C,PWM*
X204410000Y-48320000D02*
X204410000Y-46990000D01*
X205740000Y-48320000D02*
X204410000Y-48320000D01*
X207010000Y-48320000D02*
X207010000Y-45660000D01*
X207010000Y-45660000D02*
X212150000Y-45660000D01*
X207010000Y-48320000D02*
X212150000Y-48320000D01*
X212150000Y-48320000D02*
X212150000Y-45660000D01*
G04 #@! TO.C,TX/RX*
X223460000Y-87055000D02*
X226120000Y-87055000D01*
X223460000Y-84455000D02*
X223460000Y-87055000D01*
X226120000Y-84455000D02*
X226120000Y-87055000D01*
X223460000Y-84455000D02*
X226120000Y-84455000D01*
X223460000Y-83185000D02*
X223460000Y-81855000D01*
X223460000Y-81855000D02*
X224790000Y-81855000D01*
G04 #@! TO.C,U1*
X226335000Y-98725000D02*
X226335000Y-97225000D01*
X226335000Y-97225000D02*
X226065000Y-97225000D01*
X226065000Y-97225000D02*
X226065000Y-94395000D01*
X219435000Y-98725000D02*
X219435000Y-97225000D01*
X219435000Y-97225000D02*
X219705000Y-97225000D01*
X219705000Y-97225000D02*
X219705000Y-96125000D01*
G04 #@! TO.C,C14*
D13*
X191280142Y-74567142D02*
X191243857Y-74603428D01*
X191135000Y-74639714D01*
X191062428Y-74639714D01*
X190953571Y-74603428D01*
X190881000Y-74530857D01*
X190844714Y-74458285D01*
X190808428Y-74313142D01*
X190808428Y-74204285D01*
X190844714Y-74059142D01*
X190881000Y-73986571D01*
X190953571Y-73914000D01*
X191062428Y-73877714D01*
X191135000Y-73877714D01*
X191243857Y-73914000D01*
X191280142Y-73950285D01*
X192005857Y-74639714D02*
X191570428Y-74639714D01*
X191788142Y-74639714D02*
X191788142Y-73877714D01*
X191715571Y-73986571D01*
X191643000Y-74059142D01*
X191570428Y-74095428D01*
X192659000Y-74131714D02*
X192659000Y-74639714D01*
X192477571Y-73841428D02*
X192296142Y-74385714D01*
X192767857Y-74385714D01*
G04 #@! TO.C,J1*
X214376000Y-104357714D02*
X214376000Y-104902000D01*
X214339714Y-105010857D01*
X214267142Y-105083428D01*
X214158285Y-105119714D01*
X214085714Y-105119714D01*
X215138000Y-105119714D02*
X214702571Y-105119714D01*
X214920285Y-105119714D02*
X214920285Y-104357714D01*
X214847714Y-104466571D01*
X214775142Y-104539142D01*
X214702571Y-104575428D01*
G04 #@! TO.C,C1*
X220897560Y-90000182D02*
X220861274Y-90036468D01*
X220752417Y-90072754D01*
X220679845Y-90072754D01*
X220570988Y-90036468D01*
X220498417Y-89963897D01*
X220462131Y-89891325D01*
X220425845Y-89746182D01*
X220425845Y-89637325D01*
X220462131Y-89492182D01*
X220498417Y-89419611D01*
X220570988Y-89347040D01*
X220679845Y-89310754D01*
X220752417Y-89310754D01*
X220861274Y-89347040D01*
X220897560Y-89383325D01*
X221623274Y-90072754D02*
X221187845Y-90072754D01*
X221405560Y-90072754D02*
X221405560Y-89310754D01*
X221332988Y-89419611D01*
X221260417Y-89492182D01*
X221187845Y-89528468D01*
G04 #@! TO.C,C2*
X216408000Y-99967142D02*
X216371714Y-100003428D01*
X216262857Y-100039714D01*
X216190285Y-100039714D01*
X216081428Y-100003428D01*
X216008857Y-99930857D01*
X215972571Y-99858285D01*
X215936285Y-99713142D01*
X215936285Y-99604285D01*
X215972571Y-99459142D01*
X216008857Y-99386571D01*
X216081428Y-99314000D01*
X216190285Y-99277714D01*
X216262857Y-99277714D01*
X216371714Y-99314000D01*
X216408000Y-99350285D01*
X216698285Y-99350285D02*
X216734571Y-99314000D01*
X216807142Y-99277714D01*
X216988571Y-99277714D01*
X217061142Y-99314000D01*
X217097428Y-99350285D01*
X217133714Y-99422857D01*
X217133714Y-99495428D01*
X217097428Y-99604285D01*
X216662000Y-100039714D01*
X217133714Y-100039714D01*
G04 #@! TO.C,C3*
X206883000Y-96157142D02*
X206846714Y-96193428D01*
X206737857Y-96229714D01*
X206665285Y-96229714D01*
X206556428Y-96193428D01*
X206483857Y-96120857D01*
X206447571Y-96048285D01*
X206411285Y-95903142D01*
X206411285Y-95794285D01*
X206447571Y-95649142D01*
X206483857Y-95576571D01*
X206556428Y-95504000D01*
X206665285Y-95467714D01*
X206737857Y-95467714D01*
X206846714Y-95504000D01*
X206883000Y-95540285D01*
X207137000Y-95467714D02*
X207608714Y-95467714D01*
X207354714Y-95758000D01*
X207463571Y-95758000D01*
X207536142Y-95794285D01*
X207572428Y-95830571D01*
X207608714Y-95903142D01*
X207608714Y-96084571D01*
X207572428Y-96157142D01*
X207536142Y-96193428D01*
X207463571Y-96229714D01*
X207245857Y-96229714D01*
X207173285Y-96193428D01*
X207137000Y-96157142D01*
G04 #@! TO.C,C4*
X212598000Y-99840142D02*
X212561714Y-99876428D01*
X212452857Y-99912714D01*
X212380285Y-99912714D01*
X212271428Y-99876428D01*
X212198857Y-99803857D01*
X212162571Y-99731285D01*
X212126285Y-99586142D01*
X212126285Y-99477285D01*
X212162571Y-99332142D01*
X212198857Y-99259571D01*
X212271428Y-99187000D01*
X212380285Y-99150714D01*
X212452857Y-99150714D01*
X212561714Y-99187000D01*
X212598000Y-99223285D01*
X213251142Y-99404714D02*
X213251142Y-99912714D01*
X213069714Y-99114428D02*
X212888285Y-99658714D01*
X213360000Y-99658714D01*
G04 #@! TO.C,C5*
X192042142Y-40776000D02*
X192078428Y-40812285D01*
X192114714Y-40921142D01*
X192114714Y-40993714D01*
X192078428Y-41102571D01*
X192005857Y-41175142D01*
X191933285Y-41211428D01*
X191788142Y-41247714D01*
X191679285Y-41247714D01*
X191534142Y-41211428D01*
X191461571Y-41175142D01*
X191389000Y-41102571D01*
X191352714Y-40993714D01*
X191352714Y-40921142D01*
X191389000Y-40812285D01*
X191425285Y-40776000D01*
X191352714Y-40086571D02*
X191352714Y-40449428D01*
X191715571Y-40485714D01*
X191679285Y-40449428D01*
X191643000Y-40376857D01*
X191643000Y-40195428D01*
X191679285Y-40122857D01*
X191715571Y-40086571D01*
X191788142Y-40050285D01*
X191969571Y-40050285D01*
X192042142Y-40086571D01*
X192078428Y-40122857D01*
X192114714Y-40195428D01*
X192114714Y-40376857D01*
X192078428Y-40449428D01*
X192042142Y-40485714D01*
G04 #@! TO.C,C6*
X196487142Y-40767000D02*
X196523428Y-40803285D01*
X196559714Y-40912142D01*
X196559714Y-40984714D01*
X196523428Y-41093571D01*
X196450857Y-41166142D01*
X196378285Y-41202428D01*
X196233142Y-41238714D01*
X196124285Y-41238714D01*
X195979142Y-41202428D01*
X195906571Y-41166142D01*
X195834000Y-41093571D01*
X195797714Y-40984714D01*
X195797714Y-40912142D01*
X195834000Y-40803285D01*
X195870285Y-40767000D01*
X195797714Y-40113857D02*
X195797714Y-40259000D01*
X195834000Y-40331571D01*
X195870285Y-40367857D01*
X195979142Y-40440428D01*
X196124285Y-40476714D01*
X196414571Y-40476714D01*
X196487142Y-40440428D01*
X196523428Y-40404142D01*
X196559714Y-40331571D01*
X196559714Y-40186428D01*
X196523428Y-40113857D01*
X196487142Y-40077571D01*
X196414571Y-40041285D01*
X196233142Y-40041285D01*
X196160571Y-40077571D01*
X196124285Y-40113857D01*
X196088000Y-40186428D01*
X196088000Y-40331571D01*
X196124285Y-40404142D01*
X196160571Y-40440428D01*
X196233142Y-40476714D01*
G04 #@! TO.C,C7*
X204742142Y-40767000D02*
X204778428Y-40803285D01*
X204814714Y-40912142D01*
X204814714Y-40984714D01*
X204778428Y-41093571D01*
X204705857Y-41166142D01*
X204633285Y-41202428D01*
X204488142Y-41238714D01*
X204379285Y-41238714D01*
X204234142Y-41202428D01*
X204161571Y-41166142D01*
X204089000Y-41093571D01*
X204052714Y-40984714D01*
X204052714Y-40912142D01*
X204089000Y-40803285D01*
X204125285Y-40767000D01*
X204052714Y-40513000D02*
X204052714Y-40005000D01*
X204814714Y-40331571D01*
G04 #@! TO.C,C8*
X215147000Y-35959142D02*
X215110714Y-35995428D01*
X215001857Y-36031714D01*
X214929285Y-36031714D01*
X214820428Y-35995428D01*
X214747857Y-35922857D01*
X214711571Y-35850285D01*
X214675285Y-35705142D01*
X214675285Y-35596285D01*
X214711571Y-35451142D01*
X214747857Y-35378571D01*
X214820428Y-35306000D01*
X214929285Y-35269714D01*
X215001857Y-35269714D01*
X215110714Y-35306000D01*
X215147000Y-35342285D01*
X215582428Y-35596285D02*
X215509857Y-35560000D01*
X215473571Y-35523714D01*
X215437285Y-35451142D01*
X215437285Y-35414857D01*
X215473571Y-35342285D01*
X215509857Y-35306000D01*
X215582428Y-35269714D01*
X215727571Y-35269714D01*
X215800142Y-35306000D01*
X215836428Y-35342285D01*
X215872714Y-35414857D01*
X215872714Y-35451142D01*
X215836428Y-35523714D01*
X215800142Y-35560000D01*
X215727571Y-35596285D01*
X215582428Y-35596285D01*
X215509857Y-35632571D01*
X215473571Y-35668857D01*
X215437285Y-35741428D01*
X215437285Y-35886571D01*
X215473571Y-35959142D01*
X215509857Y-35995428D01*
X215582428Y-36031714D01*
X215727571Y-36031714D01*
X215800142Y-35995428D01*
X215836428Y-35959142D01*
X215872714Y-35886571D01*
X215872714Y-35741428D01*
X215836428Y-35668857D01*
X215800142Y-35632571D01*
X215727571Y-35596285D01*
G04 #@! TO.C,C9*
X185928000Y-48532142D02*
X185891714Y-48568428D01*
X185782857Y-48604714D01*
X185710285Y-48604714D01*
X185601428Y-48568428D01*
X185528857Y-48495857D01*
X185492571Y-48423285D01*
X185456285Y-48278142D01*
X185456285Y-48169285D01*
X185492571Y-48024142D01*
X185528857Y-47951571D01*
X185601428Y-47879000D01*
X185710285Y-47842714D01*
X185782857Y-47842714D01*
X185891714Y-47879000D01*
X185928000Y-47915285D01*
X186290857Y-48604714D02*
X186436000Y-48604714D01*
X186508571Y-48568428D01*
X186544857Y-48532142D01*
X186617428Y-48423285D01*
X186653714Y-48278142D01*
X186653714Y-47987857D01*
X186617428Y-47915285D01*
X186581142Y-47879000D01*
X186508571Y-47842714D01*
X186363428Y-47842714D01*
X186290857Y-47879000D01*
X186254571Y-47915285D01*
X186218285Y-47987857D01*
X186218285Y-48169285D01*
X186254571Y-48241857D01*
X186290857Y-48278142D01*
X186363428Y-48314428D01*
X186508571Y-48314428D01*
X186581142Y-48278142D01*
X186617428Y-48241857D01*
X186653714Y-48169285D01*
G04 #@! TO.C,C10*
X185565142Y-44087142D02*
X185528857Y-44123428D01*
X185420000Y-44159714D01*
X185347428Y-44159714D01*
X185238571Y-44123428D01*
X185166000Y-44050857D01*
X185129714Y-43978285D01*
X185093428Y-43833142D01*
X185093428Y-43724285D01*
X185129714Y-43579142D01*
X185166000Y-43506571D01*
X185238571Y-43434000D01*
X185347428Y-43397714D01*
X185420000Y-43397714D01*
X185528857Y-43434000D01*
X185565142Y-43470285D01*
X186290857Y-44159714D02*
X185855428Y-44159714D01*
X186073142Y-44159714D02*
X186073142Y-43397714D01*
X186000571Y-43506571D01*
X185928000Y-43579142D01*
X185855428Y-43615428D01*
X186762571Y-43397714D02*
X186835142Y-43397714D01*
X186907714Y-43434000D01*
X186944000Y-43470285D01*
X186980285Y-43542857D01*
X187016571Y-43688000D01*
X187016571Y-43869428D01*
X186980285Y-44014571D01*
X186944000Y-44087142D01*
X186907714Y-44123428D01*
X186835142Y-44159714D01*
X186762571Y-44159714D01*
X186690000Y-44123428D01*
X186653714Y-44087142D01*
X186617428Y-44014571D01*
X186581142Y-43869428D01*
X186581142Y-43688000D01*
X186617428Y-43542857D01*
X186653714Y-43470285D01*
X186690000Y-43434000D01*
X186762571Y-43397714D01*
G04 #@! TO.C,C11*
X200805142Y-41138857D02*
X200841428Y-41175142D01*
X200877714Y-41284000D01*
X200877714Y-41356571D01*
X200841428Y-41465428D01*
X200768857Y-41538000D01*
X200696285Y-41574285D01*
X200551142Y-41610571D01*
X200442285Y-41610571D01*
X200297142Y-41574285D01*
X200224571Y-41538000D01*
X200152000Y-41465428D01*
X200115714Y-41356571D01*
X200115714Y-41284000D01*
X200152000Y-41175142D01*
X200188285Y-41138857D01*
X200877714Y-40413142D02*
X200877714Y-40848571D01*
X200877714Y-40630857D02*
X200115714Y-40630857D01*
X200224571Y-40703428D01*
X200297142Y-40776000D01*
X200333428Y-40848571D01*
X200877714Y-39687428D02*
X200877714Y-40122857D01*
X200877714Y-39905142D02*
X200115714Y-39905142D01*
X200224571Y-39977714D01*
X200297142Y-40050285D01*
X200333428Y-40122857D01*
G04 #@! TO.C,C12*
X196877142Y-85579857D02*
X196913428Y-85616142D01*
X196949714Y-85725000D01*
X196949714Y-85797571D01*
X196913428Y-85906428D01*
X196840857Y-85979000D01*
X196768285Y-86015285D01*
X196623142Y-86051571D01*
X196514285Y-86051571D01*
X196369142Y-86015285D01*
X196296571Y-85979000D01*
X196224000Y-85906428D01*
X196187714Y-85797571D01*
X196187714Y-85725000D01*
X196224000Y-85616142D01*
X196260285Y-85579857D01*
X196949714Y-84854142D02*
X196949714Y-85289571D01*
X196949714Y-85071857D02*
X196187714Y-85071857D01*
X196296571Y-85144428D01*
X196369142Y-85217000D01*
X196405428Y-85289571D01*
X196260285Y-84563857D02*
X196224000Y-84527571D01*
X196187714Y-84455000D01*
X196187714Y-84273571D01*
X196224000Y-84201000D01*
X196260285Y-84164714D01*
X196332857Y-84128428D01*
X196405428Y-84128428D01*
X196514285Y-84164714D01*
X196949714Y-84600142D01*
X196949714Y-84128428D01*
G04 #@! TO.C,C13*
X191915142Y-70377142D02*
X191878857Y-70413428D01*
X191770000Y-70449714D01*
X191697428Y-70449714D01*
X191588571Y-70413428D01*
X191516000Y-70340857D01*
X191479714Y-70268285D01*
X191443428Y-70123142D01*
X191443428Y-70014285D01*
X191479714Y-69869142D01*
X191516000Y-69796571D01*
X191588571Y-69724000D01*
X191697428Y-69687714D01*
X191770000Y-69687714D01*
X191878857Y-69724000D01*
X191915142Y-69760285D01*
X192640857Y-70449714D02*
X192205428Y-70449714D01*
X192423142Y-70449714D02*
X192423142Y-69687714D01*
X192350571Y-69796571D01*
X192278000Y-69869142D01*
X192205428Y-69905428D01*
X192894857Y-69687714D02*
X193366571Y-69687714D01*
X193112571Y-69978000D01*
X193221428Y-69978000D01*
X193294000Y-70014285D01*
X193330285Y-70050571D01*
X193366571Y-70123142D01*
X193366571Y-70304571D01*
X193330285Y-70377142D01*
X193294000Y-70413428D01*
X193221428Y-70449714D01*
X193003714Y-70449714D01*
X192931142Y-70413428D01*
X192894857Y-70377142D01*
G04 #@! TO.C,C15*
X196369142Y-68979142D02*
X196332857Y-69015428D01*
X196224000Y-69051714D01*
X196151428Y-69051714D01*
X196042571Y-69015428D01*
X195970000Y-68942857D01*
X195933714Y-68870285D01*
X195897428Y-68725142D01*
X195897428Y-68616285D01*
X195933714Y-68471142D01*
X195970000Y-68398571D01*
X196042571Y-68326000D01*
X196151428Y-68289714D01*
X196224000Y-68289714D01*
X196332857Y-68326000D01*
X196369142Y-68362285D01*
X197094857Y-69051714D02*
X196659428Y-69051714D01*
X196877142Y-69051714D02*
X196877142Y-68289714D01*
X196804571Y-68398571D01*
X196732000Y-68471142D01*
X196659428Y-68507428D01*
X197784285Y-68289714D02*
X197421428Y-68289714D01*
X197385142Y-68652571D01*
X197421428Y-68616285D01*
X197494000Y-68580000D01*
X197675428Y-68580000D01*
X197748000Y-68616285D01*
X197784285Y-68652571D01*
X197820571Y-68725142D01*
X197820571Y-68906571D01*
X197784285Y-68979142D01*
X197748000Y-69015428D01*
X197675428Y-69051714D01*
X197494000Y-69051714D01*
X197421428Y-69015428D01*
X197385142Y-68979142D01*
G04 #@! TO.C,C16*
X200560142Y-68852142D02*
X200523857Y-68888428D01*
X200415000Y-68924714D01*
X200342428Y-68924714D01*
X200233571Y-68888428D01*
X200161000Y-68815857D01*
X200124714Y-68743285D01*
X200088428Y-68598142D01*
X200088428Y-68489285D01*
X200124714Y-68344142D01*
X200161000Y-68271571D01*
X200233571Y-68199000D01*
X200342428Y-68162714D01*
X200415000Y-68162714D01*
X200523857Y-68199000D01*
X200560142Y-68235285D01*
X201285857Y-68924714D02*
X200850428Y-68924714D01*
X201068142Y-68924714D02*
X201068142Y-68162714D01*
X200995571Y-68271571D01*
X200923000Y-68344142D01*
X200850428Y-68380428D01*
X201939000Y-68162714D02*
X201793857Y-68162714D01*
X201721285Y-68199000D01*
X201685000Y-68235285D01*
X201612428Y-68344142D01*
X201576142Y-68489285D01*
X201576142Y-68779571D01*
X201612428Y-68852142D01*
X201648714Y-68888428D01*
X201721285Y-68924714D01*
X201866428Y-68924714D01*
X201939000Y-68888428D01*
X201975285Y-68852142D01*
X202011571Y-68779571D01*
X202011571Y-68598142D01*
X201975285Y-68525571D01*
X201939000Y-68489285D01*
X201866428Y-68453000D01*
X201721285Y-68453000D01*
X201648714Y-68489285D01*
X201612428Y-68525571D01*
X201576142Y-68598142D01*
G04 #@! TO.C,C17*
X207917142Y-77725742D02*
X207880857Y-77762028D01*
X207772000Y-77798314D01*
X207699428Y-77798314D01*
X207590571Y-77762028D01*
X207518000Y-77689457D01*
X207481714Y-77616885D01*
X207445428Y-77471742D01*
X207445428Y-77362885D01*
X207481714Y-77217742D01*
X207518000Y-77145171D01*
X207590571Y-77072600D01*
X207699428Y-77036314D01*
X207772000Y-77036314D01*
X207880857Y-77072600D01*
X207917142Y-77108885D01*
X208642857Y-77798314D02*
X208207428Y-77798314D01*
X208425142Y-77798314D02*
X208425142Y-77036314D01*
X208352571Y-77145171D01*
X208280000Y-77217742D01*
X208207428Y-77254028D01*
X208896857Y-77036314D02*
X209404857Y-77036314D01*
X209078285Y-77798314D01*
G04 #@! TO.C,C18*
X196360142Y-53232142D02*
X196323857Y-53268428D01*
X196215000Y-53304714D01*
X196142428Y-53304714D01*
X196033571Y-53268428D01*
X195961000Y-53195857D01*
X195924714Y-53123285D01*
X195888428Y-52978142D01*
X195888428Y-52869285D01*
X195924714Y-52724142D01*
X195961000Y-52651571D01*
X196033571Y-52579000D01*
X196142428Y-52542714D01*
X196215000Y-52542714D01*
X196323857Y-52579000D01*
X196360142Y-52615285D01*
X197085857Y-53304714D02*
X196650428Y-53304714D01*
X196868142Y-53304714D02*
X196868142Y-52542714D01*
X196795571Y-52651571D01*
X196723000Y-52724142D01*
X196650428Y-52760428D01*
X197521285Y-52869285D02*
X197448714Y-52833000D01*
X197412428Y-52796714D01*
X197376142Y-52724142D01*
X197376142Y-52687857D01*
X197412428Y-52615285D01*
X197448714Y-52579000D01*
X197521285Y-52542714D01*
X197666428Y-52542714D01*
X197739000Y-52579000D01*
X197775285Y-52615285D01*
X197811571Y-52687857D01*
X197811571Y-52724142D01*
X197775285Y-52796714D01*
X197739000Y-52833000D01*
X197666428Y-52869285D01*
X197521285Y-52869285D01*
X197448714Y-52905571D01*
X197412428Y-52941857D01*
X197376142Y-53014428D01*
X197376142Y-53159571D01*
X197412428Y-53232142D01*
X197448714Y-53268428D01*
X197521285Y-53304714D01*
X197666428Y-53304714D01*
X197739000Y-53268428D01*
X197775285Y-53232142D01*
X197811571Y-53159571D01*
X197811571Y-53014428D01*
X197775285Y-52941857D01*
X197739000Y-52905571D01*
X197666428Y-52869285D01*
G04 #@! TO.C,C19*
X206520142Y-58312142D02*
X206483857Y-58348428D01*
X206375000Y-58384714D01*
X206302428Y-58384714D01*
X206193571Y-58348428D01*
X206121000Y-58275857D01*
X206084714Y-58203285D01*
X206048428Y-58058142D01*
X206048428Y-57949285D01*
X206084714Y-57804142D01*
X206121000Y-57731571D01*
X206193571Y-57659000D01*
X206302428Y-57622714D01*
X206375000Y-57622714D01*
X206483857Y-57659000D01*
X206520142Y-57695285D01*
X207245857Y-58384714D02*
X206810428Y-58384714D01*
X207028142Y-58384714D02*
X207028142Y-57622714D01*
X206955571Y-57731571D01*
X206883000Y-57804142D01*
X206810428Y-57840428D01*
X207608714Y-58384714D02*
X207753857Y-58384714D01*
X207826428Y-58348428D01*
X207862714Y-58312142D01*
X207935285Y-58203285D01*
X207971571Y-58058142D01*
X207971571Y-57767857D01*
X207935285Y-57695285D01*
X207899000Y-57659000D01*
X207826428Y-57622714D01*
X207681285Y-57622714D01*
X207608714Y-57659000D01*
X207572428Y-57695285D01*
X207536142Y-57767857D01*
X207536142Y-57949285D01*
X207572428Y-58021857D01*
X207608714Y-58058142D01*
X207681285Y-58094428D01*
X207826428Y-58094428D01*
X207899000Y-58058142D01*
X207935285Y-58021857D01*
X207971571Y-57949285D01*
G04 #@! TO.C,C20*
X213514142Y-58438142D02*
X213477857Y-58474428D01*
X213369000Y-58510714D01*
X213296428Y-58510714D01*
X213187571Y-58474428D01*
X213115000Y-58401857D01*
X213078714Y-58329285D01*
X213042428Y-58184142D01*
X213042428Y-58075285D01*
X213078714Y-57930142D01*
X213115000Y-57857571D01*
X213187571Y-57785000D01*
X213296428Y-57748714D01*
X213369000Y-57748714D01*
X213477857Y-57785000D01*
X213514142Y-57821285D01*
X213804428Y-57821285D02*
X213840714Y-57785000D01*
X213913285Y-57748714D01*
X214094714Y-57748714D01*
X214167285Y-57785000D01*
X214203571Y-57821285D01*
X214239857Y-57893857D01*
X214239857Y-57966428D01*
X214203571Y-58075285D01*
X213768142Y-58510714D01*
X214239857Y-58510714D01*
X214711571Y-57748714D02*
X214784142Y-57748714D01*
X214856714Y-57785000D01*
X214893000Y-57821285D01*
X214929285Y-57893857D01*
X214965571Y-58039000D01*
X214965571Y-58220428D01*
X214929285Y-58365571D01*
X214893000Y-58438142D01*
X214856714Y-58474428D01*
X214784142Y-58510714D01*
X214711571Y-58510714D01*
X214639000Y-58474428D01*
X214602714Y-58438142D01*
X214566428Y-58365571D01*
X214530142Y-58220428D01*
X214530142Y-58039000D01*
X214566428Y-57893857D01*
X214602714Y-57821285D01*
X214639000Y-57785000D01*
X214711571Y-57748714D01*
G04 #@! TO.C,C21*
X193194142Y-56660142D02*
X193157857Y-56696428D01*
X193049000Y-56732714D01*
X192976428Y-56732714D01*
X192867571Y-56696428D01*
X192795000Y-56623857D01*
X192758714Y-56551285D01*
X192722428Y-56406142D01*
X192722428Y-56297285D01*
X192758714Y-56152142D01*
X192795000Y-56079571D01*
X192867571Y-56007000D01*
X192976428Y-55970714D01*
X193049000Y-55970714D01*
X193157857Y-56007000D01*
X193194142Y-56043285D01*
X193484428Y-56043285D02*
X193520714Y-56007000D01*
X193593285Y-55970714D01*
X193774714Y-55970714D01*
X193847285Y-56007000D01*
X193883571Y-56043285D01*
X193919857Y-56115857D01*
X193919857Y-56188428D01*
X193883571Y-56297285D01*
X193448142Y-56732714D01*
X193919857Y-56732714D01*
X194645571Y-56732714D02*
X194210142Y-56732714D01*
X194427857Y-56732714D02*
X194427857Y-55970714D01*
X194355285Y-56079571D01*
X194282714Y-56152142D01*
X194210142Y-56188428D01*
G04 #@! TO.C,D1*
X215210571Y-93054714D02*
X215210571Y-92292714D01*
X215392000Y-92292714D01*
X215500857Y-92329000D01*
X215573428Y-92401571D01*
X215609714Y-92474142D01*
X215646000Y-92619285D01*
X215646000Y-92728142D01*
X215609714Y-92873285D01*
X215573428Y-92945857D01*
X215500857Y-93018428D01*
X215392000Y-93054714D01*
X215210571Y-93054714D01*
X216371714Y-93054714D02*
X215936285Y-93054714D01*
X216154000Y-93054714D02*
X216154000Y-92292714D01*
X216081428Y-92401571D01*
X216008857Y-92474142D01*
X215936285Y-92510428D01*
G04 #@! TO.C,POT2*
X222903142Y-27649714D02*
X222903142Y-26887714D01*
X223193428Y-26887714D01*
X223266000Y-26924000D01*
X223302285Y-26960285D01*
X223338571Y-27032857D01*
X223338571Y-27141714D01*
X223302285Y-27214285D01*
X223266000Y-27250571D01*
X223193428Y-27286857D01*
X222903142Y-27286857D01*
X223810285Y-26887714D02*
X223955428Y-26887714D01*
X224028000Y-26924000D01*
X224100571Y-26996571D01*
X224136857Y-27141714D01*
X224136857Y-27395714D01*
X224100571Y-27540857D01*
X224028000Y-27613428D01*
X223955428Y-27649714D01*
X223810285Y-27649714D01*
X223737714Y-27613428D01*
X223665142Y-27540857D01*
X223628857Y-27395714D01*
X223628857Y-27141714D01*
X223665142Y-26996571D01*
X223737714Y-26924000D01*
X223810285Y-26887714D01*
X224354571Y-26887714D02*
X224790000Y-26887714D01*
X224572285Y-27649714D02*
X224572285Y-26887714D01*
X225007714Y-26960285D02*
X225044000Y-26924000D01*
X225116571Y-26887714D01*
X225298000Y-26887714D01*
X225370571Y-26924000D01*
X225406857Y-26960285D01*
X225443142Y-27032857D01*
X225443142Y-27105428D01*
X225406857Y-27214285D01*
X224971428Y-27649714D01*
X225443142Y-27649714D01*
G04 #@! TO.C,R1*
X207072120Y-92617834D02*
X206818120Y-92254977D01*
X206636691Y-92617834D02*
X206636691Y-91855834D01*
X206926977Y-91855834D01*
X206999548Y-91892120D01*
X207035834Y-91928405D01*
X207072120Y-92000977D01*
X207072120Y-92109834D01*
X207035834Y-92182405D01*
X206999548Y-92218691D01*
X206926977Y-92254977D01*
X206636691Y-92254977D01*
X207797834Y-92617834D02*
X207362405Y-92617834D01*
X207580120Y-92617834D02*
X207580120Y-91855834D01*
X207507548Y-91964691D01*
X207434977Y-92037262D01*
X207362405Y-92073548D01*
G04 #@! TO.C,R2*
X185928000Y-53304714D02*
X185674000Y-52941857D01*
X185492571Y-53304714D02*
X185492571Y-52542714D01*
X185782857Y-52542714D01*
X185855428Y-52579000D01*
X185891714Y-52615285D01*
X185928000Y-52687857D01*
X185928000Y-52796714D01*
X185891714Y-52869285D01*
X185855428Y-52905571D01*
X185782857Y-52941857D01*
X185492571Y-52941857D01*
X186218285Y-52615285D02*
X186254571Y-52579000D01*
X186327142Y-52542714D01*
X186508571Y-52542714D01*
X186581142Y-52579000D01*
X186617428Y-52615285D01*
X186653714Y-52687857D01*
X186653714Y-52760428D01*
X186617428Y-52869285D01*
X186182000Y-53304714D01*
X186653714Y-53304714D01*
G04 #@! TO.C,R3*
X209423000Y-36031714D02*
X209169000Y-35668857D01*
X208987571Y-36031714D02*
X208987571Y-35269714D01*
X209277857Y-35269714D01*
X209350428Y-35306000D01*
X209386714Y-35342285D01*
X209423000Y-35414857D01*
X209423000Y-35523714D01*
X209386714Y-35596285D01*
X209350428Y-35632571D01*
X209277857Y-35668857D01*
X208987571Y-35668857D01*
X209677000Y-35269714D02*
X210148714Y-35269714D01*
X209894714Y-35560000D01*
X210003571Y-35560000D01*
X210076142Y-35596285D01*
X210112428Y-35632571D01*
X210148714Y-35705142D01*
X210148714Y-35886571D01*
X210112428Y-35959142D01*
X210076142Y-35995428D01*
X210003571Y-36031714D01*
X209785857Y-36031714D01*
X209713285Y-35995428D01*
X209677000Y-35959142D01*
G04 #@! TO.C,R4*
X213986000Y-78449714D02*
X213732000Y-78086857D01*
X213550571Y-78449714D02*
X213550571Y-77687714D01*
X213840857Y-77687714D01*
X213913428Y-77724000D01*
X213949714Y-77760285D01*
X213986000Y-77832857D01*
X213986000Y-77941714D01*
X213949714Y-78014285D01*
X213913428Y-78050571D01*
X213840857Y-78086857D01*
X213550571Y-78086857D01*
X214639142Y-77941714D02*
X214639142Y-78449714D01*
X214457714Y-77651428D02*
X214276285Y-78195714D01*
X214748000Y-78195714D01*
G04 #@! TO.C,R5*
X213986000Y-75148714D02*
X213732000Y-74785857D01*
X213550571Y-75148714D02*
X213550571Y-74386714D01*
X213840857Y-74386714D01*
X213913428Y-74423000D01*
X213949714Y-74459285D01*
X213986000Y-74531857D01*
X213986000Y-74640714D01*
X213949714Y-74713285D01*
X213913428Y-74749571D01*
X213840857Y-74785857D01*
X213550571Y-74785857D01*
X214675428Y-74386714D02*
X214312571Y-74386714D01*
X214276285Y-74749571D01*
X214312571Y-74713285D01*
X214385142Y-74677000D01*
X214566571Y-74677000D01*
X214639142Y-74713285D01*
X214675428Y-74749571D01*
X214711714Y-74822142D01*
X214711714Y-75003571D01*
X214675428Y-75076142D01*
X214639142Y-75112428D01*
X214566571Y-75148714D01*
X214385142Y-75148714D01*
X214312571Y-75112428D01*
X214276285Y-75076142D01*
G04 #@! TO.C,R6*
X213875400Y-67502314D02*
X213621400Y-67139457D01*
X213439971Y-67502314D02*
X213439971Y-66740314D01*
X213730257Y-66740314D01*
X213802828Y-66776600D01*
X213839114Y-66812885D01*
X213875400Y-66885457D01*
X213875400Y-66994314D01*
X213839114Y-67066885D01*
X213802828Y-67103171D01*
X213730257Y-67139457D01*
X213439971Y-67139457D01*
X214528542Y-66740314D02*
X214383400Y-66740314D01*
X214310828Y-66776600D01*
X214274542Y-66812885D01*
X214201971Y-66921742D01*
X214165685Y-67066885D01*
X214165685Y-67357171D01*
X214201971Y-67429742D01*
X214238257Y-67466028D01*
X214310828Y-67502314D01*
X214455971Y-67502314D01*
X214528542Y-67466028D01*
X214564828Y-67429742D01*
X214601114Y-67357171D01*
X214601114Y-67175742D01*
X214564828Y-67103171D01*
X214528542Y-67066885D01*
X214455971Y-67030600D01*
X214310828Y-67030600D01*
X214238257Y-67066885D01*
X214201971Y-67103171D01*
X214165685Y-67175742D01*
G04 #@! TO.C,R7*
X213986000Y-71210714D02*
X213732000Y-70847857D01*
X213550571Y-71210714D02*
X213550571Y-70448714D01*
X213840857Y-70448714D01*
X213913428Y-70485000D01*
X213949714Y-70521285D01*
X213986000Y-70593857D01*
X213986000Y-70702714D01*
X213949714Y-70775285D01*
X213913428Y-70811571D01*
X213840857Y-70847857D01*
X213550571Y-70847857D01*
X214240000Y-70448714D02*
X214748000Y-70448714D01*
X214421428Y-71210714D01*
G04 #@! TO.C,R8*
X206892000Y-83529714D02*
X206638000Y-83166857D01*
X206456571Y-83529714D02*
X206456571Y-82767714D01*
X206746857Y-82767714D01*
X206819428Y-82804000D01*
X206855714Y-82840285D01*
X206892000Y-82912857D01*
X206892000Y-83021714D01*
X206855714Y-83094285D01*
X206819428Y-83130571D01*
X206746857Y-83166857D01*
X206456571Y-83166857D01*
X207327428Y-83094285D02*
X207254857Y-83058000D01*
X207218571Y-83021714D01*
X207182285Y-82949142D01*
X207182285Y-82912857D01*
X207218571Y-82840285D01*
X207254857Y-82804000D01*
X207327428Y-82767714D01*
X207472571Y-82767714D01*
X207545142Y-82804000D01*
X207581428Y-82840285D01*
X207617714Y-82912857D01*
X207617714Y-82949142D01*
X207581428Y-83021714D01*
X207545142Y-83058000D01*
X207472571Y-83094285D01*
X207327428Y-83094285D01*
X207254857Y-83130571D01*
X207218571Y-83166857D01*
X207182285Y-83239428D01*
X207182285Y-83384571D01*
X207218571Y-83457142D01*
X207254857Y-83493428D01*
X207327428Y-83529714D01*
X207472571Y-83529714D01*
X207545142Y-83493428D01*
X207581428Y-83457142D01*
X207617714Y-83384571D01*
X207617714Y-83239428D01*
X207581428Y-83166857D01*
X207545142Y-83130571D01*
X207472571Y-83094285D01*
G04 #@! TO.C,R9*
X191008000Y-89616714D02*
X190754000Y-89253857D01*
X190572571Y-89616714D02*
X190572571Y-88854714D01*
X190862857Y-88854714D01*
X190935428Y-88891000D01*
X190971714Y-88927285D01*
X191008000Y-88999857D01*
X191008000Y-89108714D01*
X190971714Y-89181285D01*
X190935428Y-89217571D01*
X190862857Y-89253857D01*
X190572571Y-89253857D01*
X191370857Y-89616714D02*
X191516000Y-89616714D01*
X191588571Y-89580428D01*
X191624857Y-89544142D01*
X191697428Y-89435285D01*
X191733714Y-89290142D01*
X191733714Y-88999857D01*
X191697428Y-88927285D01*
X191661142Y-88891000D01*
X191588571Y-88854714D01*
X191443428Y-88854714D01*
X191370857Y-88891000D01*
X191334571Y-88927285D01*
X191298285Y-88999857D01*
X191298285Y-89181285D01*
X191334571Y-89253857D01*
X191370857Y-89290142D01*
X191443428Y-89326428D01*
X191588571Y-89326428D01*
X191661142Y-89290142D01*
X191697428Y-89253857D01*
X191733714Y-89181285D01*
G04 #@! TO.C,R10*
X190636142Y-53430714D02*
X190382142Y-53067857D01*
X190200714Y-53430714D02*
X190200714Y-52668714D01*
X190491000Y-52668714D01*
X190563571Y-52705000D01*
X190599857Y-52741285D01*
X190636142Y-52813857D01*
X190636142Y-52922714D01*
X190599857Y-52995285D01*
X190563571Y-53031571D01*
X190491000Y-53067857D01*
X190200714Y-53067857D01*
X191361857Y-53430714D02*
X190926428Y-53430714D01*
X191144142Y-53430714D02*
X191144142Y-52668714D01*
X191071571Y-52777571D01*
X190999000Y-52850142D01*
X190926428Y-52886428D01*
X191833571Y-52668714D02*
X191906142Y-52668714D01*
X191978714Y-52705000D01*
X192015000Y-52741285D01*
X192051285Y-52813857D01*
X192087571Y-52959000D01*
X192087571Y-53140428D01*
X192051285Y-53285571D01*
X192015000Y-53358142D01*
X191978714Y-53394428D01*
X191906142Y-53430714D01*
X191833571Y-53430714D01*
X191761000Y-53394428D01*
X191724714Y-53358142D01*
X191688428Y-53285571D01*
X191652142Y-53140428D01*
X191652142Y-52959000D01*
X191688428Y-52813857D01*
X191724714Y-52741285D01*
X191761000Y-52705000D01*
X191833571Y-52668714D01*
G04 #@! TO.C,R11*
X193194142Y-61685714D02*
X192940142Y-61322857D01*
X192758714Y-61685714D02*
X192758714Y-60923714D01*
X193049000Y-60923714D01*
X193121571Y-60960000D01*
X193157857Y-60996285D01*
X193194142Y-61068857D01*
X193194142Y-61177714D01*
X193157857Y-61250285D01*
X193121571Y-61286571D01*
X193049000Y-61322857D01*
X192758714Y-61322857D01*
X193919857Y-61685714D02*
X193484428Y-61685714D01*
X193702142Y-61685714D02*
X193702142Y-60923714D01*
X193629571Y-61032571D01*
X193557000Y-61105142D01*
X193484428Y-61141428D01*
X194645571Y-61685714D02*
X194210142Y-61685714D01*
X194427857Y-61685714D02*
X194427857Y-60923714D01*
X194355285Y-61032571D01*
X194282714Y-61105142D01*
X194210142Y-61141428D01*
G04 #@! TO.C,R12*
X185574142Y-61431714D02*
X185320142Y-61068857D01*
X185138714Y-61431714D02*
X185138714Y-60669714D01*
X185429000Y-60669714D01*
X185501571Y-60706000D01*
X185537857Y-60742285D01*
X185574142Y-60814857D01*
X185574142Y-60923714D01*
X185537857Y-60996285D01*
X185501571Y-61032571D01*
X185429000Y-61068857D01*
X185138714Y-61068857D01*
X186299857Y-61431714D02*
X185864428Y-61431714D01*
X186082142Y-61431714D02*
X186082142Y-60669714D01*
X186009571Y-60778571D01*
X185937000Y-60851142D01*
X185864428Y-60887428D01*
X186590142Y-60742285D02*
X186626428Y-60706000D01*
X186699000Y-60669714D01*
X186880428Y-60669714D01*
X186953000Y-60706000D01*
X186989285Y-60742285D01*
X187025571Y-60814857D01*
X187025571Y-60887428D01*
X186989285Y-60996285D01*
X186553857Y-61431714D01*
X187025571Y-61431714D01*
G04 #@! TO.C,R13*
X219610142Y-82386714D02*
X219356142Y-82023857D01*
X219174714Y-82386714D02*
X219174714Y-81624714D01*
X219465000Y-81624714D01*
X219537571Y-81661000D01*
X219573857Y-81697285D01*
X219610142Y-81769857D01*
X219610142Y-81878714D01*
X219573857Y-81951285D01*
X219537571Y-81987571D01*
X219465000Y-82023857D01*
X219174714Y-82023857D01*
X220335857Y-82386714D02*
X219900428Y-82386714D01*
X220118142Y-82386714D02*
X220118142Y-81624714D01*
X220045571Y-81733571D01*
X219973000Y-81806142D01*
X219900428Y-81842428D01*
X220589857Y-81624714D02*
X221061571Y-81624714D01*
X220807571Y-81915000D01*
X220916428Y-81915000D01*
X220989000Y-81951285D01*
X221025285Y-81987571D01*
X221061571Y-82060142D01*
X221061571Y-82241571D01*
X221025285Y-82314142D01*
X220989000Y-82350428D01*
X220916428Y-82386714D01*
X220698714Y-82386714D01*
X220626142Y-82350428D01*
X220589857Y-82314142D01*
G04 #@! TO.C,R14*
X210974142Y-96356714D02*
X210720142Y-95993857D01*
X210538714Y-96356714D02*
X210538714Y-95594714D01*
X210829000Y-95594714D01*
X210901571Y-95631000D01*
X210937857Y-95667285D01*
X210974142Y-95739857D01*
X210974142Y-95848714D01*
X210937857Y-95921285D01*
X210901571Y-95957571D01*
X210829000Y-95993857D01*
X210538714Y-95993857D01*
X211699857Y-96356714D02*
X211264428Y-96356714D01*
X211482142Y-96356714D02*
X211482142Y-95594714D01*
X211409571Y-95703571D01*
X211337000Y-95776142D01*
X211264428Y-95812428D01*
X212353000Y-95848714D02*
X212353000Y-96356714D01*
X212171571Y-95558428D02*
X211990142Y-96102714D01*
X212461857Y-96102714D01*
G04 #@! TO.C,R15*
X179240542Y-96827994D02*
X178986542Y-96465137D01*
X178805114Y-96827994D02*
X178805114Y-96065994D01*
X179095400Y-96065994D01*
X179167971Y-96102280D01*
X179204257Y-96138565D01*
X179240542Y-96211137D01*
X179240542Y-96319994D01*
X179204257Y-96392565D01*
X179167971Y-96428851D01*
X179095400Y-96465137D01*
X178805114Y-96465137D01*
X179966257Y-96827994D02*
X179530828Y-96827994D01*
X179748542Y-96827994D02*
X179748542Y-96065994D01*
X179675971Y-96174851D01*
X179603400Y-96247422D01*
X179530828Y-96283708D01*
X180655685Y-96065994D02*
X180292828Y-96065994D01*
X180256542Y-96428851D01*
X180292828Y-96392565D01*
X180365400Y-96356280D01*
X180546828Y-96356280D01*
X180619400Y-96392565D01*
X180655685Y-96428851D01*
X180691971Y-96501422D01*
X180691971Y-96682851D01*
X180655685Y-96755422D01*
X180619400Y-96791708D01*
X180546828Y-96827994D01*
X180365400Y-96827994D01*
X180292828Y-96791708D01*
X180256542Y-96755422D01*
G04 #@! TO.C,R16*
X179230382Y-104805914D02*
X178976382Y-104443057D01*
X178794954Y-104805914D02*
X178794954Y-104043914D01*
X179085240Y-104043914D01*
X179157811Y-104080200D01*
X179194097Y-104116485D01*
X179230382Y-104189057D01*
X179230382Y-104297914D01*
X179194097Y-104370485D01*
X179157811Y-104406771D01*
X179085240Y-104443057D01*
X178794954Y-104443057D01*
X179956097Y-104805914D02*
X179520668Y-104805914D01*
X179738382Y-104805914D02*
X179738382Y-104043914D01*
X179665811Y-104152771D01*
X179593240Y-104225342D01*
X179520668Y-104261628D01*
X180609240Y-104043914D02*
X180464097Y-104043914D01*
X180391525Y-104080200D01*
X180355240Y-104116485D01*
X180282668Y-104225342D01*
X180246382Y-104370485D01*
X180246382Y-104660771D01*
X180282668Y-104733342D01*
X180318954Y-104769628D01*
X180391525Y-104805914D01*
X180536668Y-104805914D01*
X180609240Y-104769628D01*
X180645525Y-104733342D01*
X180681811Y-104660771D01*
X180681811Y-104479342D01*
X180645525Y-104406771D01*
X180609240Y-104370485D01*
X180536668Y-104334200D01*
X180391525Y-104334200D01*
X180318954Y-104370485D01*
X180282668Y-104406771D01*
X180246382Y-104479342D01*
G04 #@! TO.C,R17*
X179215142Y-89634714D02*
X178961142Y-89271857D01*
X178779714Y-89634714D02*
X178779714Y-88872714D01*
X179070000Y-88872714D01*
X179142571Y-88909000D01*
X179178857Y-88945285D01*
X179215142Y-89017857D01*
X179215142Y-89126714D01*
X179178857Y-89199285D01*
X179142571Y-89235571D01*
X179070000Y-89271857D01*
X178779714Y-89271857D01*
X179940857Y-89634714D02*
X179505428Y-89634714D01*
X179723142Y-89634714D02*
X179723142Y-88872714D01*
X179650571Y-88981571D01*
X179578000Y-89054142D01*
X179505428Y-89090428D01*
X180194857Y-88872714D02*
X180702857Y-88872714D01*
X180376285Y-89634714D01*
G04 #@! TO.C,R18*
X190669142Y-97289714D02*
X190415142Y-96926857D01*
X190233714Y-97289714D02*
X190233714Y-96527714D01*
X190524000Y-96527714D01*
X190596571Y-96564000D01*
X190632857Y-96600285D01*
X190669142Y-96672857D01*
X190669142Y-96781714D01*
X190632857Y-96854285D01*
X190596571Y-96890571D01*
X190524000Y-96926857D01*
X190233714Y-96926857D01*
X191394857Y-97289714D02*
X190959428Y-97289714D01*
X191177142Y-97289714D02*
X191177142Y-96527714D01*
X191104571Y-96636571D01*
X191032000Y-96709142D01*
X190959428Y-96745428D01*
X191830285Y-96854285D02*
X191757714Y-96818000D01*
X191721428Y-96781714D01*
X191685142Y-96709142D01*
X191685142Y-96672857D01*
X191721428Y-96600285D01*
X191757714Y-96564000D01*
X191830285Y-96527714D01*
X191975428Y-96527714D01*
X192048000Y-96564000D01*
X192084285Y-96600285D01*
X192120571Y-96672857D01*
X192120571Y-96709142D01*
X192084285Y-96781714D01*
X192048000Y-96818000D01*
X191975428Y-96854285D01*
X191830285Y-96854285D01*
X191757714Y-96890571D01*
X191721428Y-96926857D01*
X191685142Y-96999428D01*
X191685142Y-97144571D01*
X191721428Y-97217142D01*
X191757714Y-97253428D01*
X191830285Y-97289714D01*
X191975428Y-97289714D01*
X192048000Y-97253428D01*
X192084285Y-97217142D01*
X192120571Y-97144571D01*
X192120571Y-96999428D01*
X192084285Y-96926857D01*
X192048000Y-96890571D01*
X191975428Y-96854285D01*
G04 #@! TO.C,R19*
X190669142Y-104900114D02*
X190415142Y-104537257D01*
X190233714Y-104900114D02*
X190233714Y-104138114D01*
X190524000Y-104138114D01*
X190596571Y-104174400D01*
X190632857Y-104210685D01*
X190669142Y-104283257D01*
X190669142Y-104392114D01*
X190632857Y-104464685D01*
X190596571Y-104500971D01*
X190524000Y-104537257D01*
X190233714Y-104537257D01*
X191394857Y-104900114D02*
X190959428Y-104900114D01*
X191177142Y-104900114D02*
X191177142Y-104138114D01*
X191104571Y-104246971D01*
X191032000Y-104319542D01*
X190959428Y-104355828D01*
X191757714Y-104900114D02*
X191902857Y-104900114D01*
X191975428Y-104863828D01*
X192011714Y-104827542D01*
X192084285Y-104718685D01*
X192120571Y-104573542D01*
X192120571Y-104283257D01*
X192084285Y-104210685D01*
X192048000Y-104174400D01*
X191975428Y-104138114D01*
X191830285Y-104138114D01*
X191757714Y-104174400D01*
X191721428Y-104210685D01*
X191685142Y-104283257D01*
X191685142Y-104464685D01*
X191721428Y-104537257D01*
X191757714Y-104573542D01*
X191830285Y-104609828D01*
X191975428Y-104609828D01*
X192048000Y-104573542D01*
X192084285Y-104537257D01*
X192120571Y-104464685D01*
G04 #@! TO.C,R20*
X191915142Y-82514714D02*
X191661142Y-82151857D01*
X191479714Y-82514714D02*
X191479714Y-81752714D01*
X191770000Y-81752714D01*
X191842571Y-81789000D01*
X191878857Y-81825285D01*
X191915142Y-81897857D01*
X191915142Y-82006714D01*
X191878857Y-82079285D01*
X191842571Y-82115571D01*
X191770000Y-82151857D01*
X191479714Y-82151857D01*
X192205428Y-81825285D02*
X192241714Y-81789000D01*
X192314285Y-81752714D01*
X192495714Y-81752714D01*
X192568285Y-81789000D01*
X192604571Y-81825285D01*
X192640857Y-81897857D01*
X192640857Y-81970428D01*
X192604571Y-82079285D01*
X192169142Y-82514714D01*
X192640857Y-82514714D01*
X193112571Y-81752714D02*
X193185142Y-81752714D01*
X193257714Y-81789000D01*
X193294000Y-81825285D01*
X193330285Y-81897857D01*
X193366571Y-82043000D01*
X193366571Y-82224428D01*
X193330285Y-82369571D01*
X193294000Y-82442142D01*
X193257714Y-82478428D01*
X193185142Y-82514714D01*
X193112571Y-82514714D01*
X193040000Y-82478428D01*
X193003714Y-82442142D01*
X192967428Y-82369571D01*
X192931142Y-82224428D01*
X192931142Y-82043000D01*
X192967428Y-81897857D01*
X193003714Y-81825285D01*
X193040000Y-81789000D01*
X193112571Y-81752714D01*
G04 #@! TO.C,SW1*
X184709000Y-96193428D02*
X184817857Y-96229714D01*
X184999285Y-96229714D01*
X185071857Y-96193428D01*
X185108142Y-96157142D01*
X185144428Y-96084571D01*
X185144428Y-96012000D01*
X185108142Y-95939428D01*
X185071857Y-95903142D01*
X184999285Y-95866857D01*
X184854142Y-95830571D01*
X184781571Y-95794285D01*
X184745285Y-95758000D01*
X184709000Y-95685428D01*
X184709000Y-95612857D01*
X184745285Y-95540285D01*
X184781571Y-95504000D01*
X184854142Y-95467714D01*
X185035571Y-95467714D01*
X185144428Y-95504000D01*
X185398428Y-95467714D02*
X185579857Y-96229714D01*
X185725000Y-95685428D01*
X185870142Y-96229714D01*
X186051571Y-95467714D01*
X186741000Y-96229714D02*
X186305571Y-96229714D01*
X186523285Y-96229714D02*
X186523285Y-95467714D01*
X186450714Y-95576571D01*
X186378142Y-95649142D01*
X186305571Y-95685428D01*
G04 #@! TO.C,SW2*
X185039000Y-103813428D02*
X185147857Y-103849714D01*
X185329285Y-103849714D01*
X185401857Y-103813428D01*
X185438142Y-103777142D01*
X185474428Y-103704571D01*
X185474428Y-103632000D01*
X185438142Y-103559428D01*
X185401857Y-103523142D01*
X185329285Y-103486857D01*
X185184142Y-103450571D01*
X185111571Y-103414285D01*
X185075285Y-103378000D01*
X185039000Y-103305428D01*
X185039000Y-103232857D01*
X185075285Y-103160285D01*
X185111571Y-103124000D01*
X185184142Y-103087714D01*
X185365571Y-103087714D01*
X185474428Y-103124000D01*
X185728428Y-103087714D02*
X185909857Y-103849714D01*
X186055000Y-103305428D01*
X186200142Y-103849714D01*
X186381571Y-103087714D01*
X186635571Y-103160285D02*
X186671857Y-103124000D01*
X186744428Y-103087714D01*
X186925857Y-103087714D01*
X186998428Y-103124000D01*
X187034714Y-103160285D01*
X187071000Y-103232857D01*
X187071000Y-103305428D01*
X187034714Y-103414285D01*
X186599285Y-103849714D01*
X187071000Y-103849714D01*
G04 #@! TO.C,SW3*
X184583000Y-88573428D02*
X184691857Y-88609714D01*
X184873285Y-88609714D01*
X184945857Y-88573428D01*
X184982142Y-88537142D01*
X185018428Y-88464571D01*
X185018428Y-88392000D01*
X184982142Y-88319428D01*
X184945857Y-88283142D01*
X184873285Y-88246857D01*
X184728142Y-88210571D01*
X184655571Y-88174285D01*
X184619285Y-88138000D01*
X184583000Y-88065428D01*
X184583000Y-87992857D01*
X184619285Y-87920285D01*
X184655571Y-87884000D01*
X184728142Y-87847714D01*
X184909571Y-87847714D01*
X185018428Y-87884000D01*
X185272428Y-87847714D02*
X185453857Y-88609714D01*
X185599000Y-88065428D01*
X185744142Y-88609714D01*
X185925571Y-87847714D01*
X186143285Y-87847714D02*
X186615000Y-87847714D01*
X186361000Y-88138000D01*
X186469857Y-88138000D01*
X186542428Y-88174285D01*
X186578714Y-88210571D01*
X186615000Y-88283142D01*
X186615000Y-88464571D01*
X186578714Y-88537142D01*
X186542428Y-88573428D01*
X186469857Y-88609714D01*
X186252142Y-88609714D01*
X186179571Y-88573428D01*
X186143285Y-88537142D01*
G04 #@! TO.C,SW4*
X195834000Y-96193428D02*
X195942857Y-96229714D01*
X196124285Y-96229714D01*
X196196857Y-96193428D01*
X196233142Y-96157142D01*
X196269428Y-96084571D01*
X196269428Y-96012000D01*
X196233142Y-95939428D01*
X196196857Y-95903142D01*
X196124285Y-95866857D01*
X195979142Y-95830571D01*
X195906571Y-95794285D01*
X195870285Y-95758000D01*
X195834000Y-95685428D01*
X195834000Y-95612857D01*
X195870285Y-95540285D01*
X195906571Y-95504000D01*
X195979142Y-95467714D01*
X196160571Y-95467714D01*
X196269428Y-95504000D01*
X196523428Y-95467714D02*
X196704857Y-96229714D01*
X196850000Y-95685428D01*
X196995142Y-96229714D01*
X197176571Y-95467714D01*
X197793428Y-95721714D02*
X197793428Y-96229714D01*
X197612000Y-95431428D02*
X197430571Y-95975714D01*
X197902285Y-95975714D01*
G04 #@! TO.C,SW5*
X195954000Y-103813428D02*
X196062857Y-103849714D01*
X196244285Y-103849714D01*
X196316857Y-103813428D01*
X196353142Y-103777142D01*
X196389428Y-103704571D01*
X196389428Y-103632000D01*
X196353142Y-103559428D01*
X196316857Y-103523142D01*
X196244285Y-103486857D01*
X196099142Y-103450571D01*
X196026571Y-103414285D01*
X195990285Y-103378000D01*
X195954000Y-103305428D01*
X195954000Y-103232857D01*
X195990285Y-103160285D01*
X196026571Y-103124000D01*
X196099142Y-103087714D01*
X196280571Y-103087714D01*
X196389428Y-103124000D01*
X196643428Y-103087714D02*
X196824857Y-103849714D01*
X196970000Y-103305428D01*
X197115142Y-103849714D01*
X197296571Y-103087714D01*
X197949714Y-103087714D02*
X197586857Y-103087714D01*
X197550571Y-103450571D01*
X197586857Y-103414285D01*
X197659428Y-103378000D01*
X197840857Y-103378000D01*
X197913428Y-103414285D01*
X197949714Y-103450571D01*
X197986000Y-103523142D01*
X197986000Y-103704571D01*
X197949714Y-103777142D01*
X197913428Y-103813428D01*
X197840857Y-103849714D01*
X197659428Y-103849714D01*
X197586857Y-103813428D01*
X197550571Y-103777142D01*
G04 #@! TO.C,RESET*
X195691285Y-88609714D02*
X195437285Y-88246857D01*
X195255857Y-88609714D02*
X195255857Y-87847714D01*
X195546142Y-87847714D01*
X195618714Y-87884000D01*
X195655000Y-87920285D01*
X195691285Y-87992857D01*
X195691285Y-88101714D01*
X195655000Y-88174285D01*
X195618714Y-88210571D01*
X195546142Y-88246857D01*
X195255857Y-88246857D01*
X196017857Y-88210571D02*
X196271857Y-88210571D01*
X196380714Y-88609714D02*
X196017857Y-88609714D01*
X196017857Y-87847714D01*
X196380714Y-87847714D01*
X196671000Y-88573428D02*
X196779857Y-88609714D01*
X196961285Y-88609714D01*
X197033857Y-88573428D01*
X197070142Y-88537142D01*
X197106428Y-88464571D01*
X197106428Y-88392000D01*
X197070142Y-88319428D01*
X197033857Y-88283142D01*
X196961285Y-88246857D01*
X196816142Y-88210571D01*
X196743571Y-88174285D01*
X196707285Y-88138000D01*
X196671000Y-88065428D01*
X196671000Y-87992857D01*
X196707285Y-87920285D01*
X196743571Y-87884000D01*
X196816142Y-87847714D01*
X196997571Y-87847714D01*
X197106428Y-87884000D01*
X197433000Y-88210571D02*
X197687000Y-88210571D01*
X197795857Y-88609714D02*
X197433000Y-88609714D01*
X197433000Y-87847714D01*
X197795857Y-87847714D01*
X198013571Y-87847714D02*
X198449000Y-87847714D01*
X198231285Y-88609714D02*
X198231285Y-87847714D01*
G04 #@! TO.C,U4*
X194999428Y-24220714D02*
X194999428Y-24837571D01*
X195035714Y-24910142D01*
X195072000Y-24946428D01*
X195144571Y-24982714D01*
X195289714Y-24982714D01*
X195362285Y-24946428D01*
X195398571Y-24910142D01*
X195434857Y-24837571D01*
X195434857Y-24220714D01*
X196124285Y-24474714D02*
X196124285Y-24982714D01*
X195942857Y-24184428D02*
X195761428Y-24728714D01*
X196233142Y-24728714D01*
G04 #@! TO.C,U5*
X203889428Y-71603714D02*
X203889428Y-72220571D01*
X203925714Y-72293142D01*
X203962000Y-72329428D01*
X204034571Y-72365714D01*
X204179714Y-72365714D01*
X204252285Y-72329428D01*
X204288571Y-72293142D01*
X204324857Y-72220571D01*
X204324857Y-71603714D01*
X205050571Y-71603714D02*
X204687714Y-71603714D01*
X204651428Y-71966571D01*
X204687714Y-71930285D01*
X204760285Y-71894000D01*
X204941714Y-71894000D01*
X205014285Y-71930285D01*
X205050571Y-71966571D01*
X205086857Y-72039142D01*
X205086857Y-72220571D01*
X205050571Y-72293142D01*
X205014285Y-72329428D01*
X204941714Y-72365714D01*
X204760285Y-72365714D01*
X204687714Y-72329428D01*
X204651428Y-72293142D01*
G04 #@! TO.C,Y1*
X196487142Y-43796857D02*
X196487142Y-44159714D01*
X196233142Y-43397714D02*
X196487142Y-43796857D01*
X196741142Y-43397714D01*
X197394285Y-44159714D02*
X196958857Y-44159714D01*
X197176571Y-44159714D02*
X197176571Y-43397714D01*
X197104000Y-43506571D01*
X197031428Y-43579142D01*
X196958857Y-43615428D01*
G04 #@! TO.C,U2*
X206429428Y-99912714D02*
X206429428Y-100529571D01*
X206465714Y-100602142D01*
X206502000Y-100638428D01*
X206574571Y-100674714D01*
X206719714Y-100674714D01*
X206792285Y-100638428D01*
X206828571Y-100602142D01*
X206864857Y-100529571D01*
X206864857Y-99912714D01*
X207191428Y-99985285D02*
X207227714Y-99949000D01*
X207300285Y-99912714D01*
X207481714Y-99912714D01*
X207554285Y-99949000D01*
X207590571Y-99985285D01*
X207626857Y-100057857D01*
X207626857Y-100130428D01*
X207590571Y-100239285D01*
X207155142Y-100674714D01*
X207626857Y-100674714D01*
G04 #@! TO.C,C22*
X219211142Y-24529142D02*
X219174857Y-24565428D01*
X219066000Y-24601714D01*
X218993428Y-24601714D01*
X218884571Y-24565428D01*
X218812000Y-24492857D01*
X218775714Y-24420285D01*
X218739428Y-24275142D01*
X218739428Y-24166285D01*
X218775714Y-24021142D01*
X218812000Y-23948571D01*
X218884571Y-23876000D01*
X218993428Y-23839714D01*
X219066000Y-23839714D01*
X219174857Y-23876000D01*
X219211142Y-23912285D01*
X219501428Y-23912285D02*
X219537714Y-23876000D01*
X219610285Y-23839714D01*
X219791714Y-23839714D01*
X219864285Y-23876000D01*
X219900571Y-23912285D01*
X219936857Y-23984857D01*
X219936857Y-24057428D01*
X219900571Y-24166285D01*
X219465142Y-24601714D01*
X219936857Y-24601714D01*
X220227142Y-23912285D02*
X220263428Y-23876000D01*
X220336000Y-23839714D01*
X220517428Y-23839714D01*
X220590000Y-23876000D01*
X220626285Y-23912285D01*
X220662571Y-23984857D01*
X220662571Y-24057428D01*
X220626285Y-24166285D01*
X220190857Y-24601714D01*
X220662571Y-24601714D01*
G04 #@! TO.C,C23*
X220481142Y-86759142D02*
X220444857Y-86795428D01*
X220336000Y-86831714D01*
X220263428Y-86831714D01*
X220154571Y-86795428D01*
X220082000Y-86722857D01*
X220045714Y-86650285D01*
X220009428Y-86505142D01*
X220009428Y-86396285D01*
X220045714Y-86251142D01*
X220082000Y-86178571D01*
X220154571Y-86106000D01*
X220263428Y-86069714D01*
X220336000Y-86069714D01*
X220444857Y-86106000D01*
X220481142Y-86142285D01*
X220771428Y-86142285D02*
X220807714Y-86106000D01*
X220880285Y-86069714D01*
X221061714Y-86069714D01*
X221134285Y-86106000D01*
X221170571Y-86142285D01*
X221206857Y-86214857D01*
X221206857Y-86287428D01*
X221170571Y-86396285D01*
X220735142Y-86831714D01*
X221206857Y-86831714D01*
X221460857Y-86069714D02*
X221932571Y-86069714D01*
X221678571Y-86360000D01*
X221787428Y-86360000D01*
X221860000Y-86396285D01*
X221896285Y-86432571D01*
X221932571Y-86505142D01*
X221932571Y-86686571D01*
X221896285Y-86759142D01*
X221860000Y-86795428D01*
X221787428Y-86831714D01*
X221569714Y-86831714D01*
X221497142Y-86795428D01*
X221460857Y-86759142D01*
G04 #@! TO.C,C24*
X185556142Y-67074142D02*
X185519857Y-67110428D01*
X185411000Y-67146714D01*
X185338428Y-67146714D01*
X185229571Y-67110428D01*
X185157000Y-67037857D01*
X185120714Y-66965285D01*
X185084428Y-66820142D01*
X185084428Y-66711285D01*
X185120714Y-66566142D01*
X185157000Y-66493571D01*
X185229571Y-66421000D01*
X185338428Y-66384714D01*
X185411000Y-66384714D01*
X185519857Y-66421000D01*
X185556142Y-66457285D01*
X185846428Y-66457285D02*
X185882714Y-66421000D01*
X185955285Y-66384714D01*
X186136714Y-66384714D01*
X186209285Y-66421000D01*
X186245571Y-66457285D01*
X186281857Y-66529857D01*
X186281857Y-66602428D01*
X186245571Y-66711285D01*
X185810142Y-67146714D01*
X186281857Y-67146714D01*
X186935000Y-66638714D02*
X186935000Y-67146714D01*
X186753571Y-66348428D02*
X186572142Y-66892714D01*
X187043857Y-66892714D01*
G04 #@! TO.C,D2*
X206447571Y-87974714D02*
X206447571Y-87212714D01*
X206629000Y-87212714D01*
X206737857Y-87249000D01*
X206810428Y-87321571D01*
X206846714Y-87394142D01*
X206883000Y-87539285D01*
X206883000Y-87648142D01*
X206846714Y-87793285D01*
X206810428Y-87865857D01*
X206737857Y-87938428D01*
X206629000Y-87974714D01*
X206447571Y-87974714D01*
X207173285Y-87285285D02*
X207209571Y-87249000D01*
X207282142Y-87212714D01*
X207463571Y-87212714D01*
X207536142Y-87249000D01*
X207572428Y-87285285D01*
X207608714Y-87357857D01*
X207608714Y-87430428D01*
X207572428Y-87539285D01*
X207137000Y-87974714D01*
X207608714Y-87974714D01*
G04 #@! TO.C,D3*
X213051571Y-82132714D02*
X213051571Y-81370714D01*
X213233000Y-81370714D01*
X213341857Y-81407000D01*
X213414428Y-81479571D01*
X213450714Y-81552142D01*
X213487000Y-81697285D01*
X213487000Y-81806142D01*
X213450714Y-81951285D01*
X213414428Y-82023857D01*
X213341857Y-82096428D01*
X213233000Y-82132714D01*
X213051571Y-82132714D01*
X213741000Y-81370714D02*
X214212714Y-81370714D01*
X213958714Y-81661000D01*
X214067571Y-81661000D01*
X214140142Y-81697285D01*
X214176428Y-81733571D01*
X214212714Y-81806142D01*
X214212714Y-81987571D01*
X214176428Y-82060142D01*
X214140142Y-82096428D01*
X214067571Y-82132714D01*
X213849857Y-82132714D01*
X213777285Y-82096428D01*
X213741000Y-82060142D01*
G04 #@! TO.C,D4*
X208733571Y-72734714D02*
X208733571Y-71972714D01*
X208915000Y-71972714D01*
X209023857Y-72009000D01*
X209096428Y-72081571D01*
X209132714Y-72154142D01*
X209169000Y-72299285D01*
X209169000Y-72408142D01*
X209132714Y-72553285D01*
X209096428Y-72625857D01*
X209023857Y-72698428D01*
X208915000Y-72734714D01*
X208733571Y-72734714D01*
X209822142Y-72226714D02*
X209822142Y-72734714D01*
X209640714Y-71936428D02*
X209459285Y-72480714D01*
X209931000Y-72480714D01*
G04 #@! TO.C,D5*
X208733571Y-68416714D02*
X208733571Y-67654714D01*
X208915000Y-67654714D01*
X209023857Y-67691000D01*
X209096428Y-67763571D01*
X209132714Y-67836142D01*
X209169000Y-67981285D01*
X209169000Y-68090142D01*
X209132714Y-68235285D01*
X209096428Y-68307857D01*
X209023857Y-68380428D01*
X208915000Y-68416714D01*
X208733571Y-68416714D01*
X209858428Y-67654714D02*
X209495571Y-67654714D01*
X209459285Y-68017571D01*
X209495571Y-67981285D01*
X209568142Y-67945000D01*
X209749571Y-67945000D01*
X209822142Y-67981285D01*
X209858428Y-68017571D01*
X209894714Y-68090142D01*
X209894714Y-68271571D01*
X209858428Y-68344142D01*
X209822142Y-68380428D01*
X209749571Y-68416714D01*
X209568142Y-68416714D01*
X209495571Y-68380428D01*
X209459285Y-68344142D01*
G04 #@! TO.C,D6*
D15*
X208757571Y-64098714D02*
X208757571Y-63336714D01*
X208939000Y-63336714D01*
X209047857Y-63373000D01*
X209120428Y-63445571D01*
X209156714Y-63518142D01*
X209193000Y-63663285D01*
X209193000Y-63772142D01*
X209156714Y-63917285D01*
X209120428Y-63989857D01*
X209047857Y-64062428D01*
X208939000Y-64098714D01*
X208757571Y-64098714D01*
X209846142Y-63336714D02*
X209701000Y-63336714D01*
X209628428Y-63373000D01*
X209592142Y-63409285D01*
X209519571Y-63518142D01*
X209483285Y-63663285D01*
X209483285Y-63953571D01*
X209519571Y-64026142D01*
X209555857Y-64062428D01*
X209628428Y-64098714D01*
X209773571Y-64098714D01*
X209846142Y-64062428D01*
X209882428Y-64026142D01*
X209918714Y-63953571D01*
X209918714Y-63772142D01*
X209882428Y-63699571D01*
X209846142Y-63663285D01*
X209773571Y-63627000D01*
X209628428Y-63627000D01*
X209555857Y-63663285D01*
X209519571Y-63699571D01*
X209483285Y-63772142D01*
G04 #@! TO.C,POT1*
D13*
X224298328Y-60635242D02*
X224298328Y-59949442D01*
X224559585Y-59949442D01*
X224624900Y-59982100D01*
X224657557Y-60014757D01*
X224690214Y-60080071D01*
X224690214Y-60178042D01*
X224657557Y-60243357D01*
X224624900Y-60276014D01*
X224559585Y-60308671D01*
X224298328Y-60308671D01*
X225114757Y-59949442D02*
X225245385Y-59949442D01*
X225310700Y-59982100D01*
X225376014Y-60047414D01*
X225408671Y-60178042D01*
X225408671Y-60406642D01*
X225376014Y-60537271D01*
X225310700Y-60602585D01*
X225245385Y-60635242D01*
X225114757Y-60635242D01*
X225049442Y-60602585D01*
X224984128Y-60537271D01*
X224951471Y-60406642D01*
X224951471Y-60178042D01*
X224984128Y-60047414D01*
X225049442Y-59982100D01*
X225114757Y-59949442D01*
X225604614Y-59949442D02*
X225996500Y-59949442D01*
X225800557Y-60635242D02*
X225800557Y-59949442D01*
X226584328Y-60635242D02*
X226192442Y-60635242D01*
X226388385Y-60635242D02*
X226388385Y-59949442D01*
X226323071Y-60047414D01*
X226257757Y-60112728D01*
X226192442Y-60145385D01*
G04 #@! TO.C,R21*
X214784142Y-43905714D02*
X214530142Y-43542857D01*
X214348714Y-43905714D02*
X214348714Y-43143714D01*
X214639000Y-43143714D01*
X214711571Y-43180000D01*
X214747857Y-43216285D01*
X214784142Y-43288857D01*
X214784142Y-43397714D01*
X214747857Y-43470285D01*
X214711571Y-43506571D01*
X214639000Y-43542857D01*
X214348714Y-43542857D01*
X215074428Y-43216285D02*
X215110714Y-43180000D01*
X215183285Y-43143714D01*
X215364714Y-43143714D01*
X215437285Y-43180000D01*
X215473571Y-43216285D01*
X215509857Y-43288857D01*
X215509857Y-43361428D01*
X215473571Y-43470285D01*
X215038142Y-43905714D01*
X215509857Y-43905714D01*
X216235571Y-43905714D02*
X215800142Y-43905714D01*
X216017857Y-43905714D02*
X216017857Y-43143714D01*
X215945285Y-43252571D01*
X215872714Y-43325142D01*
X215800142Y-43361428D01*
G04 #@! TO.C,R22*
X206511142Y-50001714D02*
X206257142Y-49638857D01*
X206075714Y-50001714D02*
X206075714Y-49239714D01*
X206366000Y-49239714D01*
X206438571Y-49276000D01*
X206474857Y-49312285D01*
X206511142Y-49384857D01*
X206511142Y-49493714D01*
X206474857Y-49566285D01*
X206438571Y-49602571D01*
X206366000Y-49638857D01*
X206075714Y-49638857D01*
X206801428Y-49312285D02*
X206837714Y-49276000D01*
X206910285Y-49239714D01*
X207091714Y-49239714D01*
X207164285Y-49276000D01*
X207200571Y-49312285D01*
X207236857Y-49384857D01*
X207236857Y-49457428D01*
X207200571Y-49566285D01*
X206765142Y-50001714D01*
X207236857Y-50001714D01*
X207527142Y-49312285D02*
X207563428Y-49276000D01*
X207636000Y-49239714D01*
X207817428Y-49239714D01*
X207890000Y-49276000D01*
X207926285Y-49312285D01*
X207962571Y-49384857D01*
X207962571Y-49457428D01*
X207926285Y-49566285D01*
X207490857Y-50001714D01*
X207962571Y-50001714D01*
G04 #@! TO.C,R23*
X213614142Y-64098714D02*
X213360142Y-63735857D01*
X213178714Y-64098714D02*
X213178714Y-63336714D01*
X213469000Y-63336714D01*
X213541571Y-63373000D01*
X213577857Y-63409285D01*
X213614142Y-63481857D01*
X213614142Y-63590714D01*
X213577857Y-63663285D01*
X213541571Y-63699571D01*
X213469000Y-63735857D01*
X213178714Y-63735857D01*
X213904428Y-63409285D02*
X213940714Y-63373000D01*
X214013285Y-63336714D01*
X214194714Y-63336714D01*
X214267285Y-63373000D01*
X214303571Y-63409285D01*
X214339857Y-63481857D01*
X214339857Y-63554428D01*
X214303571Y-63663285D01*
X213868142Y-64098714D01*
X214339857Y-64098714D01*
X214593857Y-63336714D02*
X215065571Y-63336714D01*
X214811571Y-63627000D01*
X214920428Y-63627000D01*
X214993000Y-63663285D01*
X215029285Y-63699571D01*
X215065571Y-63772142D01*
X215065571Y-63953571D01*
X215029285Y-64026142D01*
X214993000Y-64062428D01*
X214920428Y-64098714D01*
X214702714Y-64098714D01*
X214630142Y-64062428D01*
X214593857Y-64026142D01*
G04 #@! TO.C,R24*
X214766142Y-40095714D02*
X214512142Y-39732857D01*
X214330714Y-40095714D02*
X214330714Y-39333714D01*
X214621000Y-39333714D01*
X214693571Y-39370000D01*
X214729857Y-39406285D01*
X214766142Y-39478857D01*
X214766142Y-39587714D01*
X214729857Y-39660285D01*
X214693571Y-39696571D01*
X214621000Y-39732857D01*
X214330714Y-39732857D01*
X215056428Y-39406285D02*
X215092714Y-39370000D01*
X215165285Y-39333714D01*
X215346714Y-39333714D01*
X215419285Y-39370000D01*
X215455571Y-39406285D01*
X215491857Y-39478857D01*
X215491857Y-39551428D01*
X215455571Y-39660285D01*
X215020142Y-40095714D01*
X215491857Y-40095714D01*
X216145000Y-39587714D02*
X216145000Y-40095714D01*
X215963571Y-39297428D02*
X215782142Y-39841714D01*
X216253857Y-39841714D01*
G04 #@! TO.C,R25*
X200814142Y-53176714D02*
X200560142Y-52813857D01*
X200378714Y-53176714D02*
X200378714Y-52414714D01*
X200669000Y-52414714D01*
X200741571Y-52451000D01*
X200777857Y-52487285D01*
X200814142Y-52559857D01*
X200814142Y-52668714D01*
X200777857Y-52741285D01*
X200741571Y-52777571D01*
X200669000Y-52813857D01*
X200378714Y-52813857D01*
X201104428Y-52487285D02*
X201140714Y-52451000D01*
X201213285Y-52414714D01*
X201394714Y-52414714D01*
X201467285Y-52451000D01*
X201503571Y-52487285D01*
X201539857Y-52559857D01*
X201539857Y-52632428D01*
X201503571Y-52741285D01*
X201068142Y-53176714D01*
X201539857Y-53176714D01*
X202229285Y-52414714D02*
X201866428Y-52414714D01*
X201830142Y-52777571D01*
X201866428Y-52741285D01*
X201939000Y-52705000D01*
X202120428Y-52705000D01*
X202193000Y-52741285D01*
X202229285Y-52777571D01*
X202265571Y-52850142D01*
X202265571Y-53031571D01*
X202229285Y-53104142D01*
X202193000Y-53140428D01*
X202120428Y-53176714D01*
X201939000Y-53176714D01*
X201866428Y-53140428D01*
X201830142Y-53104142D01*
G04 #@! TO.C,R26*
X206511142Y-53430714D02*
X206257142Y-53067857D01*
X206075714Y-53430714D02*
X206075714Y-52668714D01*
X206366000Y-52668714D01*
X206438571Y-52705000D01*
X206474857Y-52741285D01*
X206511142Y-52813857D01*
X206511142Y-52922714D01*
X206474857Y-52995285D01*
X206438571Y-53031571D01*
X206366000Y-53067857D01*
X206075714Y-53067857D01*
X206801428Y-52741285D02*
X206837714Y-52705000D01*
X206910285Y-52668714D01*
X207091714Y-52668714D01*
X207164285Y-52705000D01*
X207200571Y-52741285D01*
X207236857Y-52813857D01*
X207236857Y-52886428D01*
X207200571Y-52995285D01*
X206765142Y-53430714D01*
X207236857Y-53430714D01*
X207890000Y-52668714D02*
X207744857Y-52668714D01*
X207672285Y-52705000D01*
X207636000Y-52741285D01*
X207563428Y-52850142D01*
X207527142Y-52995285D01*
X207527142Y-53285571D01*
X207563428Y-53358142D01*
X207599714Y-53394428D01*
X207672285Y-53430714D01*
X207817428Y-53430714D01*
X207890000Y-53394428D01*
X207926285Y-53358142D01*
X207962571Y-53285571D01*
X207962571Y-53104142D01*
X207926285Y-53031571D01*
X207890000Y-52995285D01*
X207817428Y-52959000D01*
X207672285Y-52959000D01*
X207599714Y-52995285D01*
X207563428Y-53031571D01*
X207527142Y-53104142D01*
G04 #@! TO.C,U7*
X216589428Y-85053714D02*
X216589428Y-85670571D01*
X216625714Y-85743142D01*
X216662000Y-85779428D01*
X216734571Y-85815714D01*
X216879714Y-85815714D01*
X216952285Y-85779428D01*
X216988571Y-85743142D01*
X217024857Y-85670571D01*
X217024857Y-85053714D01*
X217315142Y-85053714D02*
X217823142Y-85053714D01*
X217496571Y-85815714D01*
G04 #@! TO.C,C25*
X191915142Y-78377142D02*
X191878857Y-78413428D01*
X191770000Y-78449714D01*
X191697428Y-78449714D01*
X191588571Y-78413428D01*
X191516000Y-78340857D01*
X191479714Y-78268285D01*
X191443428Y-78123142D01*
X191443428Y-78014285D01*
X191479714Y-77869142D01*
X191516000Y-77796571D01*
X191588571Y-77724000D01*
X191697428Y-77687714D01*
X191770000Y-77687714D01*
X191878857Y-77724000D01*
X191915142Y-77760285D01*
X192205428Y-77760285D02*
X192241714Y-77724000D01*
X192314285Y-77687714D01*
X192495714Y-77687714D01*
X192568285Y-77724000D01*
X192604571Y-77760285D01*
X192640857Y-77832857D01*
X192640857Y-77905428D01*
X192604571Y-78014285D01*
X192169142Y-78449714D01*
X192640857Y-78449714D01*
X193330285Y-77687714D02*
X192967428Y-77687714D01*
X192931142Y-78050571D01*
X192967428Y-78014285D01*
X193040000Y-77978000D01*
X193221428Y-77978000D01*
X193294000Y-78014285D01*
X193330285Y-78050571D01*
X193366571Y-78123142D01*
X193366571Y-78304571D01*
X193330285Y-78377142D01*
X193294000Y-78413428D01*
X193221428Y-78449714D01*
X193040000Y-78449714D01*
X192967428Y-78413428D01*
X192931142Y-78377142D01*
G04 #@! TO.C,DS1*
X222594714Y-24474714D02*
X222594714Y-23712714D01*
X222776142Y-23712714D01*
X222885000Y-23749000D01*
X222957571Y-23821571D01*
X222993857Y-23894142D01*
X223030142Y-24039285D01*
X223030142Y-24148142D01*
X222993857Y-24293285D01*
X222957571Y-24365857D01*
X222885000Y-24438428D01*
X222776142Y-24474714D01*
X222594714Y-24474714D01*
X223320428Y-24438428D02*
X223429285Y-24474714D01*
X223610714Y-24474714D01*
X223683285Y-24438428D01*
X223719571Y-24402142D01*
X223755857Y-24329571D01*
X223755857Y-24257000D01*
X223719571Y-24184428D01*
X223683285Y-24148142D01*
X223610714Y-24111857D01*
X223465571Y-24075571D01*
X223393000Y-24039285D01*
X223356714Y-24003000D01*
X223320428Y-23930428D01*
X223320428Y-23857857D01*
X223356714Y-23785285D01*
X223393000Y-23749000D01*
X223465571Y-23712714D01*
X223647000Y-23712714D01*
X223755857Y-23749000D01*
X224481571Y-24474714D02*
X224046142Y-24474714D01*
X224263857Y-24474714D02*
X224263857Y-23712714D01*
X224191285Y-23821571D01*
X224118714Y-23894142D01*
X224046142Y-23930428D01*
G04 #@! TO.C,J2*
X181991000Y-24982714D02*
X181991000Y-25527000D01*
X181954714Y-25635857D01*
X181882142Y-25708428D01*
X181773285Y-25744714D01*
X181700714Y-25744714D01*
X182317571Y-25055285D02*
X182353857Y-25019000D01*
X182426428Y-24982714D01*
X182607857Y-24982714D01*
X182680428Y-25019000D01*
X182716714Y-25055285D01*
X182753000Y-25127857D01*
X182753000Y-25200428D01*
X182716714Y-25309285D01*
X182281285Y-25744714D01*
X182753000Y-25744714D01*
G04 #@! TO.C,J3*
X182626000Y-70067714D02*
X182626000Y-70612000D01*
X182589714Y-70720857D01*
X182517142Y-70793428D01*
X182408285Y-70829714D01*
X182335714Y-70829714D01*
X182916285Y-70067714D02*
X183388000Y-70067714D01*
X183134000Y-70358000D01*
X183242857Y-70358000D01*
X183315428Y-70394285D01*
X183351714Y-70430571D01*
X183388000Y-70503142D01*
X183388000Y-70684571D01*
X183351714Y-70757142D01*
X183315428Y-70793428D01*
X183242857Y-70829714D01*
X183025142Y-70829714D01*
X182952571Y-70793428D01*
X182916285Y-70757142D01*
G04 #@! TO.C,U3*
X208969428Y-23712714D02*
X208969428Y-24329571D01*
X209005714Y-24402142D01*
X209042000Y-24438428D01*
X209114571Y-24474714D01*
X209259714Y-24474714D01*
X209332285Y-24438428D01*
X209368571Y-24402142D01*
X209404857Y-24329571D01*
X209404857Y-23712714D01*
X209695142Y-23712714D02*
X210166857Y-23712714D01*
X209912857Y-24003000D01*
X210021714Y-24003000D01*
X210094285Y-24039285D01*
X210130571Y-24075571D01*
X210166857Y-24148142D01*
X210166857Y-24329571D01*
X210130571Y-24402142D01*
X210094285Y-24438428D01*
X210021714Y-24474714D01*
X209804000Y-24474714D01*
X209731428Y-24438428D01*
X209695142Y-24402142D01*
G04 #@! TO.C,U6*
X199444428Y-56097714D02*
X199444428Y-56714571D01*
X199480714Y-56787142D01*
X199517000Y-56823428D01*
X199589571Y-56859714D01*
X199734714Y-56859714D01*
X199807285Y-56823428D01*
X199843571Y-56787142D01*
X199879857Y-56714571D01*
X199879857Y-56097714D01*
X200569285Y-56097714D02*
X200424142Y-56097714D01*
X200351571Y-56134000D01*
X200315285Y-56170285D01*
X200242714Y-56279142D01*
X200206428Y-56424285D01*
X200206428Y-56714571D01*
X200242714Y-56787142D01*
X200279000Y-56823428D01*
X200351571Y-56859714D01*
X200496714Y-56859714D01*
X200569285Y-56823428D01*
X200605571Y-56787142D01*
X200641857Y-56714571D01*
X200641857Y-56533142D01*
X200605571Y-56460571D01*
X200569285Y-56424285D01*
X200496714Y-56388000D01*
X200351571Y-56388000D01*
X200279000Y-56424285D01*
X200242714Y-56460571D01*
X200206428Y-56533142D01*
G04 #@! TO.C,IC1*
X214521142Y-49239714D02*
X214521142Y-48477714D01*
X215319428Y-49167142D02*
X215283142Y-49203428D01*
X215174285Y-49239714D01*
X215101714Y-49239714D01*
X214992857Y-49203428D01*
X214920285Y-49130857D01*
X214884000Y-49058285D01*
X214847714Y-48913142D01*
X214847714Y-48804285D01*
X214884000Y-48659142D01*
X214920285Y-48586571D01*
X214992857Y-48514000D01*
X215101714Y-48477714D01*
X215174285Y-48477714D01*
X215283142Y-48514000D01*
X215319428Y-48550285D01*
X216045142Y-49239714D02*
X215609714Y-49239714D01*
X215827428Y-49239714D02*
X215827428Y-48477714D01*
X215754857Y-48586571D01*
X215682285Y-48659142D01*
X215609714Y-48695428D01*
G04 #@! TO.C,DIG*
X179578000Y-53259714D02*
X179578000Y-52497714D01*
X179759428Y-52497714D01*
X179868285Y-52534000D01*
X179940857Y-52606571D01*
X179977142Y-52679142D01*
X180013428Y-52824285D01*
X180013428Y-52933142D01*
X179977142Y-53078285D01*
X179940857Y-53150857D01*
X179868285Y-53223428D01*
X179759428Y-53259714D01*
X179578000Y-53259714D01*
X180340000Y-53259714D02*
X180340000Y-52497714D01*
X181102000Y-52534000D02*
X181029428Y-52497714D01*
X180920571Y-52497714D01*
X180811714Y-52534000D01*
X180739142Y-52606571D01*
X180702857Y-52679142D01*
X180666571Y-52824285D01*
X180666571Y-52933142D01*
X180702857Y-53078285D01*
X180739142Y-53150857D01*
X180811714Y-53223428D01*
X180920571Y-53259714D01*
X180993142Y-53259714D01*
X181102000Y-53223428D01*
X181138285Y-53187142D01*
X181138285Y-52933142D01*
X180993142Y-52933142D01*
G04 #@! TO.C,GRAVA\00C7\00C3O ICSP*
X198700571Y-112649000D02*
X198628000Y-112612714D01*
X198519142Y-112612714D01*
X198410285Y-112649000D01*
X198337714Y-112721571D01*
X198301428Y-112794142D01*
X198265142Y-112939285D01*
X198265142Y-113048142D01*
X198301428Y-113193285D01*
X198337714Y-113265857D01*
X198410285Y-113338428D01*
X198519142Y-113374714D01*
X198591714Y-113374714D01*
X198700571Y-113338428D01*
X198736857Y-113302142D01*
X198736857Y-113048142D01*
X198591714Y-113048142D01*
X199498857Y-113374714D02*
X199244857Y-113011857D01*
X199063428Y-113374714D02*
X199063428Y-112612714D01*
X199353714Y-112612714D01*
X199426285Y-112649000D01*
X199462571Y-112685285D01*
X199498857Y-112757857D01*
X199498857Y-112866714D01*
X199462571Y-112939285D01*
X199426285Y-112975571D01*
X199353714Y-113011857D01*
X199063428Y-113011857D01*
X199789142Y-113157000D02*
X200152000Y-113157000D01*
X199716571Y-113374714D02*
X199970571Y-112612714D01*
X200224571Y-113374714D01*
X200369714Y-112612714D02*
X200623714Y-113374714D01*
X200877714Y-112612714D01*
X201095428Y-113157000D02*
X201458285Y-113157000D01*
X201022857Y-113374714D02*
X201276857Y-112612714D01*
X201530857Y-113374714D01*
X202220285Y-113302142D02*
X202184000Y-113338428D01*
X202075142Y-113374714D01*
X202002571Y-113374714D01*
X201893714Y-113338428D01*
X201821142Y-113265857D01*
X201784857Y-113193285D01*
X201748571Y-113048142D01*
X201748571Y-112939285D01*
X201784857Y-112794142D01*
X201821142Y-112721571D01*
X201893714Y-112649000D01*
X202002571Y-112612714D01*
X202075142Y-112612714D01*
X202184000Y-112649000D01*
X202220285Y-112685285D01*
X202038857Y-113411000D02*
X202111428Y-113447285D01*
X202147714Y-113519857D01*
X202111428Y-113592428D01*
X202038857Y-113628714D01*
X201930000Y-113628714D01*
X202510571Y-113157000D02*
X202873428Y-113157000D01*
X202438000Y-113374714D02*
X202692000Y-112612714D01*
X202946000Y-113374714D01*
X202510571Y-112431285D02*
X202546857Y-112395000D01*
X202619428Y-112358714D01*
X202764571Y-112431285D01*
X202837142Y-112395000D01*
X202873428Y-112358714D01*
X203345142Y-112612714D02*
X203490285Y-112612714D01*
X203562857Y-112649000D01*
X203635428Y-112721571D01*
X203671714Y-112866714D01*
X203671714Y-113120714D01*
X203635428Y-113265857D01*
X203562857Y-113338428D01*
X203490285Y-113374714D01*
X203345142Y-113374714D01*
X203272571Y-113338428D01*
X203200000Y-113265857D01*
X203163714Y-113120714D01*
X203163714Y-112866714D01*
X203200000Y-112721571D01*
X203272571Y-112649000D01*
X203345142Y-112612714D01*
X204578857Y-113374714D02*
X204578857Y-112612714D01*
X205377142Y-113302142D02*
X205340857Y-113338428D01*
X205232000Y-113374714D01*
X205159428Y-113374714D01*
X205050571Y-113338428D01*
X204978000Y-113265857D01*
X204941714Y-113193285D01*
X204905428Y-113048142D01*
X204905428Y-112939285D01*
X204941714Y-112794142D01*
X204978000Y-112721571D01*
X205050571Y-112649000D01*
X205159428Y-112612714D01*
X205232000Y-112612714D01*
X205340857Y-112649000D01*
X205377142Y-112685285D01*
X205667428Y-113338428D02*
X205776285Y-113374714D01*
X205957714Y-113374714D01*
X206030285Y-113338428D01*
X206066571Y-113302142D01*
X206102857Y-113229571D01*
X206102857Y-113157000D01*
X206066571Y-113084428D01*
X206030285Y-113048142D01*
X205957714Y-113011857D01*
X205812571Y-112975571D01*
X205740000Y-112939285D01*
X205703714Y-112903000D01*
X205667428Y-112830428D01*
X205667428Y-112757857D01*
X205703714Y-112685285D01*
X205740000Y-112649000D01*
X205812571Y-112612714D01*
X205994000Y-112612714D01*
X206102857Y-112649000D01*
X206429428Y-113374714D02*
X206429428Y-112612714D01*
X206719714Y-112612714D01*
X206792285Y-112649000D01*
X206828571Y-112685285D01*
X206864857Y-112757857D01*
X206864857Y-112866714D01*
X206828571Y-112939285D01*
X206792285Y-112975571D01*
X206719714Y-113011857D01*
X206429428Y-113011857D01*
G04 #@! TO.C,PWR*
X222504000Y-47969714D02*
X222504000Y-47207714D01*
X222794285Y-47207714D01*
X222866857Y-47244000D01*
X222903142Y-47280285D01*
X222939428Y-47352857D01*
X222939428Y-47461714D01*
X222903142Y-47534285D01*
X222866857Y-47570571D01*
X222794285Y-47606857D01*
X222504000Y-47606857D01*
X223193428Y-47207714D02*
X223374857Y-47969714D01*
X223520000Y-47425428D01*
X223665142Y-47969714D01*
X223846571Y-47207714D01*
X224572285Y-47969714D02*
X224318285Y-47606857D01*
X224136857Y-47969714D02*
X224136857Y-47207714D01*
X224427142Y-47207714D01*
X224499714Y-47244000D01*
X224536000Y-47280285D01*
X224572285Y-47352857D01*
X224572285Y-47461714D01*
X224536000Y-47534285D01*
X224499714Y-47570571D01*
X224427142Y-47606857D01*
X224136857Y-47606857D01*
G04 #@! TO.C,ANAG OUT*
X178574700Y-66154300D02*
X178901271Y-66154300D01*
X178509385Y-66350242D02*
X178737985Y-65664442D01*
X178966585Y-66350242D01*
X179195185Y-66350242D02*
X179195185Y-65664442D01*
X179587071Y-66350242D01*
X179587071Y-65664442D01*
X179880985Y-66154300D02*
X180207557Y-66154300D01*
X179815671Y-66350242D02*
X180044271Y-65664442D01*
X180272871Y-66350242D01*
X180860700Y-65697100D02*
X180795385Y-65664442D01*
X180697414Y-65664442D01*
X180599442Y-65697100D01*
X180534128Y-65762414D01*
X180501471Y-65827728D01*
X180468814Y-65958357D01*
X180468814Y-66056328D01*
X180501471Y-66186957D01*
X180534128Y-66252271D01*
X180599442Y-66317585D01*
X180697414Y-66350242D01*
X180762728Y-66350242D01*
X180860700Y-66317585D01*
X180893357Y-66284928D01*
X180893357Y-66056328D01*
X180762728Y-66056328D01*
X181840414Y-65664442D02*
X181971042Y-65664442D01*
X182036357Y-65697100D01*
X182101671Y-65762414D01*
X182134328Y-65893042D01*
X182134328Y-66121642D01*
X182101671Y-66252271D01*
X182036357Y-66317585D01*
X181971042Y-66350242D01*
X181840414Y-66350242D01*
X181775100Y-66317585D01*
X181709785Y-66252271D01*
X181677128Y-66121642D01*
X181677128Y-65893042D01*
X181709785Y-65762414D01*
X181775100Y-65697100D01*
X181840414Y-65664442D01*
X182428242Y-65664442D02*
X182428242Y-66219614D01*
X182460900Y-66284928D01*
X182493557Y-66317585D01*
X182558871Y-66350242D01*
X182689500Y-66350242D01*
X182754814Y-66317585D01*
X182787471Y-66284928D01*
X182820128Y-66219614D01*
X182820128Y-65664442D01*
X183048728Y-65664442D02*
X183440614Y-65664442D01*
X183244671Y-66350242D02*
X183244671Y-65664442D01*
G04 #@! TO.C,ANAG IN*
X221996000Y-39497000D02*
X222358857Y-39497000D01*
X221923428Y-39714714D02*
X222177428Y-38952714D01*
X222431428Y-39714714D01*
X222685428Y-39714714D02*
X222685428Y-38952714D01*
X223120857Y-39714714D01*
X223120857Y-38952714D01*
X223447428Y-39497000D02*
X223810285Y-39497000D01*
X223374857Y-39714714D02*
X223628857Y-38952714D01*
X223882857Y-39714714D01*
X224536000Y-38989000D02*
X224463428Y-38952714D01*
X224354571Y-38952714D01*
X224245714Y-38989000D01*
X224173142Y-39061571D01*
X224136857Y-39134142D01*
X224100571Y-39279285D01*
X224100571Y-39388142D01*
X224136857Y-39533285D01*
X224173142Y-39605857D01*
X224245714Y-39678428D01*
X224354571Y-39714714D01*
X224427142Y-39714714D01*
X224536000Y-39678428D01*
X224572285Y-39642142D01*
X224572285Y-39388142D01*
X224427142Y-39388142D01*
X225479428Y-39714714D02*
X225479428Y-38952714D01*
X225842285Y-39714714D02*
X225842285Y-38952714D01*
X226277714Y-39714714D01*
X226277714Y-38952714D01*
G04 #@! TO.C,SPI*
X187179857Y-113338428D02*
X187288714Y-113374714D01*
X187470142Y-113374714D01*
X187542714Y-113338428D01*
X187579000Y-113302142D01*
X187615285Y-113229571D01*
X187615285Y-113157000D01*
X187579000Y-113084428D01*
X187542714Y-113048142D01*
X187470142Y-113011857D01*
X187325000Y-112975571D01*
X187252428Y-112939285D01*
X187216142Y-112903000D01*
X187179857Y-112830428D01*
X187179857Y-112757857D01*
X187216142Y-112685285D01*
X187252428Y-112649000D01*
X187325000Y-112612714D01*
X187506428Y-112612714D01*
X187615285Y-112649000D01*
X187941857Y-113374714D02*
X187941857Y-112612714D01*
X188232142Y-112612714D01*
X188304714Y-112649000D01*
X188341000Y-112685285D01*
X188377285Y-112757857D01*
X188377285Y-112866714D01*
X188341000Y-112939285D01*
X188304714Y-112975571D01*
X188232142Y-113011857D01*
X187941857Y-113011857D01*
X188703857Y-113374714D02*
X188703857Y-112612714D01*
G04 #@! TO.C,EXT*
X179523571Y-42700571D02*
X179777571Y-42700571D01*
X179886428Y-43099714D02*
X179523571Y-43099714D01*
X179523571Y-42337714D01*
X179886428Y-42337714D01*
X180140428Y-42337714D02*
X180648428Y-43099714D01*
X180648428Y-42337714D02*
X180140428Y-43099714D01*
X180829857Y-42337714D02*
X181265285Y-42337714D01*
X181047571Y-43099714D02*
X181047571Y-42337714D01*
G04 #@! TO.C,PWM*
X207209571Y-44794714D02*
X207209571Y-44032714D01*
X207499857Y-44032714D01*
X207572428Y-44069000D01*
X207608714Y-44105285D01*
X207645000Y-44177857D01*
X207645000Y-44286714D01*
X207608714Y-44359285D01*
X207572428Y-44395571D01*
X207499857Y-44431857D01*
X207209571Y-44431857D01*
X207899000Y-44032714D02*
X208080428Y-44794714D01*
X208225571Y-44250428D01*
X208370714Y-44794714D01*
X208552142Y-44032714D01*
X208842428Y-44794714D02*
X208842428Y-44032714D01*
X209096428Y-44577000D01*
X209350428Y-44032714D01*
X209350428Y-44794714D01*
G04 #@! TO.C,TX/RX*
X223066428Y-80227714D02*
X223501857Y-80227714D01*
X223284142Y-80989714D02*
X223284142Y-80227714D01*
X223683285Y-80227714D02*
X224191285Y-80989714D01*
X224191285Y-80227714D02*
X223683285Y-80989714D01*
X225025857Y-80191428D02*
X224372714Y-81171142D01*
X225715285Y-80989714D02*
X225461285Y-80626857D01*
X225279857Y-80989714D02*
X225279857Y-80227714D01*
X225570142Y-80227714D01*
X225642714Y-80264000D01*
X225679000Y-80300285D01*
X225715285Y-80372857D01*
X225715285Y-80481714D01*
X225679000Y-80554285D01*
X225642714Y-80590571D01*
X225570142Y-80626857D01*
X225279857Y-80626857D01*
X225969285Y-80227714D02*
X226477285Y-80989714D01*
X226477285Y-80227714D02*
X225969285Y-80989714D01*
G04 #@! TO.C,U1*
X222304428Y-92927714D02*
X222304428Y-93544571D01*
X222340714Y-93617142D01*
X222377000Y-93653428D01*
X222449571Y-93689714D01*
X222594714Y-93689714D01*
X222667285Y-93653428D01*
X222703571Y-93617142D01*
X222739857Y-93544571D01*
X222739857Y-92927714D01*
X223501857Y-93689714D02*
X223066428Y-93689714D01*
X223284142Y-93689714D02*
X223284142Y-92927714D01*
X223211571Y-93036571D01*
X223139000Y-93109142D01*
X223066428Y-93145428D01*
G04 #@! TD*
M02*
