G04 #@! TF.GenerationSoftware,KiCad,Pcbnew,(5.0.2)-1*
G04 #@! TF.CreationDate,2019-06-11T21:21:37-03:00*
G04 #@! TF.ProjectId,projeto(2),70726f6a-6574-46f2-9832-292e6b696361,rev?*
G04 #@! TF.SameCoordinates,Original*
G04 #@! TF.FileFunction,Legend,Bot*
G04 #@! TF.FilePolarity,Positive*
%FSLAX46Y46*%
G04 Gerber Fmt 4.6, Leading zero omitted, Abs format (unit mm)*
G04 Created by KiCad (PCBNEW (5.0.2)-1) date 11/06/2019 21:21:37*
%MOMM*%
%LPD*%
G01*
G04 APERTURE LIST*
%ADD10C,0.150000*%
G04 APERTURE END LIST*
D10*
X206561428Y-104210000D02*
X205061428Y-103852857D01*
X206132857Y-103567142D01*
X205061428Y-103281428D01*
X206561428Y-102924285D01*
X205061428Y-102352857D02*
X206561428Y-102352857D01*
X205061428Y-101638571D02*
X206561428Y-101638571D01*
X205061428Y-100781428D01*
X206561428Y-100781428D01*
X205061428Y-100067142D02*
X206561428Y-100067142D01*
X206561428Y-99710000D01*
X206490000Y-99495714D01*
X206347142Y-99352857D01*
X206204285Y-99281428D01*
X205918571Y-99210000D01*
X205704285Y-99210000D01*
X205418571Y-99281428D01*
X205275714Y-99352857D01*
X205132857Y-99495714D01*
X205061428Y-99710000D01*
X205061428Y-100067142D01*
X205132857Y-98638571D02*
X205061428Y-98424285D01*
X205061428Y-98067142D01*
X205132857Y-97924285D01*
X205204285Y-97852857D01*
X205347142Y-97781428D01*
X205490000Y-97781428D01*
X205632857Y-97852857D01*
X205704285Y-97924285D01*
X205775714Y-98067142D01*
X205847142Y-98352857D01*
X205918571Y-98495714D01*
X205990000Y-98567142D01*
X206132857Y-98638571D01*
X206275714Y-98638571D01*
X206418571Y-98567142D01*
X206490000Y-98495714D01*
X206561428Y-98352857D01*
X206561428Y-97995714D01*
X206490000Y-97781428D01*
X206561428Y-96852857D02*
X206561428Y-96567142D01*
X206490000Y-96424285D01*
X206347142Y-96281428D01*
X206061428Y-96210000D01*
X205561428Y-96210000D01*
X205275714Y-96281428D01*
X205132857Y-96424285D01*
X205061428Y-96567142D01*
X205061428Y-96852857D01*
X205132857Y-96995714D01*
X205275714Y-97138571D01*
X205561428Y-97210000D01*
X206061428Y-97210000D01*
X206347142Y-97138571D01*
X206490000Y-96995714D01*
X206561428Y-96852857D01*
X205061428Y-95567142D02*
X206561428Y-95567142D01*
X205061428Y-94710000D01*
X206561428Y-94710000D01*
X205847142Y-92352857D02*
X205847142Y-92852857D01*
X205061428Y-92852857D02*
X206561428Y-92852857D01*
X206561428Y-92138571D01*
X205490000Y-91638571D02*
X205490000Y-90924285D01*
X205061428Y-91781428D02*
X206561428Y-91281428D01*
X205061428Y-90781428D01*
X205061428Y-89424285D02*
X205775714Y-89924285D01*
X205061428Y-90281428D02*
X206561428Y-90281428D01*
X206561428Y-89710000D01*
X206490000Y-89567142D01*
X206418571Y-89495714D01*
X206275714Y-89424285D01*
X206061428Y-89424285D01*
X205918571Y-89495714D01*
X205847142Y-89567142D01*
X205775714Y-89710000D01*
X205775714Y-90281428D01*
X205061428Y-88781428D02*
X206561428Y-88781428D01*
X205490000Y-88138571D02*
X205490000Y-87424285D01*
X205061428Y-88281428D02*
X206561428Y-87781428D01*
X205061428Y-87281428D01*
X205061428Y-85638571D02*
X206561428Y-85638571D01*
X205490000Y-85138571D01*
X206561428Y-84638571D01*
X205061428Y-84638571D01*
X205490000Y-83995714D02*
X205490000Y-83281428D01*
X205061428Y-84138571D02*
X206561428Y-83638571D01*
X205061428Y-83138571D01*
X205061428Y-82638571D02*
X206561428Y-82638571D01*
X205490000Y-81995714D02*
X205490000Y-81281428D01*
X205061428Y-82138571D02*
X206561428Y-81638571D01*
X205061428Y-81138571D01*
X208871428Y-103960000D02*
X210371428Y-103960000D01*
X209300000Y-103460000D01*
X210371428Y-102960000D01*
X208871428Y-102960000D01*
X209300000Y-102317142D02*
X209300000Y-101602857D01*
X208871428Y-102460000D02*
X210371428Y-101960000D01*
X208871428Y-101460000D01*
X210371428Y-101174285D02*
X210371428Y-100317142D01*
X208871428Y-100745714D02*
X210371428Y-100745714D01*
X209657142Y-99817142D02*
X209657142Y-99317142D01*
X208871428Y-99102857D02*
X208871428Y-99817142D01*
X210371428Y-99817142D01*
X210371428Y-99102857D01*
X210371428Y-98460000D02*
X209157142Y-98460000D01*
X209014285Y-98388571D01*
X208942857Y-98317142D01*
X208871428Y-98174285D01*
X208871428Y-97888571D01*
X208942857Y-97745714D01*
X209014285Y-97674285D01*
X209157142Y-97602857D01*
X210371428Y-97602857D01*
X208942857Y-96960000D02*
X208871428Y-96745714D01*
X208871428Y-96388571D01*
X208942857Y-96245714D01*
X209014285Y-96174285D01*
X209157142Y-96102857D01*
X209300000Y-96102857D01*
X209442857Y-96174285D01*
X209514285Y-96245714D01*
X209585714Y-96388571D01*
X209657142Y-96674285D01*
X209728571Y-96817142D01*
X209800000Y-96888571D01*
X209942857Y-96960000D01*
X210085714Y-96960000D01*
X210228571Y-96888571D01*
X210300000Y-96817142D01*
X210371428Y-96674285D01*
X210371428Y-96317142D01*
X210300000Y-96102857D01*
X208871428Y-94317142D02*
X210371428Y-94317142D01*
X210371428Y-93960000D01*
X210300000Y-93745714D01*
X210157142Y-93602857D01*
X210014285Y-93531428D01*
X209728571Y-93460000D01*
X209514285Y-93460000D01*
X209228571Y-93531428D01*
X209085714Y-93602857D01*
X208942857Y-93745714D01*
X208871428Y-93960000D01*
X208871428Y-94317142D01*
X210371428Y-92817142D02*
X209157142Y-92817142D01*
X209014285Y-92745714D01*
X208942857Y-92674285D01*
X208871428Y-92531428D01*
X208871428Y-92245714D01*
X208942857Y-92102857D01*
X209014285Y-92031428D01*
X209157142Y-91960000D01*
X210371428Y-91960000D01*
X208871428Y-91245714D02*
X210371428Y-91245714D01*
X209300000Y-90745714D01*
X210371428Y-90245714D01*
X208871428Y-90245714D01*
X209300000Y-89602857D02*
X209300000Y-88888571D01*
X208871428Y-89745714D02*
X210371428Y-89245714D01*
X208871428Y-88745714D01*
X208942857Y-88317142D02*
X208871428Y-88102857D01*
X208871428Y-87745714D01*
X208942857Y-87602857D01*
X209014285Y-87531428D01*
X209157142Y-87460000D01*
X209300000Y-87460000D01*
X209442857Y-87531428D01*
X209514285Y-87602857D01*
X209585714Y-87745714D01*
X209657142Y-88031428D01*
X209728571Y-88174285D01*
X209800000Y-88245714D01*
X209942857Y-88317142D01*
X210085714Y-88317142D01*
X210228571Y-88245714D01*
X210300000Y-88174285D01*
X210371428Y-88031428D01*
X210371428Y-87674285D01*
X210300000Y-87460000D01*
X208871428Y-84960000D02*
X208871428Y-85674285D01*
X210371428Y-85674285D01*
X208871428Y-84460000D02*
X210371428Y-84460000D01*
X208871428Y-83745714D02*
X210371428Y-83745714D01*
X209300000Y-83245714D01*
X210371428Y-82745714D01*
X208871428Y-82745714D01*
X209300000Y-82102857D02*
X209300000Y-81388571D01*
X208871428Y-82245714D02*
X210371428Y-81745714D01*
X208871428Y-81245714D01*
X214110000Y-102998571D02*
X214181428Y-103141428D01*
X214181428Y-103355714D01*
X214110000Y-103570000D01*
X213967142Y-103712857D01*
X213824285Y-103784285D01*
X213538571Y-103855714D01*
X213324285Y-103855714D01*
X213038571Y-103784285D01*
X212895714Y-103712857D01*
X212752857Y-103570000D01*
X212681428Y-103355714D01*
X212681428Y-103212857D01*
X212752857Y-102998571D01*
X212824285Y-102927142D01*
X213324285Y-102927142D01*
X213324285Y-103212857D01*
X214181428Y-102284285D02*
X212967142Y-102284285D01*
X212824285Y-102212857D01*
X212752857Y-102141428D01*
X212681428Y-101998571D01*
X212681428Y-101712857D01*
X212752857Y-101570000D01*
X212824285Y-101498571D01*
X212967142Y-101427142D01*
X214181428Y-101427142D01*
X212681428Y-100712857D02*
X214181428Y-100712857D01*
X212681428Y-99284285D02*
X212681428Y-99998571D01*
X214181428Y-99998571D01*
X212681428Y-98784285D02*
X214181428Y-98784285D01*
X213467142Y-98784285D02*
X213467142Y-97927142D01*
X212681428Y-97927142D02*
X214181428Y-97927142D01*
X213467142Y-97212857D02*
X213467142Y-96712857D01*
X212681428Y-96498571D02*
X212681428Y-97212857D01*
X214181428Y-97212857D01*
X214181428Y-96498571D01*
X212681428Y-94998571D02*
X213395714Y-95498571D01*
X212681428Y-95855714D02*
X214181428Y-95855714D01*
X214181428Y-95284285D01*
X214110000Y-95141428D01*
X214038571Y-95070000D01*
X213895714Y-94998571D01*
X213681428Y-94998571D01*
X213538571Y-95070000D01*
X213467142Y-95141428D01*
X213395714Y-95284285D01*
X213395714Y-95855714D01*
X212681428Y-94355714D02*
X214181428Y-94355714D01*
X213110000Y-93855714D01*
X214181428Y-93355714D01*
X212681428Y-93355714D01*
X213467142Y-92641428D02*
X213467142Y-92141428D01*
X212681428Y-91927142D02*
X212681428Y-92641428D01*
X214181428Y-92641428D01*
X214181428Y-91927142D01*
X214181428Y-90355714D02*
X212681428Y-89855714D01*
X214181428Y-89355714D01*
X212681428Y-88855714D02*
X214181428Y-88855714D01*
X212681428Y-87427142D02*
X212681428Y-88141428D01*
X214181428Y-88141428D01*
X213110000Y-86998571D02*
X213110000Y-86284285D01*
X212681428Y-87141428D02*
X214181428Y-86641428D01*
X212681428Y-86141428D01*
X212752857Y-85712857D02*
X212681428Y-85498571D01*
X212681428Y-85141428D01*
X212752857Y-84998571D01*
X212824285Y-84927142D01*
X212967142Y-84855714D01*
X213110000Y-84855714D01*
X213252857Y-84927142D01*
X213324285Y-84998571D01*
X213395714Y-85141428D01*
X213467142Y-85427142D01*
X213538571Y-85570000D01*
X213610000Y-85641428D01*
X213752857Y-85712857D01*
X213895714Y-85712857D01*
X214038571Y-85641428D01*
X214110000Y-85570000D01*
X214181428Y-85427142D01*
X214181428Y-85070000D01*
X214110000Y-84855714D01*
X213467142Y-82570000D02*
X213395714Y-82355714D01*
X213324285Y-82284285D01*
X213181428Y-82212857D01*
X212967142Y-82212857D01*
X212824285Y-82284285D01*
X212752857Y-82355714D01*
X212681428Y-82498571D01*
X212681428Y-83070000D01*
X214181428Y-83070000D01*
X214181428Y-82570000D01*
X214110000Y-82427142D01*
X214038571Y-82355714D01*
X213895714Y-82284285D01*
X213752857Y-82284285D01*
X213610000Y-82355714D01*
X213538571Y-82427142D01*
X213467142Y-82570000D01*
X213467142Y-83070000D01*
X214181428Y-81284285D02*
X214181428Y-80998571D01*
X214110000Y-80855714D01*
X213967142Y-80712857D01*
X213681428Y-80641428D01*
X213181428Y-80641428D01*
X212895714Y-80712857D01*
X212752857Y-80855714D01*
X212681428Y-80998571D01*
X212681428Y-81284285D01*
X212752857Y-81427142D01*
X212895714Y-81570000D01*
X213181428Y-81641428D01*
X213681428Y-81641428D01*
X213967142Y-81570000D01*
X214110000Y-81427142D01*
X214181428Y-81284285D01*
X213110000Y-80070000D02*
X213110000Y-79355714D01*
X212681428Y-80212857D02*
X214181428Y-79712857D01*
X212681428Y-79212857D01*
X212752857Y-78784285D02*
X212681428Y-78570000D01*
X212681428Y-78212857D01*
X212752857Y-78070000D01*
X212824285Y-77998571D01*
X212967142Y-77927142D01*
X213110000Y-77927142D01*
X213252857Y-77998571D01*
X213324285Y-78070000D01*
X213395714Y-78212857D01*
X213467142Y-78498571D01*
X213538571Y-78641428D01*
X213610000Y-78712857D01*
X213752857Y-78784285D01*
X213895714Y-78784285D01*
X214038571Y-78712857D01*
X214110000Y-78641428D01*
X214181428Y-78498571D01*
X214181428Y-78141428D01*
X214110000Y-77927142D01*
X213467142Y-75641428D02*
X213467142Y-76141428D01*
X212681428Y-76141428D02*
X214181428Y-76141428D01*
X214181428Y-75427142D01*
X212824285Y-74855714D02*
X212752857Y-74784285D01*
X212681428Y-74855714D01*
X212752857Y-74927142D01*
X212824285Y-74855714D01*
X212681428Y-74855714D01*
X212681428Y-72998571D02*
X214181428Y-72998571D01*
X214181428Y-72641428D01*
X214110000Y-72427142D01*
X213967142Y-72284285D01*
X213824285Y-72212857D01*
X213538571Y-72141428D01*
X213324285Y-72141428D01*
X213038571Y-72212857D01*
X212895714Y-72284285D01*
X212752857Y-72427142D01*
X212681428Y-72641428D01*
X212681428Y-72998571D01*
X213110000Y-71570000D02*
X213110000Y-70855714D01*
X212681428Y-71712857D02*
X214181428Y-71212857D01*
X212681428Y-70712857D01*
X212752857Y-69141428D02*
X212681428Y-68927142D01*
X212681428Y-68570000D01*
X212752857Y-68427142D01*
X212824285Y-68355714D01*
X212967142Y-68284285D01*
X213110000Y-68284285D01*
X213252857Y-68355714D01*
X213324285Y-68427142D01*
X213395714Y-68570000D01*
X213467142Y-68855714D01*
X213538571Y-68998571D01*
X213610000Y-69070000D01*
X213752857Y-69141428D01*
X213895714Y-69141428D01*
X214038571Y-69070000D01*
X214110000Y-68998571D01*
X214181428Y-68855714D01*
X214181428Y-68498571D01*
X214110000Y-68284285D01*
X212681428Y-67641428D02*
X214181428Y-67641428D01*
X212681428Y-66212857D02*
X212681428Y-66927142D01*
X214181428Y-66927142D01*
X214181428Y-65927142D02*
X212681428Y-65427142D01*
X214181428Y-64927142D01*
X213110000Y-64498571D02*
X213110000Y-63784285D01*
X212681428Y-64641428D02*
X214181428Y-64141428D01*
X212681428Y-63641428D01*
X217285000Y-103024285D02*
X217356428Y-103167142D01*
X217356428Y-103381428D01*
X217285000Y-103595714D01*
X217142142Y-103738571D01*
X216999285Y-103810000D01*
X216713571Y-103881428D01*
X216499285Y-103881428D01*
X216213571Y-103810000D01*
X216070714Y-103738571D01*
X215927857Y-103595714D01*
X215856428Y-103381428D01*
X215856428Y-103238571D01*
X215927857Y-103024285D01*
X215999285Y-102952857D01*
X216499285Y-102952857D01*
X216499285Y-103238571D01*
X215856428Y-101452857D02*
X216570714Y-101952857D01*
X215856428Y-102310000D02*
X217356428Y-102310000D01*
X217356428Y-101738571D01*
X217285000Y-101595714D01*
X217213571Y-101524285D01*
X217070714Y-101452857D01*
X216856428Y-101452857D01*
X216713571Y-101524285D01*
X216642142Y-101595714D01*
X216570714Y-101738571D01*
X216570714Y-102310000D01*
X217356428Y-100810000D02*
X216142142Y-100810000D01*
X215999285Y-100738571D01*
X215927857Y-100667142D01*
X215856428Y-100524285D01*
X215856428Y-100238571D01*
X215927857Y-100095714D01*
X215999285Y-100024285D01*
X216142142Y-99952857D01*
X217356428Y-99952857D01*
X215856428Y-99238571D02*
X217356428Y-99238571D01*
X217356428Y-98667142D01*
X217285000Y-98524285D01*
X217213571Y-98452857D01*
X217070714Y-98381428D01*
X216856428Y-98381428D01*
X216713571Y-98452857D01*
X216642142Y-98524285D01*
X216570714Y-98667142D01*
X216570714Y-99238571D01*
X217356428Y-97452857D02*
X217356428Y-97167142D01*
X217285000Y-97024285D01*
X217142142Y-96881428D01*
X216856428Y-96810000D01*
X216356428Y-96810000D01*
X216070714Y-96881428D01*
X215927857Y-97024285D01*
X215856428Y-97167142D01*
X215856428Y-97452857D01*
X215927857Y-97595714D01*
X216070714Y-97738571D01*
X216356428Y-97810000D01*
X216856428Y-97810000D01*
X217142142Y-97738571D01*
X217285000Y-97595714D01*
X217356428Y-97452857D01*
X216713571Y-94810000D02*
X216785000Y-94952857D01*
X216856428Y-95024285D01*
X216999285Y-95095714D01*
X217070714Y-95095714D01*
X217213571Y-95024285D01*
X217285000Y-94952857D01*
X217356428Y-94810000D01*
X217356428Y-94524285D01*
X217285000Y-94381428D01*
X217213571Y-94310000D01*
X217070714Y-94238571D01*
X216999285Y-94238571D01*
X216856428Y-94310000D01*
X216785000Y-94381428D01*
X216713571Y-94524285D01*
X216713571Y-94810000D01*
X216642142Y-94952857D01*
X216570714Y-95024285D01*
X216427857Y-95095714D01*
X216142142Y-95095714D01*
X215999285Y-95024285D01*
X215927857Y-94952857D01*
X215856428Y-94810000D01*
X215856428Y-94524285D01*
X215927857Y-94381428D01*
X215999285Y-94310000D01*
X216142142Y-94238571D01*
X216427857Y-94238571D01*
X216570714Y-94310000D01*
X216642142Y-94381428D01*
X216713571Y-94524285D01*
M02*
