M48
;DRILL file {KiCad (5.0.2)-1} date 11/06/2019 21:22:22
;FORMAT={2:4/ absolute / inch / suppress leading zeros}
FMAT,2
INCH,TZ
T1C0.0120
T2C0.0315
T3C0.0319
T4C0.0394
T5C0.0402
T6C0.0551
T7C0.0906
%
G90
G05
T1
X72846Y-19234
X74650Y-11743
X75150Y-14909
X75459Y-24006
X75650Y-14877
X75733Y-32250
X76476Y-32460
X76797Y-31177
X76851Y-39435
X77019Y-28767
X77161Y-41362
X77638Y-28951
X77769Y-31116
X77769Y-31474
X77775Y-30655
X77854Y-16799
X77974Y-15019
X77999Y-29519
X78235Y-28261
X78319Y-30664
X78355Y-27342
X78582Y-30418
X78586Y-28297
X78720Y-25930
X79003Y-26246
X79208Y-31478
X79361Y-31923
X79492Y-29524
X79587Y-30603
X79751Y-25870
X79829Y-26423
X79841Y-30886
X79960Y-32976
X80026Y-29812
X80044Y-30525
X80051Y-26120
X80370Y-39785
X80683Y-19490
X80812Y-32966
X81197Y-31373
X81498Y-29990
X81957Y-14020
X82360Y-15667
X82500Y-19174
X82570Y-31411
X82902Y-35683
X83167Y-10757
X85000Y-21143
X85133Y-23348
X85500Y-21541
X85750Y-39250
X86196Y-35461
T2
X88250Y-12000
X88250Y-13000
X88250Y-14000
X76329Y-18600
X78250Y-18600
T3
X71963Y-30500
X71963Y-31500
X72750Y-30500
X72750Y-31500
X71963Y-12750
X71963Y-13750
X72750Y-12750
X72750Y-13750
T4
X72500Y-45500
X73500Y-45500
X74500Y-45500
X75500Y-45500
X72250Y-8510
X73250Y-8510
X74250Y-8510
X75250Y-8510
X76250Y-8510
X77250Y-8510
X78250Y-8510
X79250Y-8510
X80250Y-8510
X81250Y-8510
X82250Y-8510
X83250Y-8510
X84250Y-8510
X85250Y-8510
X86250Y-8510
X87250Y-8510
X71720Y-35364
X71720Y-37136
X74280Y-35364
X74280Y-37136
X87500Y-19750
X87500Y-20750
X87500Y-21750
X87500Y-22750
X88500Y-19750
X88500Y-20750
X88500Y-21750
X88500Y-22750
X71720Y-38364
X71720Y-40136
X74280Y-38364
X74280Y-40136
X77250Y-45500
X78250Y-45500
X79250Y-45500
X80250Y-45500
X81250Y-45500
X82250Y-45500
X71000Y-17750
X71000Y-18750
X71000Y-19750
X76220Y-38364
X76220Y-40136
X78780Y-38364
X78780Y-40136
X88500Y-32750
X88500Y-33750
X76220Y-35364
X76220Y-37136
X78780Y-35364
X78780Y-37136
X71000Y-21750
X71000Y-22750
X71000Y-23750
X71000Y-24750
X71000Y-27000
X76220Y-41364
X76220Y-43136
X78780Y-41364
X78780Y-43136
X88250Y-16500
X88250Y-17500
X81000Y-18500
X82000Y-18500
X83000Y-18500
X71720Y-41364
X71720Y-43136
X74280Y-41364
X74280Y-43136
T6
X87850Y-25563
X87850Y-27531
X87850Y-29500
T7
X70900Y-28638
X70900Y-33362
X70900Y-10888
X70900Y-15612
T5
X84701Y-42750G85X85299Y-42750
G05
X84701Y-45152G85X85299Y-45152
G05
X87000Y-44549G85X87000Y-43951
G05
T0
M30
